<ttFont>
<head>
    <!-- Most of this table will be recalculated by the compiler -->
    <tableVersion value="1.0"/>
    <fontRevision value="1.0"/>
    <checkSumAdjustment value="0x10bed738"/>
    <magicNumber value="0x5f0f3cf5"/>
    <flags value="00000000 00001011"/>
    <unitsPerEm value="1000"/>
    <created value="Tue Nov 29 23:30:25 2022"/>
    <modified value="Wed Oct 25 10:36:23 2023"/>
    <xMin value="-327"/>
    <yMin value="-295"/>
    <xMax value="849"/>
    <yMax value="1084"/>
    <macStyle value="00000000 00000000"/>
    <lowestRecPPEM value="6"/>
    <fontDirectionHint value="2"/>
    <indexToLocFormat value="0"/>
    <glyphDataFormat value="0"/>
  </head>
    <TTGlyph name=".notdef" xMin="57" yMin="-240" xMax="557" yMax="960">
      <contour>
        <pt x="557" y="-240" on="1"/>
        <pt x="57" y="-240" on="1"/>
        <pt x="57" y="960" on="1"/>
        <pt x="557" y="960" on="1"/>
      </contour>
      <contour>
        <pt x="464" y="910" on="1"/>
        <pt x="149" y="910" on="1"/>
        <pt x="307" y="429" on="1"/>
      </contour>
      <contour>
        <pt x="507" y="874" on="1"/>
        <pt x="335" y="360" on="1"/>
        <pt x="507" y="-154" on="1"/>
      </contour>
      <contour>
        <pt x="107" y="-154" on="1"/>
        <pt x="278" y="360" on="1"/>
        <pt x="107" y="874" on="1"/>
      </contour>
      <contour>
        <pt x="464" y="-190" on="1"/>
        <pt x="307" y="291" on="1"/>
        <pt x="149" y="-190" on="1"/>
      </contour>
    </TTGlyph>
    <TTGlyph name="A" xMin="-20" yMin="0" xMax="502" yMax="655">
      <contour>
        <pt x="171" y="201" on="1"/>
        <pt x="47" y="0" on="1"/>
        <pt x="-20" y="0" on="1"/>
        <pt x="393" y="655" on="1"/>
        <pt x="467" y="655" on="1"/>
        <pt x="502" y="0" on="1"/>
        <pt x="442" y="0" on="1"/>
        <pt x="432" y="201" on="1"/>
      </contour>
      <contour>
        <pt x="414" y="596" on="1"/>
        <pt x="202" y="252" on="1"/>
        <pt x="430" y="252" on="1"/>
      </contour>
    </TTGlyph>
    <TTGlyph name="AE" xMin="-75" yMin="0" xMax="713" yMax="655">
      <contour>
        <pt x="120" y="200" on="1"/>
        <pt x="-8" y="0" on="1"/>
        <pt x="-75" y="0" on="1"/>
        <pt x="351" y="655" on="1"/>
        <pt x="713" y="655" on="1"/>
        <pt x="698" y="604" on="1"/>
        <pt x="470" y="604" on="1"/>
        <pt x="399" y="357" on="1"/>
        <pt x="599" y="357" on="1"/>
        <pt x="585" y="306" on="1"/>
        <pt x="385" y="306" on="1"/>
        <pt x="312" y="51" on="1"/>
        <pt x="540" y="51" on="1"/>
        <pt x="525" y="0" on="1"/>
        <pt x="236" y="0" on="1"/>
        <pt x="293" y="200" on="1"/>
      </contour>
      <contour>
        <pt x="378" y="604" on="1"/>
        <pt x="152" y="251" on="1"/>
        <pt x="308" y="251" on="1"/>
        <pt x="409" y="604" on="1"/>
      </contour>
    </TTGlyph>
    <TTGlyph name="Aacute" xMin="-20" yMin="0" xMax="646" yMax="920">
      <component glyphName="A" x="0" y="0" flags="0x204"/>
      <component glyphName="uni0301.cap" x="292" y="0" flags="0x4"/>
    </TTGlyph>
    <TTGlyph name="Abreve" xMin="-20" yMin="0" xMax="666" yMax="909">
      <component glyphName="A" x="0" y="0" flags="0x204"/>
      <component glyphName="uni0306.cap" x="292" y="0" flags="0x4"/>
    </TTGlyph>
    <TTGlyph name="Acircumflex" xMin="-20" yMin="0" xMax="621" yMax="911">
      <component glyphName="A" x="0" y="0" flags="0x204"/>
      <component glyphName="uni0302.cap" x="288" y="-10" flags="0x4"/>
    </TTGlyph>
    <TTGlyph name="Adieresis" xMin="-20" yMin="0" xMax="648" yMax="856">
      <component glyphName="A" x="0" y="0" flags="0x204"/>
      <component glyphName="uni0308.cap" x="292" y="0" flags="0x4"/>
    </TTGlyph>
    <TTGlyph name="Agrave" xMin="-20" yMin="0" xMax="517" yMax="913">
      <component glyphName="A" x="0" y="0" flags="0x204"/>
      <component glyphName="uni0300.cap" x="292" y="0" flags="0x4"/>
    </TTGlyph>
    <TTGlyph name="Amacron" xMin="-20" yMin="0" xMax="625" yMax="821">
      <component glyphName="A" x="0" y="0" flags="0x204"/>
      <component glyphName="uni0304.cap" x="292" y="0" flags="0x4"/>
    </TTGlyph>
    <TTGlyph name="Aogonek" xMin="-20" yMin="-235" xMax="502" yMax="655">
      <contour>
        <pt x="171" y="201" on="1"/>
        <pt x="47" y="0" on="1"/>
        <pt x="-20" y="0" on="1"/>
        <pt x="393" y="655" on="1"/>
        <pt x="467" y="655" on="1"/>
        <pt x="502" y="0" on="1"/>
        <pt x="488" y="0" on="1"/>
        <pt x="432" y="-57" on="0"/>
        <pt x="380" y="-131" on="0"/>
        <pt x="380" y="-158" on="1"/>
        <pt x="380" y="-173" on="0"/>
        <pt x="405" y="-186" on="0"/>
        <pt x="436" y="-188" on="1"/>
        <pt x="501" y="-192" on="1"/>
        <pt x="485" y="-235" on="1"/>
        <pt x="410" y="-231" on="1"/>
        <pt x="360" y="-228" on="0"/>
        <pt x="318" y="-201" on="0"/>
        <pt x="318" y="-170" on="1"/>
        <pt x="318" y="-136" on="0"/>
        <pt x="375" y="-64" on="0"/>
        <pt x="447" y="0" on="1"/>
        <pt x="442" y="0" on="1"/>
        <pt x="432" y="201" on="1"/>
      </contour>
      <contour>
        <pt x="414" y="596" on="1"/>
        <pt x="202" y="252" on="1"/>
        <pt x="430" y="252" on="1"/>
      </contour>
    </TTGlyph>
    <TTGlyph name="Aring" xMin="-20" yMin="0" xMax="599" yMax="834">
      <contour>
        <pt x="171" y="201" on="1"/>
        <pt x="47" y="0" on="1"/>
        <pt x="-20" y="0" on="1"/>
        <pt x="370" y="618" on="1"/>
        <pt x="334" y="629" on="0"/>
        <pt x="295" y="674" on="0"/>
        <pt x="295" y="706" on="1"/>
        <pt x="295" y="763" on="0"/>
        <pt x="383" y="834" on="0"/>
        <pt x="461" y="834" on="1"/>
        <pt x="523" y="834" on="0"/>
        <pt x="599" y="782" on="0"/>
        <pt x="599" y="737" on="1"/>
        <pt x="599" y="687" on="0"/>
        <pt x="530" y="619" on="0"/>
        <pt x="469" y="611" on="1"/>
        <pt x="502" y="0" on="1"/>
        <pt x="442" y="0" on="1"/>
        <pt x="432" y="201" on="1"/>
      </contour>
      <contour>
        <pt x="550" y="735" on="1"/>
        <pt x="550" y="762" on="0"/>
        <pt x="499" y="790" on="0"/>
        <pt x="451" y="790" on="1"/>
        <pt x="403" y="790" on="0"/>
        <pt x="344" y="743" on="0"/>
        <pt x="344" y="708" on="1"/>
        <pt x="344" y="681" on="0"/>
        <pt x="395" y="653" on="0"/>
        <pt x="443" y="653" on="1"/>
        <pt x="491" y="653" on="0"/>
        <pt x="550" y="700" on="0"/>
      </contour>
      <contour>
        <pt x="414" y="596" on="1"/>
        <pt x="202" y="252" on="1"/>
        <pt x="430" y="252" on="1"/>
      </contour>
    </TTGlyph>
    <TTGlyph name="Atilde" xMin="-20" yMin="0" xMax="666" yMax="897">
      <component glyphName="A" x="0" y="0" flags="0x204"/>
      <component glyphName="uni0303.cap" x="292" y="0" flags="0x4"/>
    </TTGlyph>
    <TTGlyph name="B" xMin="37" yMin="0" xMax="617" yMax="655">
      <contour>
        <pt x="37" y="0" on="1"/>
        <pt x="225" y="655" on="1"/>
        <pt x="444" y="655" on="1"/>
        <pt x="527" y="655" on="0"/>
        <pt x="617" y="589" on="0"/>
        <pt x="617" y="529" on="1"/>
        <pt x="617" y="457" on="0"/>
        <pt x="514" y="360" on="0"/>
        <pt x="413" y="338" on="1"/>
        <pt x="413" y="334" on="1"/>
        <pt x="479" y="321" on="0"/>
        <pt x="548" y="249" on="0"/>
        <pt x="548" y="194" on="1"/>
        <pt x="548" y="106" on="0"/>
        <pt x="405" y="0" on="0"/>
        <pt x="281" y="0" on="1"/>
      </contour>
      <contour>
        <pt x="551" y="519" on="1"/>
        <pt x="551" y="561" on="0"/>
        <pt x="492" y="606" on="0"/>
        <pt x="436" y="606" on="1"/>
        <pt x="270" y="606" on="1"/>
        <pt x="199" y="359" on="1"/>
        <pt x="317" y="364" on="1"/>
        <pt x="423" y="369" on="0"/>
        <pt x="551" y="457" on="0"/>
      </contour>
      <contour>
        <pt x="485" y="198" on="1"/>
        <pt x="485" y="248" on="0"/>
        <pt x="400" y="308" on="0"/>
        <pt x="323" y="310" on="1"/>
        <pt x="186" y="314" on="1"/>
        <pt x="110" y="49" on="1"/>
        <pt x="297" y="49" on="1"/>
        <pt x="380" y="49" on="0"/>
        <pt x="485" y="135" on="0"/>
      </contour>
    </TTGlyph>
    <TTGlyph name="C" xMin="69" yMin="-15" xMax="656" yMax="670">
      <contour>
        <pt x="266" y="-15" on="1"/>
        <pt x="170" y="-15" on="0"/>
        <pt x="69" y="91" on="0"/>
        <pt x="69" y="193" on="1"/>
        <pt x="69" y="279" on="0"/>
        <pt x="119" y="444" on="0"/>
        <pt x="164" y="510" on="1"/>
        <pt x="217" y="587" on="0"/>
        <pt x="361" y="670" on="0"/>
        <pt x="443" y="670" on="1"/>
        <pt x="507" y="670" on="0"/>
        <pt x="598" y="629" on="0"/>
        <pt x="656" y="576" on="1"/>
        <pt x="616" y="532" on="1"/>
        <pt x="567" y="579" on="0"/>
        <pt x="491" y="619" on="0"/>
        <pt x="441" y="619" on="1"/>
        <pt x="372" y="619" on="0"/>
        <pt x="252" y="543" on="0"/>
        <pt x="208" y="471" on="1"/>
        <pt x="172" y="413" on="0"/>
        <pt x="133" y="269" on="0"/>
        <pt x="133" y="195" on="1"/>
        <pt x="133" y="120" on="0"/>
        <pt x="204" y="36" on="0"/>
        <pt x="265" y="36" on="1"/>
        <pt x="313" y="36" on="0"/>
        <pt x="414" y="77" on="0"/>
        <pt x="492" y="127" on="1"/>
        <pt x="524" y="81" on="1"/>
        <pt x="442" y="27" on="0"/>
        <pt x="329" y="-15" on="0"/>
      </contour>
    </TTGlyph>
    <TTGlyph name="Cacute" xMin="69" yMin="-15" xMax="684" yMax="920">
      <component glyphName="C" x="0" y="0" flags="0x204"/>
      <component glyphName="uni0301.cap" x="330" y="0" flags="0x4"/>
    </TTGlyph>
    <TTGlyph name="Ccaron" xMin="69" yMin="-15" xMax="694" yMax="920">
      <component glyphName="C" x="0" y="0" flags="0x204"/>
      <component glyphName="uni030C.cap" x="330" y="0" flags="0x4"/>
    </TTGlyph>
    <TTGlyph name="Ccedilla" xMin="69" yMin="-270" xMax="656" yMax="670">
      <contour>
        <pt x="376" y="-151" on="1"/>
        <pt x="376" y="-192" on="0"/>
        <pt x="320" y="-233" on="0"/>
        <pt x="255" y="-247" on="1"/>
        <pt x="223" y="-253" on="0"/>
        <pt x="139" y="-265" on="0"/>
        <pt x="85" y="-270" on="1"/>
        <pt x="85" y="-221" on="1"/>
        <pt x="124" y="-217" on="0"/>
        <pt x="186" y="-210" on="0"/>
        <pt x="210" y="-207" on="1"/>
        <pt x="266" y="-198" on="0"/>
        <pt x="312" y="-177" on="0"/>
        <pt x="312" y="-155" on="1"/>
        <pt x="312" y="-135" on="0"/>
        <pt x="256" y="-116" on="0"/>
        <pt x="179" y="-108" on="1"/>
        <pt x="176" y="-98" on="1"/>
        <pt x="231" y="-13" on="1"/>
        <pt x="152" y="-4" on="0"/>
        <pt x="69" y="101" on="0"/>
        <pt x="69" y="193" on="1"/>
        <pt x="69" y="279" on="0"/>
        <pt x="119" y="444" on="0"/>
        <pt x="164" y="510" on="1"/>
        <pt x="217" y="587" on="0"/>
        <pt x="361" y="670" on="0"/>
        <pt x="443" y="670" on="1"/>
        <pt x="507" y="670" on="0"/>
        <pt x="598" y="629" on="0"/>
        <pt x="656" y="576" on="1"/>
        <pt x="616" y="532" on="1"/>
        <pt x="567" y="579" on="0"/>
        <pt x="491" y="619" on="0"/>
        <pt x="441" y="619" on="1"/>
        <pt x="372" y="619" on="0"/>
        <pt x="252" y="543" on="0"/>
        <pt x="208" y="471" on="1"/>
        <pt x="172" y="413" on="0"/>
        <pt x="133" y="269" on="0"/>
        <pt x="133" y="195" on="1"/>
        <pt x="133" y="120" on="0"/>
        <pt x="204" y="36" on="0"/>
        <pt x="265" y="36" on="1"/>
        <pt x="313" y="36" on="0"/>
        <pt x="414" y="77" on="0"/>
        <pt x="492" y="127" on="1"/>
        <pt x="524" y="81" on="1"/>
        <pt x="444" y="28" on="0"/>
        <pt x="334" y="-14" on="0"/>
        <pt x="274" y="-15" on="1"/>
        <pt x="242" y="-66" on="1"/>
        <pt x="318" y="-78" on="0"/>
        <pt x="376" y="-112" on="0"/>
      </contour>
    </TTGlyph>
    <TTGlyph name="Ccircumflex" xMin="69" yMin="-15" xMax="661" yMax="916">
      <component glyphName="C" x="0" y="0" flags="0x204"/>
      <component glyphName="uni0302.cap" x="328" y="-5" flags="0x4"/>
    </TTGlyph>
    <TTGlyph name="Cdotaccent" xMin="69" yMin="-15" xMax="656" yMax="860">
      <component glyphName="C" x="0" y="0" flags="0x204"/>
      <component glyphName="uni0307.cap" x="330" y="0" flags="0x4"/>
    </TTGlyph>
    <TTGlyph name="D" xMin="34" yMin="0" xMax="604" yMax="655">
      <contour>
        <pt x="34" y="0" on="1"/>
        <pt x="222" y="655" on="1"/>
        <pt x="312" y="655" on="1"/>
        <pt x="391" y="655" on="0"/>
        <pt x="508" y="618" on="0"/>
        <pt x="544" y="582" on="1"/>
        <pt x="574" y="552" on="0"/>
        <pt x="604" y="470" on="0"/>
        <pt x="604" y="419" on="1"/>
        <pt x="604" y="334" on="0"/>
        <pt x="543" y="185" on="0"/>
        <pt x="485" y="127" on="1"/>
        <pt x="422" y="64" on="0"/>
        <pt x="237" y="0" on="0"/>
        <pt x="117" y="0" on="1"/>
      </contour>
      <contour>
        <pt x="540" y="425" on="1"/>
        <pt x="540" y="512" on="0"/>
        <pt x="427" y="604" on="0"/>
        <pt x="320" y="604" on="1"/>
        <pt x="268" y="604" on="1"/>
        <pt x="110" y="51" on="1"/>
        <pt x="307" y="51" on="0"/>
        <pt x="540" y="256" on="0"/>
      </contour>
    </TTGlyph>
    <TTGlyph name="Dcaron" xMin="34" yMin="0" xMax="637" yMax="920">
      <component glyphName="D" x="0" y="0" flags="0x204"/>
      <component glyphName="uni030C.cap" x="273" y="0" flags="0x4"/>
    </TTGlyph>
    <TTGlyph name="Dcroat" xMin="54" yMin="0" xMax="606" yMax="655">
      <component glyphName="Eth" x="0" y="0" flags="0x204"/>
    </TTGlyph>
    <TTGlyph name="E" xMin="37" yMin="0" xMax="655" yMax="655">
      <contour>
        <pt x="37" y="0" on="1"/>
        <pt x="225" y="655" on="1"/>
        <pt x="655" y="655" on="1"/>
        <pt x="640" y="604" on="1"/>
        <pt x="271" y="604" on="1"/>
        <pt x="200" y="357" on="1"/>
        <pt x="505" y="357" on="1"/>
        <pt x="491" y="306" on="1"/>
        <pt x="186" y="306" on="1"/>
        <pt x="113" y="51" on="1"/>
        <pt x="491" y="51" on="1"/>
        <pt x="476" y="0" on="1"/>
      </contour>
    </TTGlyph>
    <TTGlyph name="Eacute" xMin="37" yMin="0" xMax="689" yMax="920">
      <component glyphName="E" x="0" y="0" flags="0x204"/>
      <component glyphName="uni0301.cap" x="335" y="0" flags="0x4"/>
    </TTGlyph>
    <TTGlyph name="Ebreve" xMin="37" yMin="0" xMax="709" yMax="909">
      <component glyphName="E" x="0" y="0" flags="0x204"/>
      <component glyphName="uni0306.cap" x="335" y="0" flags="0x4"/>
    </TTGlyph>
    <TTGlyph name="Ecaron" xMin="37" yMin="0" xMax="699" yMax="920">
      <component glyphName="E" x="0" y="0" flags="0x204"/>
      <component glyphName="uni030C.cap" x="335" y="0" flags="0x4"/>
    </TTGlyph>
    <TTGlyph name="Ecircumflex" xMin="37" yMin="0" xMax="668" yMax="921">
      <component glyphName="E" x="0" y="0" flags="0x204"/>
      <component glyphName="uni0302.cap" x="335" y="0" flags="0x4"/>
    </TTGlyph>
    <TTGlyph name="Edieresis" xMin="37" yMin="0" xMax="691" yMax="856">
      <component glyphName="E" x="0" y="0" flags="0x204"/>
      <component glyphName="uni0308.cap" x="335" y="0" flags="0x4"/>
    </TTGlyph>
    <TTGlyph name="Edotaccent" xMin="37" yMin="0" xMax="655" yMax="860">
      <component glyphName="E" x="0" y="0" flags="0x204"/>
      <component glyphName="uni0307.cap" x="335" y="0" flags="0x4"/>
    </TTGlyph>
    <TTGlyph name="Egrave" xMin="37" yMin="0" xMax="655" yMax="913">
      <component glyphName="E" x="0" y="0" flags="0x204"/>
      <component glyphName="uni0300.cap" x="335" y="0" flags="0x4"/>
    </TTGlyph>
    <TTGlyph name="Emacron" xMin="37" yMin="0" xMax="668" yMax="821">
      <component glyphName="E" x="0" y="0" flags="0x204"/>
      <component glyphName="uni0304.cap" x="335" y="0" flags="0x4"/>
    </TTGlyph>
    <TTGlyph name="Eng" xMin="31" yMin="-239" xMax="639" yMax="655">
      <contour>
        <pt x="261" y="616" on="1"/>
        <pt x="89" y="0" on="1"/>
        <pt x="31" y="0" on="1"/>
        <pt x="219" y="655" on="1"/>
        <pt x="309" y="655" on="1"/>
        <pt x="413" y="55" on="1"/>
        <pt x="581" y="655" on="1"/>
        <pt x="639" y="655" on="1"/>
        <pt x="430" y="-74" on="1"/>
        <pt x="409" y="-150" on="0"/>
        <pt x="310" y="-224" on="0"/>
        <pt x="221" y="-230" on="1"/>
        <pt x="89" y="-239" on="1"/>
        <pt x="89" y="-188" on="1"/>
        <pt x="233" y="-178" on="1"/>
        <pt x="296" y="-173" on="0"/>
        <pt x="361" y="-121" on="0"/>
        <pt x="380" y="-63" on="1"/>
      </contour>
    </TTGlyph>
    <TTGlyph name="Eogonek" xMin="37" yMin="-235" xMax="655" yMax="655">
      <contour>
        <pt x="241" y="-170" on="1"/>
        <pt x="241" y="-136" on="0"/>
        <pt x="298" y="-64" on="0"/>
        <pt x="370" y="0" on="1"/>
        <pt x="37" y="0" on="1"/>
        <pt x="225" y="655" on="1"/>
        <pt x="655" y="655" on="1"/>
        <pt x="640" y="604" on="1"/>
        <pt x="271" y="604" on="1"/>
        <pt x="200" y="357" on="1"/>
        <pt x="505" y="357" on="1"/>
        <pt x="491" y="306" on="1"/>
        <pt x="186" y="306" on="1"/>
        <pt x="113" y="51" on="1"/>
        <pt x="491" y="51" on="1"/>
        <pt x="476" y="0" on="1"/>
        <pt x="411" y="0" on="1"/>
        <pt x="355" y="-57" on="0"/>
        <pt x="303" y="-131" on="0"/>
        <pt x="303" y="-158" on="1"/>
        <pt x="303" y="-173" on="0"/>
        <pt x="328" y="-186" on="0"/>
        <pt x="359" y="-188" on="1"/>
        <pt x="424" y="-192" on="1"/>
        <pt x="408" y="-235" on="1"/>
        <pt x="333" y="-231" on="1"/>
        <pt x="283" y="-228" on="0"/>
        <pt x="241" y="-201" on="0"/>
      </contour>
    </TTGlyph>
    <TTGlyph name="Eth" xMin="54" yMin="0" xMax="606" yMax="655">
      <contour>
        <pt x="142" y="308" on="1"/>
        <pt x="56" y="308" on="1"/>
        <pt x="69" y="352" on="1"/>
        <pt x="155" y="352" on="1"/>
        <pt x="242" y="655" on="1"/>
        <pt x="323" y="655" on="1"/>
        <pt x="400" y="655" on="0"/>
        <pt x="510" y="620" on="0"/>
        <pt x="547" y="583" on="1"/>
        <pt x="576" y="554" on="0"/>
        <pt x="606" y="471" on="0"/>
        <pt x="606" y="419" on="1"/>
        <pt x="606" y="334" on="0"/>
        <pt x="545" y="185" on="0"/>
        <pt x="487" y="127" on="1"/>
        <pt x="424" y="64" on="0"/>
        <pt x="248" y="0" on="0"/>
        <pt x="137" y="0" on="1"/>
        <pt x="54" y="0" on="1"/>
      </contour>
      <contour>
        <pt x="356" y="352" on="1"/>
        <pt x="343" y="308" on="1"/>
        <pt x="203" y="308" on="1"/>
        <pt x="130" y="51" on="1"/>
        <pt x="318" y="51" on="0"/>
        <pt x="542" y="258" on="0"/>
        <pt x="542" y="425" on="1"/>
        <pt x="542" y="512" on="0"/>
        <pt x="439" y="604" on="0"/>
        <pt x="340" y="604" on="1"/>
        <pt x="288" y="604" on="1"/>
        <pt x="216" y="352" on="1"/>
      </contour>
    </TTGlyph>
    <TTGlyph name="Euro" xMin="37" yMin="-15" xMax="645" yMax="670">
      <contour>
        <pt x="126" y="233" on="1"/>
        <pt x="37" y="233" on="1"/>
        <pt x="51" y="281" on="1"/>
        <pt x="138" y="281" on="1"/>
        <pt x="164" y="374" on="1"/>
        <pt x="77" y="374" on="1"/>
        <pt x="91" y="422" on="1"/>
        <pt x="178" y="422" on="1"/>
        <pt x="216" y="543" on="0"/>
        <pt x="359" y="670" on="0"/>
        <pt x="457" y="670" on="1"/>
        <pt x="509" y="670" on="0"/>
        <pt x="591" y="647" on="0"/>
        <pt x="645" y="617" on="1"/>
        <pt x="621" y="569" on="1"/>
        <pt x="570" y="597" on="0"/>
        <pt x="503" y="619" on="0"/>
        <pt x="465" y="619" on="1"/>
        <pt x="385" y="619" on="0"/>
        <pt x="274" y="521" on="0"/>
        <pt x="241" y="421" on="1"/>
        <pt x="480" y="421" on="1"/>
        <pt x="467" y="375" on="1"/>
        <pt x="228" y="375" on="1"/>
        <pt x="200" y="280" on="1"/>
        <pt x="439" y="280" on="1"/>
        <pt x="426" y="234" on="1"/>
        <pt x="188" y="234" on="1"/>
        <pt x="184" y="213" on="0"/>
        <pt x="180" y="178" on="0"/>
        <pt x="180" y="162" on="1"/>
        <pt x="181" y="99" on="0"/>
        <pt x="249" y="36" on="0"/>
        <pt x="315" y="36" on="1"/>
        <pt x="356" y="36" on="0"/>
        <pt x="434" y="61" on="0"/>
        <pt x="488" y="90" on="1"/>
        <pt x="512" y="42" on="1"/>
        <pt x="461" y="13" on="0"/>
        <pt x="359" y="-15" on="0"/>
        <pt x="308" y="-15" on="1"/>
        <pt x="215" y="-15" on="0"/>
        <pt x="118" y="73" on="0"/>
        <pt x="118" y="157" on="1"/>
        <pt x="118" y="179" on="0"/>
        <pt x="122" y="214" on="0"/>
      </contour>
    </TTGlyph>
    <TTGlyph name="F" xMin="37" yMin="0" xMax="651" yMax="655">
      <contour>
        <pt x="37" y="0" on="1"/>
        <pt x="225" y="655" on="1"/>
        <pt x="651" y="655" on="1"/>
        <pt x="636" y="604" on="1"/>
        <pt x="271" y="604" on="1"/>
        <pt x="192" y="326" on="1"/>
        <pt x="520" y="326" on="1"/>
        <pt x="506" y="275" on="1"/>
        <pt x="177" y="275" on="1"/>
        <pt x="98" y="0" on="1"/>
      </contour>
    </TTGlyph>
    <TTGlyph name="G" xMin="61" yMin="-15" xMax="623" yMax="664">
      <contour>
        <pt x="623" y="655" on="1"/>
        <pt x="612" y="603" on="1"/>
        <pt x="580" y="609" on="0"/>
        <pt x="537" y="613" on="0"/>
        <pt x="508" y="613" on="1"/>
        <pt x="424" y="613" on="0"/>
        <pt x="283" y="557" on="0"/>
        <pt x="232" y="503" on="1"/>
        <pt x="180" y="449" on="0"/>
        <pt x="125" y="304" on="0"/>
        <pt x="125" y="224" on="1"/>
        <pt x="125" y="129" on="0"/>
        <pt x="221" y="36" on="0"/>
        <pt x="319" y="36" on="1"/>
        <pt x="344" y="36" on="0"/>
        <pt x="397" y="43" on="0"/>
        <pt x="423" y="49" on="1"/>
        <pt x="503" y="292" on="1"/>
        <pt x="328" y="292" on="1"/>
        <pt x="342" y="343" on="1"/>
        <pt x="578" y="343" on="1"/>
        <pt x="470" y="7" on="1"/>
        <pt x="431" y="-5" on="0"/>
        <pt x="360" y="-15" on="0"/>
        <pt x="316" y="-15" on="1"/>
        <pt x="190" y="-15" on="0"/>
        <pt x="61" y="105" on="0"/>
        <pt x="61" y="223" on="1"/>
        <pt x="61" y="314" on="0"/>
        <pt x="129" y="482" on="0"/>
        <pt x="192" y="543" on="1"/>
        <pt x="253" y="603" on="0"/>
        <pt x="418" y="664" on="0"/>
        <pt x="517" y="664" on="1"/>
        <pt x="542" y="664" on="0"/>
        <pt x="590" y="660" on="0"/>
      </contour>
    </TTGlyph>
    <TTGlyph name="Gbreve" xMin="61" yMin="-15" xMax="727" yMax="914">
      <component glyphName="G" x="0" y="0" flags="0x204"/>
      <component glyphName="uni0306.cap" x="353" y="5" flags="0x4"/>
    </TTGlyph>
    <TTGlyph name="Gcaron" xMin="61" yMin="-15" xMax="717" yMax="925">
      <component glyphName="G" x="0" y="0" flags="0x204"/>
      <component glyphName="uni030C.cap" x="353" y="5" flags="0x4"/>
    </TTGlyph>
    <TTGlyph name="Gcircumflex" xMin="61" yMin="-15" xMax="684" yMax="921">
      <component glyphName="G" x="0" y="0" flags="0x204"/>
      <component glyphName="uni0302.cap" x="351" y="0" flags="0x4"/>
    </TTGlyph>
    <TTGlyph name="Gdotaccent" xMin="61" yMin="-15" xMax="623" yMax="865">
      <component glyphName="G" x="0" y="0" flags="0x204"/>
      <component glyphName="uni0307.cap" x="353" y="5" flags="0x4"/>
    </TTGlyph>
    <TTGlyph name="H" xMin="34" yMin="0" xMax="636" yMax="655">
      <contour>
        <pt x="34" y="0" on="1"/>
        <pt x="222" y="655" on="1"/>
        <pt x="283" y="655" on="1"/>
        <pt x="197" y="356" on="1"/>
        <pt x="489" y="356" on="1"/>
        <pt x="575" y="655" on="1"/>
        <pt x="636" y="655" on="1"/>
        <pt x="448" y="0" on="1"/>
        <pt x="387" y="0" on="1"/>
        <pt x="475" y="305" on="1"/>
        <pt x="183" y="305" on="1"/>
        <pt x="95" y="0" on="1"/>
      </contour>
    </TTGlyph>
    <TTGlyph name="Hbar" xMin="54" yMin="0" xMax="663" yMax="655">
      <contour>
        <pt x="191" y="477" on="1"/>
        <pt x="105" y="477" on="1"/>
        <pt x="117" y="521" on="1"/>
        <pt x="204" y="521" on="1"/>
        <pt x="242" y="655" on="1"/>
        <pt x="303" y="655" on="1"/>
        <pt x="265" y="521" on="1"/>
        <pt x="517" y="521" on="1"/>
        <pt x="555" y="655" on="1"/>
        <pt x="616" y="655" on="1"/>
        <pt x="578" y="521" on="1"/>
        <pt x="663" y="521" on="1"/>
        <pt x="651" y="477" on="1"/>
        <pt x="565" y="477" on="1"/>
        <pt x="428" y="0" on="1"/>
        <pt x="367" y="0" on="1"/>
        <pt x="449" y="285" on="1"/>
        <pt x="197" y="285" on="1"/>
        <pt x="115" y="0" on="1"/>
        <pt x="54" y="0" on="1"/>
      </contour>
      <contour>
        <pt x="252" y="477" on="1"/>
        <pt x="211" y="336" on="1"/>
        <pt x="463" y="336" on="1"/>
        <pt x="504" y="477" on="1"/>
      </contour>
    </TTGlyph>
    <TTGlyph name="Hcircumflex" xMin="34" yMin="0" xMax="640" yMax="921">
      <component glyphName="H" x="0" y="0" flags="0x204"/>
      <component glyphName="uni0302.cap" x="307" y="0" flags="0x4"/>
    </TTGlyph>
    <TTGlyph name="I" xMin="73" yMin="0" xMax="597" yMax="655">
      <contour>
        <pt x="73" y="0" on="1"/>
        <pt x="81" y="26" on="1"/>
        <pt x="219" y="49" on="1"/>
        <pt x="391" y="608" on="1"/>
        <pt x="253" y="629" on="1"/>
        <pt x="261" y="655" on="1"/>
        <pt x="597" y="655" on="1"/>
        <pt x="589" y="629" on="1"/>
        <pt x="452" y="606" on="1"/>
        <pt x="280" y="47" on="1"/>
        <pt x="416" y="26" on="1"/>
        <pt x="409" y="0" on="1"/>
      </contour>
    </TTGlyph>
    <TTGlyph name="Iacute" xMin="73" yMin="0" xMax="661" yMax="920">
      <component glyphName="I" x="0" y="0" flags="0x204"/>
      <component glyphName="uni0301.cap" x="307" y="0" flags="0x4"/>
    </TTGlyph>
    <TTGlyph name="Ibreve" xMin="73" yMin="0" xMax="681" yMax="909">
      <component glyphName="I" x="0" y="0" flags="0x204"/>
      <component glyphName="uni0306.cap" x="307" y="0" flags="0x4"/>
    </TTGlyph>
    <TTGlyph name="Icircumflex" xMin="73" yMin="0" xMax="639" yMax="921">
      <component glyphName="I" x="0" y="0" flags="0x204"/>
      <component glyphName="uni0302.cap" x="306" y="0" flags="0x4"/>
    </TTGlyph>
    <TTGlyph name="Idieresis" xMin="73" yMin="0" xMax="663" yMax="856">
      <component glyphName="I" x="0" y="0" flags="0x204"/>
      <component glyphName="uni0308.cap" x="307" y="0" flags="0x4"/>
    </TTGlyph>
    <TTGlyph name="Idotaccent" xMin="73" yMin="0" xMax="597" yMax="860">
      <component glyphName="I" x="0" y="0" flags="0x204"/>
      <component glyphName="uni0307.cap" x="307" y="0" flags="0x4"/>
    </TTGlyph>
    <TTGlyph name="Igrave" xMin="73" yMin="0" xMax="597" yMax="913">
      <component glyphName="I" x="0" y="0" flags="0x204"/>
      <component glyphName="uni0300.cap" x="307" y="0" flags="0x4"/>
    </TTGlyph>
    <TTGlyph name="Imacron" xMin="73" yMin="0" xMax="640" yMax="821">
      <component glyphName="I" x="0" y="0" flags="0x204"/>
      <component glyphName="uni0304.cap" x="307" y="0" flags="0x4"/>
    </TTGlyph>
    <TTGlyph name="Iogonek" xMin="73" yMin="-234" xMax="597" yMax="655">
      <contour>
        <pt x="73" y="0" on="1"/>
        <pt x="81" y="26" on="1"/>
        <pt x="219" y="49" on="1"/>
        <pt x="391" y="608" on="1"/>
        <pt x="253" y="629" on="1"/>
        <pt x="261" y="655" on="1"/>
        <pt x="597" y="655" on="1"/>
        <pt x="589" y="629" on="1"/>
        <pt x="452" y="606" on="1"/>
        <pt x="280" y="47" on="1"/>
        <pt x="416" y="26" on="1"/>
        <pt x="409" y="0" on="1"/>
        <pt x="260" y="0" on="1"/>
        <pt x="205" y="-56" on="0"/>
        <pt x="153" y="-130" on="0"/>
        <pt x="153" y="-157" on="1"/>
        <pt x="153" y="-172" on="0"/>
        <pt x="178" y="-185" on="0"/>
        <pt x="209" y="-187" on="1"/>
        <pt x="274" y="-191" on="1"/>
        <pt x="258" y="-234" on="1"/>
        <pt x="183" y="-230" on="1"/>
        <pt x="133" y="-227" on="0"/>
        <pt x="91" y="-200" on="0"/>
        <pt x="91" y="-169" on="1"/>
        <pt x="91" y="-135" on="0"/>
        <pt x="147" y="-63" on="0"/>
        <pt x="218" y="0" on="1"/>
      </contour>
    </TTGlyph>
    <TTGlyph name="Itilde" xMin="73" yMin="0" xMax="681" yMax="897">
      <component glyphName="I" x="0" y="0" flags="0x204"/>
      <component glyphName="uni0303.cap" x="307" y="0" flags="0x4"/>
    </TTGlyph>
    <TTGlyph name="J" xMin="36" yMin="-10" xMax="625" yMax="655">
      <contour>
        <pt x="263" y="-10" on="1"/>
        <pt x="197" y="-10" on="0"/>
        <pt x="96" y="57" on="0"/>
        <pt x="36" y="138" on="1"/>
        <pt x="82" y="175" on="1"/>
        <pt x="134" y="102" on="0"/>
        <pt x="215" y="40" on="0"/>
        <pt x="266" y="40" on="1"/>
        <pt x="327" y="40" on="0"/>
        <pt x="408" y="111" on="0"/>
        <pt x="428" y="182" on="1"/>
        <pt x="564" y="655" on="1"/>
        <pt x="625" y="655" on="1"/>
        <pt x="489" y="180" on="1"/>
        <pt x="461" y="83" on="0"/>
        <pt x="349" y="-10" on="0"/>
      </contour>
    </TTGlyph>
    <TTGlyph name="Jcircumflex" xMin="36" yMin="-10" xMax="801" yMax="911">
      <component glyphName="J" x="0" y="0" flags="0x204"/>
      <component glyphName="uni0302.cap" x="468" y="-10" flags="0x4"/>
    </TTGlyph>
    <TTGlyph name="K" xMin="37" yMin="0" xMax="692" yMax="655">
      <contour>
        <pt x="225" y="655" on="1"/>
        <pt x="286" y="655" on="1"/>
        <pt x="195" y="338" on="1"/>
        <pt x="603" y="655" on="1"/>
        <pt x="692" y="655" on="1"/>
        <pt x="692" y="653" on="1"/>
        <pt x="264" y="326" on="1"/>
        <pt x="519" y="2" on="1"/>
        <pt x="519" y="0" on="1"/>
        <pt x="440" y="0" on="1"/>
        <pt x="191" y="324" on="1"/>
        <pt x="98" y="0" on="1"/>
        <pt x="37" y="0" on="1"/>
      </contour>
    </TTGlyph>
    <TTGlyph name="L" xMin="37" yMin="0" xMax="487" yMax="655">
      <contour>
        <pt x="37" y="0" on="1"/>
        <pt x="225" y="655" on="1"/>
        <pt x="286" y="655" on="1"/>
        <pt x="112" y="50" on="1"/>
        <pt x="487" y="50" on="1"/>
        <pt x="473" y="0" on="1"/>
      </contour>
    </TTGlyph>
    <TTGlyph name="Lacute" xMin="37" yMin="0" xMax="492" yMax="920">
      <component glyphName="L" x="0" y="0" flags="0x204"/>
      <component glyphName="uni0301.cap" x="138" y="0" flags="0x4"/>
    </TTGlyph>
    <TTGlyph name="Lcaron" xMin="37" yMin="0" xMax="535" yMax="655">
      <component glyphName="L" x="0" y="0" flags="0x204"/>
      <component glyphName="uni0315" x="327" y="-55" flags="0x4"/>
    </TTGlyph>
    <TTGlyph name="Ldot" xMin="37" yMin="0" xMax="560" yMax="655">
      <component glyphName="middotcat.cap" x="216" y="0" flags="0x4"/>
      <component glyphName="L" x="0" y="0" flags="0x204"/>
    </TTGlyph>
    <TTGlyph name="Lslash" xMin="37" yMin="0" xMax="487" yMax="655">
      <contour>
        <pt x="140" y="255" on="1"/>
        <pt x="37" y="196" on="1"/>
        <pt x="55" y="258" on="1"/>
        <pt x="158" y="317" on="1"/>
        <pt x="255" y="655" on="1"/>
        <pt x="316" y="655" on="1"/>
        <pt x="228" y="348" on="1"/>
        <pt x="478" y="491" on="1"/>
        <pt x="460" y="429" on="1"/>
        <pt x="210" y="286" on="1"/>
        <pt x="142" y="50" on="1"/>
        <pt x="487" y="50" on="1"/>
        <pt x="473" y="0" on="1"/>
        <pt x="67" y="0" on="1"/>
      </contour>
    </TTGlyph>
    <TTGlyph name="M" xMin="1" yMin="0" xMax="644" yMax="655">
      <contour>
        <pt x="559" y="655" on="1"/>
        <pt x="644" y="655" on="1"/>
        <pt x="481" y="0" on="1"/>
        <pt x="422" y="0" on="1"/>
        <pt x="574" y="593" on="1"/>
        <pt x="305" y="185" on="1"/>
        <pt x="284" y="185" on="1"/>
        <pt x="244" y="581" on="1"/>
        <pt x="60" y="0" on="1"/>
        <pt x="1" y="0" on="1"/>
        <pt x="214" y="655" on="1"/>
        <pt x="287" y="655" on="1"/>
        <pt x="323" y="299" on="1"/>
      </contour>
    </TTGlyph>
    <TTGlyph name="N" xMin="31" yMin="0" xMax="639" yMax="655">
      <contour>
        <pt x="261" y="616" on="1"/>
        <pt x="89" y="0" on="1"/>
        <pt x="31" y="0" on="1"/>
        <pt x="219" y="655" on="1"/>
        <pt x="309" y="655" on="1"/>
        <pt x="413" y="55" on="1"/>
        <pt x="581" y="655" on="1"/>
        <pt x="639" y="655" on="1"/>
        <pt x="451" y="0" on="1"/>
        <pt x="369" y="0" on="1"/>
      </contour>
    </TTGlyph>
    <TTGlyph name="Nacute" xMin="31" yMin="0" xMax="665" yMax="915">
      <component glyphName="N" x="0" y="0" flags="0x204"/>
      <component glyphName="uni0301.cap" x="311" y="-5" flags="0x4"/>
    </TTGlyph>
    <TTGlyph name="Ncaron" xMin="31" yMin="0" xMax="675" yMax="915">
      <component glyphName="N" x="0" y="0" flags="0x204"/>
      <component glyphName="uni030C.cap" x="311" y="-5" flags="0x4"/>
    </TTGlyph>
    <TTGlyph name="Ntilde" xMin="31" yMin="0" xMax="687" yMax="897">
      <component glyphName="N" x="0" y="0" flags="0x204"/>
      <component glyphName="uni0303.cap" x="313" y="0" flags="0x4"/>
    </TTGlyph>
    <TTGlyph name="O" xMin="61" yMin="-15" xMax="606" yMax="670">
      <contour>
        <pt x="84" y="366" on="1"/>
        <pt x="123" y="501" on="0"/>
        <pt x="300" y="670" on="0"/>
        <pt x="407" y="670" on="1"/>
        <pt x="502" y="670" on="0"/>
        <pt x="606" y="556" on="0"/>
        <pt x="606" y="449" on="1"/>
        <pt x="606" y="411" on="0"/>
        <pt x="594" y="327" on="0"/>
        <pt x="583" y="289" on="1"/>
        <pt x="544" y="154" on="0"/>
        <pt x="367" y="-15" on="0"/>
        <pt x="260" y="-15" on="1"/>
        <pt x="165" y="-15" on="0"/>
        <pt x="61" y="99" on="0"/>
        <pt x="61" y="206" on="1"/>
        <pt x="61" y="244" on="0"/>
        <pt x="73" y="328" on="0"/>
      </contour>
      <contour>
        <pt x="124" y="203" on="1"/>
        <pt x="124" y="122" on="0"/>
        <pt x="196" y="36" on="0"/>
        <pt x="263" y="36" on="1"/>
        <pt x="347" y="36" on="0"/>
        <pt x="486" y="176" on="0"/>
        <pt x="519" y="290" on="1"/>
        <pt x="531" y="330" on="0"/>
        <pt x="543" y="415" on="0"/>
        <pt x="543" y="452" on="1"/>
        <pt x="543" y="533" on="0"/>
        <pt x="471" y="619" on="0"/>
        <pt x="404" y="619" on="1"/>
        <pt x="320" y="619" on="0"/>
        <pt x="181" y="479" on="0"/>
        <pt x="148" y="365" on="1"/>
        <pt x="136" y="325" on="0"/>
        <pt x="124" y="240" on="0"/>
      </contour>
    </TTGlyph>
    <TTGlyph name="OE" xMin="29" yMin="0" xMax="715" yMax="655">
      <contour>
        <pt x="527" y="0" on="1"/>
        <pt x="226" y="0" on="1"/>
        <pt x="127" y="0" on="0"/>
        <pt x="29" y="89" on="0"/>
        <pt x="29" y="179" on="1"/>
        <pt x="29" y="276" on="0"/>
        <pt x="111" y="499" on="0"/>
        <pt x="169" y="557" on="1"/>
        <pt x="223" y="611" on="0"/>
        <pt x="343" y="655" on="0"/>
        <pt x="441" y="655" on="1"/>
        <pt x="715" y="655" on="1"/>
        <pt x="700" y="604" on="1"/>
        <pt x="472" y="604" on="1"/>
        <pt x="401" y="357" on="1"/>
        <pt x="601" y="357" on="1"/>
        <pt x="587" y="306" on="1"/>
        <pt x="387" y="306" on="1"/>
        <pt x="314" y="51" on="1"/>
        <pt x="542" y="51" on="1"/>
      </contour>
      <contour>
        <pt x="217" y="523" on="1"/>
        <pt x="163" y="469" on="0"/>
        <pt x="92" y="272" on="0"/>
        <pt x="92" y="185" on="1"/>
        <pt x="92" y="116" on="0"/>
        <pt x="158" y="51" on="0"/>
        <pt x="228" y="51" on="1"/>
        <pt x="252" y="51" on="1"/>
        <pt x="411" y="604" on="1"/>
        <pt x="352" y="603" on="0"/>
        <pt x="258" y="564" on="0"/>
      </contour>
    </TTGlyph>
    <TTGlyph name="Oacute" xMin="61" yMin="-15" xMax="648" yMax="925">
      <component glyphName="O" x="0" y="0" flags="0x204"/>
      <component glyphName="uni0301.cap" x="294" y="5" flags="0x4"/>
    </TTGlyph>
    <TTGlyph name="Obreve" xMin="61" yMin="-15" xMax="668" yMax="914">
      <component glyphName="O" x="0" y="0" flags="0x204"/>
      <component glyphName="uni0306.cap" x="294" y="5" flags="0x4"/>
    </TTGlyph>
    <TTGlyph name="Ocircumflex" xMin="61" yMin="-15" xMax="625" yMax="921">
      <component glyphName="O" x="0" y="0" flags="0x204"/>
      <component glyphName="uni0302.cap" x="292" y="0" flags="0x4"/>
    </TTGlyph>
    <TTGlyph name="Odieresis" xMin="61" yMin="-15" xMax="650" yMax="861">
      <component glyphName="O" x="0" y="0" flags="0x204"/>
      <component glyphName="uni0308.cap" x="294" y="5" flags="0x4"/>
    </TTGlyph>
    <TTGlyph name="Ograve" xMin="61" yMin="-15" xMax="606" yMax="918">
      <component glyphName="O" x="0" y="0" flags="0x204"/>
      <component glyphName="uni0300.cap" x="294" y="5" flags="0x4"/>
    </TTGlyph>
    <TTGlyph name="Ohorn" xMin="61" yMin="-15" xMax="746" yMax="768">
      <contour>
        <pt x="84" y="359" on="1"/>
        <pt x="122" y="490" on="0"/>
        <pt x="299" y="655" on="0"/>
        <pt x="407" y="655" on="1"/>
        <pt x="521" y="655" on="1"/>
        <pt x="600" y="655" on="0"/>
        <pt x="663" y="698" on="0"/>
        <pt x="686" y="768" on="1"/>
        <pt x="746" y="768" on="1"/>
        <pt x="722" y="679" on="0"/>
        <pt x="638" y="616" on="0"/>
        <pt x="532" y="616" on="1"/>
        <pt x="530" y="616" on="0"/>
        <pt x="524" y="616" on="0"/>
        <pt x="522" y="616" on="1"/>
        <pt x="520" y="614" on="1"/>
        <pt x="565" y="588" on="0"/>
        <pt x="606" y="505" on="0"/>
        <pt x="606" y="442" on="1"/>
        <pt x="606" y="404" on="0"/>
        <pt x="594" y="320" on="0"/>
        <pt x="583" y="282" on="1"/>
        <pt x="545" y="151" on="0"/>
        <pt x="367" y="-15" on="0"/>
        <pt x="260" y="-15" on="1"/>
        <pt x="165" y="-15" on="0"/>
        <pt x="61" y="96" on="0"/>
        <pt x="61" y="199" on="1"/>
        <pt x="61" y="237" on="0"/>
        <pt x="73" y="321" on="0"/>
      </contour>
      <contour>
        <pt x="124" y="196" on="1"/>
        <pt x="124" y="119" on="0"/>
        <pt x="196" y="36" on="0"/>
        <pt x="263" y="36" on="1"/>
        <pt x="348" y="36" on="0"/>
        <pt x="487" y="173" on="0"/>
        <pt x="519" y="283" on="1"/>
        <pt x="531" y="323" on="0"/>
        <pt x="543" y="408" on="0"/>
        <pt x="543" y="445" on="1"/>
        <pt x="543" y="522" on="0"/>
        <pt x="471" y="604" on="0"/>
        <pt x="404" y="604" on="1"/>
        <pt x="319" y="604" on="0"/>
        <pt x="180" y="468" on="0"/>
        <pt x="148" y="358" on="1"/>
        <pt x="136" y="318" on="0"/>
        <pt x="124" y="233" on="0"/>
      </contour>
    </TTGlyph>
    <TTGlyph name="Ohungarumlaut" xMin="61" yMin="-15" xMax="736" yMax="927">
      <component glyphName="O" x="0" y="0" flags="0x204"/>
      <component glyphName="uni030B.cap" x="294" y="5" flags="0x4"/>
    </TTGlyph>
    <TTGlyph name="Omacron" xMin="61" yMin="-15" xMax="627" yMax="826">
      <component glyphName="O" x="0" y="0" flags="0x204"/>
      <component glyphName="uni0304.cap" x="294" y="5" flags="0x4"/>
    </TTGlyph>
    <TTGlyph name="Oslash" xMin="-56" yMin="-71" xMax="726" yMax="726">
      <contour>
        <pt x="84" y="366" on="1"/>
        <pt x="123" y="501" on="0"/>
        <pt x="300" y="670" on="0"/>
        <pt x="407" y="670" on="1"/>
        <pt x="453" y="670" on="0"/>
        <pt x="529" y="638" on="0"/>
        <pt x="555" y="607" on="1"/>
        <pt x="656" y="726" on="1"/>
        <pt x="726" y="726" on="1"/>
        <pt x="579" y="572" on="1"/>
        <pt x="592" y="546" on="0"/>
        <pt x="606" y="484" on="0"/>
        <pt x="606" y="449" on="1"/>
        <pt x="606" y="411" on="0"/>
        <pt x="594" y="327" on="0"/>
        <pt x="583" y="289" on="1"/>
        <pt x="544" y="154" on="0"/>
        <pt x="367" y="-15" on="0"/>
        <pt x="260" y="-15" on="1"/>
        <pt x="215" y="-15" on="0"/>
        <pt x="140" y="17" on="0"/>
        <pt x="113" y="47" on="1"/>
        <pt x="14" y="-71" on="1"/>
        <pt x="-56" y="-71" on="1"/>
        <pt x="89" y="81" on="1"/>
        <pt x="75" y="106" on="0"/>
        <pt x="61" y="169" on="0"/>
        <pt x="61" y="206" on="1"/>
        <pt x="61" y="244" on="0"/>
        <pt x="73" y="328" on="0"/>
      </contour>
      <contour>
        <pt x="148" y="365" on="1"/>
        <pt x="136" y="325" on="0"/>
        <pt x="124" y="240" on="0"/>
        <pt x="124" y="203" on="1"/>
        <pt x="124" y="183" on="0"/>
        <pt x="129" y="145" on="0"/>
        <pt x="134" y="128" on="1"/>
        <pt x="515" y="565" on="1"/>
        <pt x="498" y="592" on="0"/>
        <pt x="442" y="619" on="0"/>
        <pt x="404" y="619" on="1"/>
        <pt x="320" y="619" on="0"/>
        <pt x="181" y="479" on="0"/>
      </contour>
      <contour>
        <pt x="263" y="36" on="1"/>
        <pt x="347" y="36" on="0"/>
        <pt x="486" y="176" on="0"/>
        <pt x="519" y="290" on="1"/>
        <pt x="531" y="330" on="0"/>
        <pt x="543" y="415" on="0"/>
        <pt x="543" y="452" on="1"/>
        <pt x="543" y="473" on="0"/>
        <pt x="538" y="509" on="0"/>
        <pt x="534" y="524" on="1"/>
        <pt x="153" y="89" on="1"/>
        <pt x="170" y="63" on="0"/>
        <pt x="226" y="36" on="0"/>
      </contour>
    </TTGlyph>
    <TTGlyph name="Otilde" xMin="61" yMin="-15" xMax="668" yMax="902">
      <component glyphName="O" x="0" y="0" flags="0x204"/>
      <component glyphName="uni0303.cap" x="294" y="5" flags="0x4"/>
    </TTGlyph>
    <TTGlyph name="P" xMin="37" yMin="0" xMax="630" yMax="655">
      <contour>
        <pt x="37" y="0" on="1"/>
        <pt x="225" y="655" on="1"/>
        <pt x="440" y="655" on="1"/>
        <pt x="529" y="655" on="0"/>
        <pt x="630" y="567" on="0"/>
        <pt x="630" y="490" on="1"/>
        <pt x="630" y="439" on="0"/>
        <pt x="593" y="348" on="0"/>
        <pt x="558" y="313" on="1"/>
        <pt x="517" y="272" on="0"/>
        <pt x="400" y="236" on="0"/>
        <pt x="306" y="236" on="1"/>
        <pt x="166" y="236" on="1"/>
        <pt x="98" y="0" on="1"/>
      </contour>
      <contour>
        <pt x="564" y="498" on="1"/>
        <pt x="564" y="550" on="0"/>
        <pt x="494" y="604" on="0"/>
        <pt x="427" y="604" on="1"/>
        <pt x="271" y="604" on="1"/>
        <pt x="180" y="286" on="1"/>
        <pt x="316" y="286" on="1"/>
        <pt x="434" y="286" on="0"/>
        <pt x="564" y="398" on="0"/>
      </contour>
    </TTGlyph>
    <TTGlyph name="Q" xMin="61" yMin="-137" xMax="606" yMax="670">
      <contour>
        <pt x="420" y="40" on="1"/>
        <pt x="497" y="-108" on="1"/>
        <pt x="448" y="-137" on="1"/>
        <pt x="375" y="12" on="1"/>
        <pt x="346" y="-2" on="0"/>
        <pt x="289" y="-15" on="0"/>
        <pt x="260" y="-15" on="1"/>
        <pt x="165" y="-15" on="0"/>
        <pt x="61" y="99" on="0"/>
        <pt x="61" y="206" on="1"/>
        <pt x="61" y="244" on="0"/>
        <pt x="73" y="328" on="0"/>
        <pt x="84" y="366" on="1"/>
        <pt x="123" y="501" on="0"/>
        <pt x="300" y="670" on="0"/>
        <pt x="407" y="670" on="1"/>
        <pt x="502" y="670" on="0"/>
        <pt x="606" y="556" on="0"/>
        <pt x="606" y="449" on="1"/>
        <pt x="606" y="411" on="0"/>
        <pt x="594" y="327" on="0"/>
        <pt x="583" y="289" on="1"/>
        <pt x="560" y="209" on="0"/>
        <pt x="475" y="80" on="0"/>
      </contour>
      <contour>
        <pt x="124" y="203" on="1"/>
        <pt x="124" y="122" on="0"/>
        <pt x="196" y="36" on="0"/>
        <pt x="263" y="36" on="1"/>
        <pt x="286" y="36" on="0"/>
        <pt x="331" y="47" on="0"/>
        <pt x="352" y="58" on="1"/>
        <pt x="278" y="206" on="1"/>
        <pt x="323" y="231" on="1"/>
        <pt x="396" y="87" on="1"/>
        <pt x="437" y="121" on="0"/>
        <pt x="501" y="227" on="0"/>
        <pt x="519" y="290" on="1"/>
        <pt x="531" y="330" on="0"/>
        <pt x="543" y="415" on="0"/>
        <pt x="543" y="452" on="1"/>
        <pt x="543" y="533" on="0"/>
        <pt x="471" y="619" on="0"/>
        <pt x="404" y="619" on="1"/>
        <pt x="320" y="619" on="0"/>
        <pt x="181" y="479" on="0"/>
        <pt x="148" y="365" on="1"/>
        <pt x="136" y="325" on="0"/>
        <pt x="124" y="240" on="0"/>
      </contour>
    </TTGlyph>
    <TTGlyph name="R" xMin="37" yMin="0" xMax="614" yMax="655">
      <contour>
        <pt x="399" y="183" on="1"/>
        <pt x="507" y="4" on="1"/>
        <pt x="506" y="0" on="1"/>
        <pt x="436" y="0" on="1"/>
        <pt x="335" y="174" on="1"/>
        <pt x="299" y="237" on="0"/>
        <pt x="241" y="275" on="0"/>
        <pt x="177" y="277" on="1"/>
        <pt x="98" y="0" on="1"/>
        <pt x="37" y="0" on="1"/>
        <pt x="225" y="655" on="1"/>
        <pt x="441" y="655" on="1"/>
        <pt x="521" y="655" on="0"/>
        <pt x="614" y="579" on="0"/>
        <pt x="614" y="515" on="1"/>
        <pt x="614" y="408" on="0"/>
        <pt x="464" y="297" on="0"/>
        <pt x="308" y="287" on="1"/>
        <pt x="308" y="282" on="1"/>
        <pt x="337" y="265" on="0"/>
        <pt x="375" y="223" on="0"/>
      </contour>
      <contour>
        <pt x="550" y="516" on="1"/>
        <pt x="550" y="559" on="0"/>
        <pt x="489" y="605" on="0"/>
        <pt x="432" y="605" on="1"/>
        <pt x="272" y="605" on="1"/>
        <pt x="191" y="326" on="1"/>
        <pt x="284" y="329" on="1"/>
        <pt x="418" y="334" on="0"/>
        <pt x="550" y="427" on="0"/>
      </contour>
    </TTGlyph>
    <TTGlyph name="Racute" xMin="37" yMin="0" xMax="673" yMax="920">
      <component glyphName="R" x="0" y="0" flags="0x204"/>
      <component glyphName="uni0301.cap" x="319" y="0" flags="0x4"/>
    </TTGlyph>
    <TTGlyph name="Rcaron" xMin="37" yMin="0" xMax="683" yMax="920">
      <component glyphName="R" x="0" y="0" flags="0x204"/>
      <component glyphName="uni030C.cap" x="319" y="0" flags="0x4"/>
    </TTGlyph>
    <TTGlyph name="S" xMin="33" yMin="-13" xMax="623" yMax="668">
      <contour>
        <pt x="284" y="38" on="1"/>
        <pt x="367" y="38" on="0"/>
        <pt x="461" y="111" on="0"/>
        <pt x="461" y="175" on="1"/>
        <pt x="461" y="212" on="0"/>
        <pt x="418" y="270" on="0"/>
        <pt x="374" y="295" on="1"/>
        <pt x="284" y="345" on="1"/>
        <pt x="229" y="376" on="0"/>
        <pt x="178" y="450" on="0"/>
        <pt x="178" y="499" on="1"/>
        <pt x="178" y="572" on="0"/>
        <pt x="302" y="668" on="0"/>
        <pt x="403" y="668" on="1"/>
        <pt x="459" y="668" on="0"/>
        <pt x="556" y="649" on="0"/>
        <pt x="623" y="625" on="1"/>
        <pt x="605" y="571" on="1"/>
        <pt x="549" y="595" on="0"/>
        <pt x="451" y="617" on="0"/>
        <pt x="403" y="617" on="1"/>
        <pt x="327" y="617" on="0"/>
        <pt x="241" y="556" on="0"/>
        <pt x="241" y="503" on="1"/>
        <pt x="241" y="466" on="0"/>
        <pt x="277" y="415" on="0"/>
        <pt x="318" y="392" on="1"/>
        <pt x="408" y="341" on="1"/>
        <pt x="471" y="305" on="0"/>
        <pt x="524" y="234" on="0"/>
        <pt x="524" y="177" on="1"/>
        <pt x="524" y="89" on="0"/>
        <pt x="395" y="-13" on="0"/>
        <pt x="284" y="-13" on="1"/>
        <pt x="220" y="-13" on="0"/>
        <pt x="104" y="20" on="0"/>
        <pt x="33" y="59" on="1"/>
        <pt x="60" y="110" on="1"/>
        <pt x="127" y="72" on="0"/>
        <pt x="234" y="38" on="0"/>
      </contour>
    </TTGlyph>
    <TTGlyph name="Sacute" xMin="33" yMin="-13" xMax="668" yMax="925">
      <component glyphName="S" x="0" y="0" flags="0x204"/>
      <component glyphName="uni0301.cap" x="314" y="5" flags="0x4"/>
    </TTGlyph>
    <TTGlyph name="Scaron" xMin="33" yMin="-13" xMax="678" yMax="925">
      <component glyphName="S" x="0" y="0" flags="0x204"/>
      <component glyphName="uni030C.cap" x="314" y="5" flags="0x4"/>
    </TTGlyph>
    <TTGlyph name="Scircumflex" xMin="33" yMin="-13" xMax="645" yMax="921">
      <component glyphName="S" x="0" y="0" flags="0x204"/>
      <component glyphName="uni0302.cap" x="312" y="0" flags="0x4"/>
    </TTGlyph>
    <TTGlyph name="T" xMin="160" yMin="0" xMax="677" yMax="655">
      <contour>
        <pt x="381" y="604" on="1"/>
        <pt x="160" y="604" on="1"/>
        <pt x="175" y="655" on="1"/>
        <pt x="677" y="655" on="1"/>
        <pt x="662" y="604" on="1"/>
        <pt x="442" y="604" on="1"/>
        <pt x="269" y="0" on="1"/>
        <pt x="208" y="0" on="1"/>
      </contour>
    </TTGlyph>
    <TTGlyph name="Tbar" xMin="145" yMin="0" xMax="677" yMax="655">
      <contour>
        <pt x="296" y="309" on="1"/>
        <pt x="145" y="309" on="1"/>
        <pt x="157" y="353" on="1"/>
        <pt x="309" y="353" on="1"/>
        <pt x="381" y="604" on="1"/>
        <pt x="160" y="604" on="1"/>
        <pt x="175" y="655" on="1"/>
        <pt x="677" y="655" on="1"/>
        <pt x="662" y="604" on="1"/>
        <pt x="442" y="604" on="1"/>
        <pt x="370" y="353" on="1"/>
        <pt x="522" y="353" on="1"/>
        <pt x="510" y="309" on="1"/>
        <pt x="357" y="309" on="1"/>
        <pt x="269" y="0" on="1"/>
        <pt x="208" y="0" on="1"/>
      </contour>
    </TTGlyph>
    <TTGlyph name="Tcaron" xMin="160" yMin="0" xMax="677" yMax="920">
      <component glyphName="T" x="0" y="0" flags="0x204"/>
      <component glyphName="uni030C.cap" x="297" y="0" flags="0x4"/>
    </TTGlyph>
    <TTGlyph name="Thorn" xMin="37" yMin="0" xMax="602" yMax="655">
      <contour>
        <pt x="37" y="0" on="1"/>
        <pt x="225" y="655" on="1"/>
        <pt x="286" y="655" on="1"/>
        <pt x="241" y="497" on="1"/>
        <pt x="421" y="497" on="1"/>
        <pt x="507" y="497" on="0"/>
        <pt x="602" y="426" on="0"/>
        <pt x="602" y="362" on="1"/>
        <pt x="602" y="322" on="0"/>
        <pt x="575" y="252" on="0"/>
        <pt x="549" y="226" on="1"/>
        <pt x="513" y="190" on="0"/>
        <pt x="408" y="158" on="0"/>
        <pt x="325" y="158" on="1"/>
        <pt x="143" y="158" on="1"/>
        <pt x="98" y="0" on="1"/>
      </contour>
      <contour>
        <pt x="538" y="359" on="1"/>
        <pt x="538" y="402" on="0"/>
        <pt x="478" y="446" on="0"/>
        <pt x="418" y="446" on="1"/>
        <pt x="226" y="446" on="1"/>
        <pt x="158" y="208" on="1"/>
        <pt x="336" y="208" on="1"/>
        <pt x="430" y="208" on="0"/>
        <pt x="538" y="291" on="0"/>
      </contour>
    </TTGlyph>
    <TTGlyph name="U" xMin="74" yMin="-15" xMax="654" yMax="655">
      <contour>
        <pt x="275" y="36" on="1"/>
        <pt x="347" y="36" on="0"/>
        <pt x="440" y="122" on="0"/>
        <pt x="466" y="211" on="1"/>
        <pt x="594" y="655" on="1"/>
        <pt x="654" y="655" on="1"/>
        <pt x="524" y="205" on="1"/>
        <pt x="491" y="90" on="0"/>
        <pt x="368" y="-15" on="0"/>
        <pt x="267" y="-15" on="1"/>
        <pt x="174" y="-15" on="0"/>
        <pt x="74" y="76" on="0"/>
        <pt x="74" y="162" on="1"/>
        <pt x="74" y="185" on="0"/>
        <pt x="84" y="240" on="0"/>
        <pt x="96" y="281" on="1"/>
        <pt x="204" y="655" on="1"/>
        <pt x="265" y="655" on="1"/>
        <pt x="155" y="273" on="1"/>
        <pt x="144" y="233" on="0"/>
        <pt x="133" y="178" on="0"/>
        <pt x="133" y="159" on="1"/>
        <pt x="133" y="100" on="0"/>
        <pt x="206" y="36" on="0"/>
      </contour>
    </TTGlyph>
    <TTGlyph name="Uacute" xMin="74" yMin="-15" xMax="659" yMax="915">
      <component glyphName="U" x="0" y="0" flags="0x204"/>
      <component glyphName="uni0301.cap" x="305" y="-5" flags="0x4"/>
    </TTGlyph>
    <TTGlyph name="Ubreve" xMin="74" yMin="-15" xMax="679" yMax="904">
      <component glyphName="U" x="0" y="0" flags="0x204"/>
      <component glyphName="uni0306.cap" x="305" y="-5" flags="0x4"/>
    </TTGlyph>
    <TTGlyph name="Ucircumflex" xMin="74" yMin="-15" xMax="654" yMax="921">
      <component glyphName="U" x="0" y="0" flags="0x204"/>
      <component glyphName="uni0302.cap" x="307" y="0" flags="0x4"/>
    </TTGlyph>
    <TTGlyph name="Udieresis" xMin="74" yMin="-15" xMax="663" yMax="856">
      <component glyphName="U" x="0" y="0" flags="0x204"/>
      <component glyphName="uni0308.cap" x="307" y="0" flags="0x4"/>
    </TTGlyph>
    <TTGlyph name="Ugrave" xMin="74" yMin="-15" xMax="654" yMax="908">
      <component glyphName="U" x="0" y="0" flags="0x204"/>
      <component glyphName="uni0300.cap" x="305" y="-5" flags="0x4"/>
    </TTGlyph>
    <TTGlyph name="Uhorn" xMin="74" yMin="-15" xMax="836" yMax="768">
      <contour>
        <pt x="275" y="36" on="1"/>
        <pt x="347" y="36" on="0"/>
        <pt x="440" y="122" on="0"/>
        <pt x="466" y="211" on="1"/>
        <pt x="594" y="655" on="1"/>
        <pt x="631" y="655" on="1"/>
        <pt x="700" y="655" on="0"/>
        <pt x="752" y="695" on="0"/>
        <pt x="776" y="768" on="1"/>
        <pt x="836" y="768" on="1"/>
        <pt x="811" y="679" on="0"/>
        <pt x="730" y="610" on="0"/>
        <pt x="641" y="610" on="1"/>
        <pt x="524" y="205" on="1"/>
        <pt x="491" y="90" on="0"/>
        <pt x="368" y="-15" on="0"/>
        <pt x="267" y="-15" on="1"/>
        <pt x="174" y="-15" on="0"/>
        <pt x="74" y="76" on="0"/>
        <pt x="74" y="162" on="1"/>
        <pt x="74" y="185" on="0"/>
        <pt x="84" y="240" on="0"/>
        <pt x="96" y="281" on="1"/>
        <pt x="204" y="655" on="1"/>
        <pt x="265" y="655" on="1"/>
        <pt x="155" y="273" on="1"/>
        <pt x="144" y="233" on="0"/>
        <pt x="133" y="178" on="0"/>
        <pt x="133" y="159" on="1"/>
        <pt x="133" y="100" on="0"/>
        <pt x="206" y="36" on="0"/>
      </contour>
    </TTGlyph>
    <TTGlyph name="Uhungarumlaut" xMin="74" yMin="-15" xMax="749" yMax="922">
      <component glyphName="U" x="0" y="0" flags="0x204"/>
      <component glyphName="uni030B.cap" x="307" y="0" flags="0x4"/>
    </TTGlyph>
    <TTGlyph name="Umacron" xMin="74" yMin="-15" xMax="654" yMax="821">
      <component glyphName="U" x="0" y="0" flags="0x204"/>
      <component glyphName="uni0304.cap" x="307" y="0" flags="0x4"/>
    </TTGlyph>
    <TTGlyph name="Uogonek" xMin="74" yMin="-240" xMax="654" yMax="655">
      <contour>
        <pt x="108" y="-175" on="1"/>
        <pt x="108" y="-143" on="0"/>
        <pt x="161" y="-74" on="0"/>
        <pt x="228" y="-13" on="1"/>
        <pt x="153" y="-3" on="0"/>
        <pt x="74" y="86" on="0"/>
        <pt x="74" y="162" on="1"/>
        <pt x="74" y="185" on="0"/>
        <pt x="84" y="240" on="0"/>
        <pt x="96" y="281" on="1"/>
        <pt x="204" y="655" on="1"/>
        <pt x="265" y="655" on="1"/>
        <pt x="155" y="273" on="1"/>
        <pt x="144" y="233" on="0"/>
        <pt x="133" y="178" on="0"/>
        <pt x="133" y="159" on="1"/>
        <pt x="133" y="100" on="0"/>
        <pt x="206" y="36" on="0"/>
        <pt x="275" y="36" on="1"/>
        <pt x="347" y="36" on="0"/>
        <pt x="440" y="122" on="0"/>
        <pt x="466" y="211" on="1"/>
        <pt x="594" y="655" on="1"/>
        <pt x="654" y="655" on="1"/>
        <pt x="524" y="205" on="1"/>
        <pt x="491" y="90" on="0"/>
        <pt x="369" y="-15" on="0"/>
        <pt x="268" y="-15" on="1"/>
        <pt x="218" y="-68" on="0"/>
        <pt x="170" y="-137" on="0"/>
        <pt x="170" y="-163" on="1"/>
        <pt x="170" y="-178" on="0"/>
        <pt x="195" y="-191" on="0"/>
        <pt x="226" y="-193" on="1"/>
        <pt x="291" y="-197" on="1"/>
        <pt x="275" y="-240" on="1"/>
        <pt x="200" y="-236" on="1"/>
        <pt x="150" y="-233" on="0"/>
        <pt x="108" y="-206" on="0"/>
      </contour>
    </TTGlyph>
    <TTGlyph name="Uring" xMin="74" yMin="-15" xMax="654" yMax="951">
      <component glyphName="U" x="0" y="0" flags="0x204"/>
      <component glyphName="uni030A.cap" x="305" y="-5" flags="0x4"/>
    </TTGlyph>
    <TTGlyph name="Utilde" xMin="74" yMin="-15" xMax="681" yMax="897">
      <component glyphName="U" x="0" y="0" flags="0x204"/>
      <component glyphName="uni0303.cap" x="307" y="0" flags="0x4"/>
    </TTGlyph>
    <TTGlyph name="V" xMin="168" yMin="0" xMax="690" yMax="655">
      <contour>
        <pt x="205" y="0" on="1"/>
        <pt x="168" y="655" on="1"/>
        <pt x="226" y="655" on="1"/>
        <pt x="258" y="68" on="1"/>
        <pt x="624" y="655" on="1"/>
        <pt x="690" y="655" on="1"/>
        <pt x="277" y="0" on="1"/>
      </contour>
    </TTGlyph>
    <TTGlyph name="W" xMin="77" yMin="0" xMax="685" yMax="655">
      <contour>
        <pt x="685" y="655" on="1"/>
        <pt x="405" y="0" on="1"/>
        <pt x="330" y="0" on="1"/>
        <pt x="348" y="377" on="1"/>
        <pt x="150" y="0" on="1"/>
        <pt x="77" y="0" on="1"/>
        <pt x="173" y="655" on="1"/>
        <pt x="232" y="655" on="1"/>
        <pt x="136" y="68" on="1"/>
        <pt x="379" y="531" on="1"/>
        <pt x="403" y="531" on="1"/>
        <pt x="381" y="63" on="1"/>
        <pt x="624" y="655" on="1"/>
      </contour>
    </TTGlyph>
    <TTGlyph name="Wacute" xMin="77" yMin="0" xMax="685" yMax="910">
      <component glyphName="W" x="0" y="0" flags="0x204"/>
      <component glyphName="uni0301.cap" x="303" y="-10" flags="0x4"/>
    </TTGlyph>
    <TTGlyph name="Wcircumflex" xMin="77" yMin="0" xMax="685" yMax="921">
      <component glyphName="W" x="0" y="0" flags="0x204"/>
      <component glyphName="uni0302.cap" x="307" y="0" flags="0x4"/>
    </TTGlyph>
    <TTGlyph name="Wdieresis" xMin="77" yMin="0" xMax="685" yMax="856">
      <component glyphName="W" x="0" y="0" flags="0x204"/>
      <component glyphName="uni0308.cap" x="307" y="0" flags="0x4"/>
    </TTGlyph>
    <TTGlyph name="Wgrave" xMin="77" yMin="0" xMax="685" yMax="903">
      <component glyphName="W" x="0" y="0" flags="0x204"/>
      <component glyphName="uni0300.cap" x="303" y="-10" flags="0x4"/>
    </TTGlyph>
    <TTGlyph name="X" xMin="-8" yMin="0" xMax="659" yMax="655">
      <contour>
        <pt x="66" y="0" on="1"/>
        <pt x="-8" y="0" on="1"/>
        <pt x="304" y="343" on="1"/>
        <pt x="192" y="655" on="1"/>
        <pt x="260" y="655" on="1"/>
        <pt x="347" y="386" on="1"/>
        <pt x="581" y="655" on="1"/>
        <pt x="659" y="655" on="1"/>
        <pt x="368" y="333" on="1"/>
        <pt x="492" y="0" on="1"/>
        <pt x="422" y="0" on="1"/>
        <pt x="324" y="290" on="1"/>
      </contour>
    </TTGlyph>
    <TTGlyph name="Y" xMin="175" yMin="0" xMax="683" yMax="655">
      <contour>
        <pt x="607" y="655" on="1"/>
        <pt x="683" y="655" on="1"/>
        <pt x="348" y="267" on="1"/>
        <pt x="272" y="0" on="1"/>
        <pt x="211" y="0" on="1"/>
        <pt x="294" y="288" on="1"/>
        <pt x="175" y="655" on="1"/>
        <pt x="241" y="655" on="1"/>
        <pt x="339" y="337" on="1"/>
      </contour>
    </TTGlyph>
    <TTGlyph name="Yacute" xMin="175" yMin="0" xMax="683" yMax="915">
      <component glyphName="Y" x="0" y="0" flags="0x204"/>
      <component glyphName="uni0301.cap" x="290" y="-5" flags="0x4"/>
    </TTGlyph>
    <TTGlyph name="Ycircumflex" xMin="175" yMin="0" xMax="683" yMax="921">
      <component glyphName="Y" x="0" y="0" flags="0x204"/>
      <component glyphName="uni0302.cap" x="292" y="0" flags="0x4"/>
    </TTGlyph>
    <TTGlyph name="Ydieresis" xMin="175" yMin="0" xMax="683" yMax="856">
      <component glyphName="Y" x="0" y="0" flags="0x204"/>
      <component glyphName="uni0308.cap" x="292" y="0" flags="0x4"/>
    </TTGlyph>
    <TTGlyph name="Ygrave" xMin="175" yMin="0" xMax="683" yMax="908">
      <component glyphName="Y" x="0" y="0" flags="0x204"/>
      <component glyphName="uni0300.cap" x="290" y="-5" flags="0x4"/>
    </TTGlyph>
    <TTGlyph name="Z" xMin="16" yMin="0" xMax="637" yMax="655">
      <contour>
        <pt x="480" y="0" on="1"/>
        <pt x="16" y="0" on="1"/>
        <pt x="16" y="29" on="1"/>
        <pt x="540" y="601" on="1"/>
        <pt x="540" y="604" on="1"/>
        <pt x="177" y="604" on="1"/>
        <pt x="192" y="655" on="1"/>
        <pt x="637" y="655" on="1"/>
        <pt x="637" y="626" on="1"/>
        <pt x="112" y="53" on="1"/>
        <pt x="112" y="50" on="1"/>
        <pt x="494" y="50" on="1"/>
      </contour>
    </TTGlyph>
    <TTGlyph name="Zacute" xMin="16" yMin="0" xMax="660" yMax="920">
      <component glyphName="Z" x="0" y="0" flags="0x204"/>
      <component glyphName="uni0301.cap" x="306" y="0" flags="0x4"/>
    </TTGlyph>
    <TTGlyph name="Zcaron" xMin="16" yMin="0" xMax="670" yMax="920">
      <component glyphName="Z" x="0" y="0" flags="0x204"/>
      <component glyphName="uni030C.cap" x="306" y="0" flags="0x4"/>
    </TTGlyph>
    <TTGlyph name="Zdotaccent" xMin="16" yMin="0" xMax="637" yMax="860">
      <component glyphName="Z" x="0" y="0" flags="0x204"/>
      <component glyphName="uni0307.cap" x="306" y="0" flags="0x4"/>
    </TTGlyph>
    <TTGlyph name="a" xMin="39" yMin="-5" xMax="523" yMax="465">
      <contour>
        <pt x="514" y="319" on="1"/>
        <pt x="437" y="102" on="1"/>
        <pt x="434" y="93" on="0"/>
        <pt x="431" y="79" on="0"/>
        <pt x="431" y="74" on="1"/>
        <pt x="431" y="64" on="0"/>
        <pt x="446" y="54" on="0"/>
        <pt x="469" y="50" on="1"/>
        <pt x="513" y="44" on="1"/>
        <pt x="499" y="-3" on="1"/>
        <pt x="450" y="2" on="1"/>
        <pt x="413" y="5" on="0"/>
        <pt x="375" y="38" on="0"/>
        <pt x="370" y="70" on="1"/>
        <pt x="364" y="70" on="1"/>
        <pt x="295" y="29" on="0"/>
        <pt x="194" y="-5" on="0"/>
        <pt x="141" y="-5" on="1"/>
        <pt x="90" y="-5" on="0"/>
        <pt x="39" y="40" on="0"/>
        <pt x="39" y="84" on="1"/>
        <pt x="39" y="118" on="0"/>
        <pt x="66" y="182" on="0"/>
        <pt x="90" y="206" on="1"/>
        <pt x="117" y="233" on="0"/>
        <pt x="203" y="258" on="0"/>
        <pt x="290" y="266" on="1"/>
        <pt x="442" y="280" on="1"/>
        <pt x="457" y="323" on="0"/>
        <pt x="462" y="344" on="0"/>
        <pt x="462" y="356" on="1"/>
        <pt x="462" y="387" on="0"/>
        <pt x="407" y="415" on="0"/>
        <pt x="347" y="415" on="1"/>
        <pt x="318" y="415" on="0"/>
        <pt x="218" y="404" on="0"/>
        <pt x="161" y="395" on="1"/>
        <pt x="176" y="448" on="1"/>
        <pt x="230" y="457" on="0"/>
        <pt x="316" y="465" on="0"/>
        <pt x="363" y="465" on="1"/>
        <pt x="444" y="465" on="0"/>
        <pt x="523" y="418" on="0"/>
        <pt x="523" y="369" on="1"/>
        <pt x="523" y="356" on="0"/>
        <pt x="519" y="331" on="0"/>
      </contour>
      <contour>
        <pt x="102" y="94" on="1"/>
        <pt x="102" y="67" on="0"/>
        <pt x="131" y="45" on="0"/>
        <pt x="164" y="45" on="1"/>
        <pt x="212" y="45" on="0"/>
        <pt x="322" y="87" on="0"/>
        <pt x="390" y="132" on="1"/>
        <pt x="425" y="234" on="1"/>
        <pt x="300" y="222" on="1"/>
        <pt x="230" y="215" on="0"/>
        <pt x="156" y="194" on="0"/>
        <pt x="136" y="174" on="1"/>
        <pt x="119" y="157" on="0"/>
        <pt x="102" y="117" on="0"/>
      </contour>
    </TTGlyph>
    <TTGlyph name="aacute" xMin="39" yMin="-5" xMax="589" yMax="746">
      <component glyphName="a" x="0" y="0" flags="0x204"/>
      <component glyphName="uni0301" x="299" y="5" flags="0x4"/>
    </TTGlyph>
    <TTGlyph name="abreve" xMin="39" yMin="-5" xMax="623" yMax="735">
      <component glyphName="a" x="0" y="0" flags="0x204"/>
      <component glyphName="uni0306" x="299" y="5" flags="0x4"/>
    </TTGlyph>
    <TTGlyph name="acircumflex" xMin="39" yMin="-5" xMax="574" yMax="741">
      <component glyphName="a" x="0" y="0" flags="0x204"/>
      <component glyphName="uni0302" x="298" y="0" flags="0x4"/>
    </TTGlyph>
    <TTGlyph name="acute" xMin="317" yMin="536" xMax="597" yMax="741">
      <component glyphName="uni0301" x="307" y="0" flags="0x4"/>
    </TTGlyph>
    <TTGlyph name="adieresis" xMin="39" yMin="-5" xMax="579" yMax="660">
      <component glyphName="a" x="0" y="0" flags="0x204"/>
      <component glyphName="uni0308" x="299" y="5" flags="0x4"/>
    </TTGlyph>
    <TTGlyph name="ae" xMin="-1" yMin="-5" xMax="603" yMax="470">
      <contour>
        <pt x="328" y="217" on="1"/>
        <pt x="323" y="197" on="0"/>
        <pt x="318" y="162" on="0"/>
        <pt x="318" y="148" on="1"/>
        <pt x="318" y="88" on="0"/>
        <pt x="382" y="44" on="0"/>
        <pt x="468" y="44" on="1"/>
        <pt x="452" y="-5" on="1"/>
        <pt x="373" y="-5" on="0"/>
        <pt x="289" y="25" on="0"/>
        <pt x="272" y="59" on="1"/>
        <pt x="263" y="59" on="1"/>
        <pt x="207" y="23" on="0"/>
        <pt x="140" y="-5" on="0"/>
        <pt x="101" y="-5" on="1"/>
        <pt x="50" y="-5" on="0"/>
        <pt x="-1" y="40" on="0"/>
        <pt x="-1" y="84" on="1"/>
        <pt x="-1" y="117" on="0"/>
        <pt x="22" y="178" on="0"/>
        <pt x="43" y="199" on="1"/>
        <pt x="69" y="225" on="0"/>
        <pt x="171" y="249" on="0"/>
        <pt x="279" y="257" on="1"/>
        <pt x="295" y="315" on="0"/>
        <pt x="308" y="365" on="0"/>
        <pt x="308" y="376" on="1"/>
        <pt x="308" y="399" on="0"/>
        <pt x="285" y="420" on="0"/>
        <pt x="259" y="420" on="1"/>
        <pt x="228" y="420" on="0"/>
        <pt x="166" y="413" on="0"/>
        <pt x="119" y="405" on="1"/>
        <pt x="134" y="456" on="1"/>
        <pt x="167" y="463" on="0"/>
        <pt x="228" y="470" on="0"/>
        <pt x="258" y="470" on="1"/>
        <pt x="311" y="470" on="0"/>
        <pt x="357" y="434" on="0"/>
        <pt x="360" y="388" on="1"/>
        <pt x="390" y="427" on="0"/>
        <pt x="463" y="470" on="0"/>
        <pt x="500" y="470" on="1"/>
        <pt x="548" y="470" on="0"/>
        <pt x="603" y="419" on="0"/>
        <pt x="603" y="374" on="1"/>
        <pt x="603" y="302" on="0"/>
        <pt x="472" y="231" on="0"/>
      </contour>
      <contour>
        <pt x="541" y="373" on="1"/>
        <pt x="541" y="396" on="0"/>
        <pt x="515" y="420" on="0"/>
        <pt x="491" y="420" on="1"/>
        <pt x="452" y="420" on="0"/>
        <pt x="370" y="330" on="0"/>
        <pt x="343" y="262" on="1"/>
        <pt x="442" y="273" on="0"/>
        <pt x="541" y="328" on="0"/>
      </contour>
      <contour>
        <pt x="62" y="94" on="1"/>
        <pt x="62" y="67" on="0"/>
        <pt x="91" y="45" on="0"/>
        <pt x="124" y="45" on="1"/>
        <pt x="149" y="45" on="0"/>
        <pt x="212" y="72" on="0"/>
        <pt x="259" y="103" on="1"/>
        <pt x="258" y="113" on="0"/>
        <pt x="256" y="135" on="0"/>
        <pt x="256" y="147" on="1"/>
        <pt x="256" y="162" on="0"/>
        <pt x="261" y="194" on="0"/>
        <pt x="267" y="212" on="1"/>
        <pt x="185" y="204" on="0"/>
        <pt x="108" y="186" on="0"/>
        <pt x="89" y="167" on="1"/>
        <pt x="76" y="154" on="0"/>
        <pt x="62" y="116" on="0"/>
      </contour>
    </TTGlyph>
    <TTGlyph name="agrave" xMin="39" yMin="-5" xMax="523" yMax="739">
      <component glyphName="a" x="0" y="0" flags="0x204"/>
      <component glyphName="uni0300" x="299" y="5" flags="0x4"/>
    </TTGlyph>
    <TTGlyph name="amacron" xMin="39" yMin="-5" xMax="577" yMax="631">
      <component glyphName="a" x="0" y="0" flags="0x204"/>
      <component glyphName="uni0304" x="299" y="5" flags="0x4"/>
    </TTGlyph>
    <TTGlyph name="ampersand" xMin="31" yMin="-5" xMax="584" yMax="669">
      <contour>
        <pt x="308" y="324" on="1"/>
        <pt x="229" y="300" on="0"/>
        <pt x="153" y="266" on="0"/>
        <pt x="131" y="244" on="1"/>
        <pt x="112" y="225" on="0"/>
        <pt x="94" y="171" on="0"/>
        <pt x="94" y="130" on="1"/>
        <pt x="94" y="89" on="0"/>
        <pt x="137" y="47" on="0"/>
        <pt x="177" y="47" on="1"/>
        <pt x="230" y="47" on="0"/>
        <pt x="305" y="107" on="0"/>
        <pt x="364" y="194" on="1"/>
      </contour>
      <contour>
        <pt x="31" y="124" on="1"/>
        <pt x="31" y="174" on="0"/>
        <pt x="58" y="249" on="0"/>
        <pt x="87" y="278" on="1"/>
        <pt x="113" y="304" on="0"/>
        <pt x="203" y="344" on="0"/>
        <pt x="289" y="368" on="1"/>
        <pt x="269" y="408" on="0"/>
        <pt x="243" y="487" on="0"/>
        <pt x="243" y="517" on="1"/>
        <pt x="243" y="583" on="0"/>
        <pt x="344" y="669" on="0"/>
        <pt x="423" y="669" on="1"/>
        <pt x="453" y="669" on="0"/>
        <pt x="527" y="659" on="0"/>
        <pt x="581" y="647" on="1"/>
        <pt x="566" y="596" on="1"/>
        <pt x="517" y="608" on="0"/>
        <pt x="448" y="618" on="0"/>
        <pt x="418" y="618" on="1"/>
        <pt x="369" y="618" on="0"/>
        <pt x="305" y="560" on="0"/>
        <pt x="305" y="515" on="1"/>
        <pt x="305" y="496" on="0"/>
        <pt x="316" y="455" on="0"/>
        <pt x="327" y="429" on="1"/>
        <pt x="408" y="243" on="1"/>
        <pt x="532" y="439" on="1"/>
        <pt x="584" y="417" on="1"/>
        <pt x="435" y="191" on="1"/>
        <pt x="520" y="0" on="1"/>
        <pt x="451" y="0" on="1"/>
        <pt x="392" y="139" on="1"/>
        <pt x="330" y="54" on="0"/>
        <pt x="237" y="-5" on="0"/>
        <pt x="168" y="-5" on="1"/>
        <pt x="102" y="-5" on="0"/>
        <pt x="31" y="61" on="0"/>
      </contour>
    </TTGlyph>
    <TTGlyph name="aogonek" xMin="39" yMin="-235" xMax="523" yMax="465">
      <contour>
        <pt x="256" y="-170" on="1"/>
        <pt x="256" y="-135" on="0"/>
        <pt x="319" y="-57" on="0"/>
        <pt x="402" y="16" on="1"/>
        <pt x="389" y="24" on="0"/>
        <pt x="373" y="50" on="0"/>
        <pt x="370" y="70" on="1"/>
        <pt x="364" y="70" on="1"/>
        <pt x="295" y="29" on="0"/>
        <pt x="194" y="-5" on="0"/>
        <pt x="141" y="-5" on="1"/>
        <pt x="90" y="-5" on="0"/>
        <pt x="39" y="40" on="0"/>
        <pt x="39" y="84" on="1"/>
        <pt x="39" y="118" on="0"/>
        <pt x="66" y="182" on="0"/>
        <pt x="90" y="206" on="1"/>
        <pt x="117" y="233" on="0"/>
        <pt x="203" y="258" on="0"/>
        <pt x="290" y="266" on="1"/>
        <pt x="442" y="280" on="1"/>
        <pt x="456" y="322" on="1"/>
        <pt x="459" y="332" on="0"/>
        <pt x="462" y="349" on="0"/>
        <pt x="462" y="356" on="1"/>
        <pt x="462" y="387" on="0"/>
        <pt x="407" y="415" on="0"/>
        <pt x="347" y="415" on="1"/>
        <pt x="318" y="415" on="0"/>
        <pt x="218" y="404" on="0"/>
        <pt x="161" y="395" on="1"/>
        <pt x="176" y="448" on="1"/>
        <pt x="230" y="457" on="0"/>
        <pt x="316" y="465" on="0"/>
        <pt x="363" y="465" on="1"/>
        <pt x="444" y="465" on="0"/>
        <pt x="523" y="418" on="0"/>
        <pt x="523" y="369" on="1"/>
        <pt x="523" y="356" on="0"/>
        <pt x="519" y="331" on="0"/>
        <pt x="514" y="319" on="1"/>
        <pt x="437" y="102" on="1"/>
        <pt x="434" y="93" on="0"/>
        <pt x="431" y="79" on="0"/>
        <pt x="431" y="74" on="1"/>
        <pt x="431" y="64" on="0"/>
        <pt x="446" y="54" on="0"/>
        <pt x="469" y="50" on="1"/>
        <pt x="513" y="44" on="1"/>
        <pt x="499" y="-3" on="1"/>
        <pt x="477" y="-1" on="0"/>
        <pt x="441" y="3" on="0"/>
        <pt x="431" y="5" on="1"/>
        <pt x="373" y="-54" on="0"/>
        <pt x="318" y="-130" on="0"/>
        <pt x="318" y="-158" on="1"/>
        <pt x="318" y="-173" on="0"/>
        <pt x="343" y="-186" on="0"/>
        <pt x="374" y="-188" on="1"/>
        <pt x="439" y="-192" on="1"/>
        <pt x="423" y="-235" on="1"/>
        <pt x="348" y="-231" on="1"/>
        <pt x="298" y="-228" on="0"/>
        <pt x="256" y="-201" on="0"/>
      </contour>
      <contour>
        <pt x="102" y="94" on="1"/>
        <pt x="102" y="67" on="0"/>
        <pt x="131" y="45" on="0"/>
        <pt x="164" y="45" on="1"/>
        <pt x="212" y="45" on="0"/>
        <pt x="322" y="87" on="0"/>
        <pt x="390" y="132" on="1"/>
        <pt x="425" y="234" on="1"/>
        <pt x="300" y="222" on="1"/>
        <pt x="230" y="215" on="0"/>
        <pt x="156" y="194" on="0"/>
        <pt x="136" y="174" on="1"/>
        <pt x="119" y="157" on="0"/>
        <pt x="102" y="117" on="0"/>
      </contour>
    </TTGlyph>
    <TTGlyph name="approxequal" xMin="28" yMin="87" xMax="613" yMax="571">
      <contour>
        <pt x="227" y="558" on="1"/>
        <pt x="248" y="558" on="0"/>
        <pt x="298" y="529" on="0"/>
        <pt x="345" y="491" on="1"/>
        <pt x="396" y="450" on="0"/>
        <pt x="433" y="424" on="0"/>
        <pt x="446" y="424" on="1"/>
        <pt x="463" y="424" on="0"/>
        <pt x="501" y="469" on="0"/>
        <pt x="565" y="571" on="1"/>
        <pt x="613" y="542" on="1"/>
        <pt x="535" y="414" on="0"/>
        <pt x="476" y="363" on="0"/>
        <pt x="446" y="363" on="1"/>
        <pt x="425" y="363" on="0"/>
        <pt x="375" y="392" on="0"/>
        <pt x="328" y="430" on="1"/>
        <pt x="277" y="471" on="0"/>
        <pt x="240" y="497" on="0"/>
        <pt x="227" y="497" on="1"/>
        <pt x="210" y="497" on="0"/>
        <pt x="172" y="452" on="0"/>
        <pt x="108" y="350" on="1"/>
        <pt x="60" y="379" on="1"/>
        <pt x="139" y="504" on="0"/>
        <pt x="190" y="558" on="0"/>
      </contour>
      <contour>
        <pt x="195" y="295" on="1"/>
        <pt x="216" y="295" on="0"/>
        <pt x="266" y="266" on="0"/>
        <pt x="313" y="228" on="1"/>
        <pt x="364" y="187" on="0"/>
        <pt x="401" y="161" on="0"/>
        <pt x="414" y="161" on="1"/>
        <pt x="431" y="161" on="0"/>
        <pt x="469" y="206" on="0"/>
        <pt x="533" y="308" on="1"/>
        <pt x="581" y="279" on="1"/>
        <pt x="503" y="151" on="0"/>
        <pt x="444" y="100" on="0"/>
        <pt x="414" y="100" on="1"/>
        <pt x="393" y="100" on="0"/>
        <pt x="343" y="129" on="0"/>
        <pt x="296" y="167" on="1"/>
        <pt x="245" y="208" on="0"/>
        <pt x="208" y="234" on="0"/>
        <pt x="195" y="234" on="1"/>
        <pt x="178" y="234" on="0"/>
        <pt x="140" y="189" on="0"/>
        <pt x="76" y="87" on="1"/>
        <pt x="28" y="116" on="1"/>
        <pt x="107" y="241" on="0"/>
        <pt x="158" y="295" on="0"/>
      </contour>
    </TTGlyph>
    <TTGlyph name="aring" xMin="39" yMin="-5" xMax="564" yMax="777">
      <component glyphName="a" x="0" y="0" flags="0x204"/>
      <component glyphName="uni030A" x="299" y="5" flags="0x4"/>
    </TTGlyph>
    <TTGlyph name="asciicircum" xMin="70" yMin="271" xMax="566" yMax="655">
      <contour>
        <pt x="142" y="271" on="1"/>
        <pt x="70" y="271" on="1"/>
        <pt x="399" y="655" on="1"/>
        <pt x="459" y="655" on="1"/>
        <pt x="566" y="271" on="1"/>
        <pt x="501" y="271" on="1"/>
        <pt x="416" y="599" on="1"/>
      </contour>
    </TTGlyph>
    <TTGlyph name="asciitilde" xMin="55" yMin="224" xMax="608" yMax="445">
      <contour>
        <pt x="222" y="432" on="1"/>
        <pt x="243" y="432" on="0"/>
        <pt x="293" y="403" on="0"/>
        <pt x="340" y="365" on="1"/>
        <pt x="391" y="324" on="0"/>
        <pt x="428" y="298" on="0"/>
        <pt x="441" y="298" on="1"/>
        <pt x="458" y="298" on="0"/>
        <pt x="496" y="343" on="0"/>
        <pt x="560" y="445" on="1"/>
        <pt x="608" y="416" on="1"/>
        <pt x="538" y="297" on="0"/>
        <pt x="477" y="237" on="0"/>
        <pt x="441" y="237" on="1"/>
        <pt x="420" y="237" on="0"/>
        <pt x="370" y="266" on="0"/>
        <pt x="323" y="304" on="1"/>
        <pt x="272" y="345" on="0"/>
        <pt x="235" y="371" on="0"/>
        <pt x="222" y="371" on="1"/>
        <pt x="205" y="371" on="0"/>
        <pt x="167" y="326" on="0"/>
        <pt x="103" y="224" on="1"/>
        <pt x="55" y="253" on="1"/>
        <pt x="121" y="364" on="0"/>
        <pt x="184" y="432" on="0"/>
      </contour>
    </TTGlyph>
    <TTGlyph name="asterisk" xMin="105" yMin="163" xMax="607" yMax="630">
      <contour>
        <pt x="163" y="163" on="1"/>
        <pt x="105" y="229" on="1"/>
        <pt x="121" y="243" on="0"/>
        <pt x="166" y="275" on="0"/>
        <pt x="217" y="305" on="1"/>
        <pt x="264" y="334" on="0"/>
        <pt x="307" y="363" on="0"/>
        <pt x="322" y="376" on="1"/>
        <pt x="307" y="381" on="0"/>
        <pt x="265" y="391" on="0"/>
        <pt x="220" y="398" on="1"/>
        <pt x="172" y="406" on="0"/>
        <pt x="129" y="416" on="0"/>
        <pt x="114" y="422" on="1"/>
        <pt x="169" y="509" on="1"/>
        <pt x="184" y="503" on="0"/>
        <pt x="220" y="481" on="0"/>
        <pt x="257" y="455" on="1"/>
        <pt x="291" y="430" on="0"/>
        <pt x="325" y="409" on="0"/>
        <pt x="339" y="403" on="1"/>
        <pt x="344" y="421" on="0"/>
        <pt x="351" y="468" on="0"/>
        <pt x="355" y="517" on="1"/>
        <pt x="360" y="566" on="0"/>
        <pt x="367" y="612" on="0"/>
        <pt x="372" y="630" on="1"/>
        <pt x="467" y="630" on="1"/>
        <pt x="462" y="612" on="0"/>
        <pt x="443" y="566" on="0"/>
        <pt x="420" y="516" on="1"/>
        <pt x="397" y="467" on="0"/>
        <pt x="377" y="421" on="0"/>
        <pt x="372" y="403" on="1"/>
        <pt x="390" y="410" on="0"/>
        <pt x="434" y="430" on="0"/>
        <pt x="480" y="455" on="1"/>
        <pt x="529" y="481" on="0"/>
        <pt x="576" y="502" on="0"/>
        <pt x="594" y="508" on="1"/>
        <pt x="607" y="417" on="1"/>
        <pt x="588" y="411" on="0"/>
        <pt x="538" y="400" on="0"/>
        <pt x="484" y="392" on="1"/>
        <pt x="436" y="385" on="0"/>
        <pt x="391" y="376" on="0"/>
        <pt x="373" y="371" on="1"/>
        <pt x="381" y="358" on="0"/>
        <pt x="406" y="328" on="0"/>
        <pt x="434" y="298" on="1"/>
        <pt x="464" y="265" on="0"/>
        <pt x="489" y="233" on="0"/>
        <pt x="497" y="220" on="1"/>
        <pt x="411" y="163" on="1"/>
        <pt x="403" y="177" on="0"/>
        <pt x="387" y="218" on="0"/>
        <pt x="374" y="264" on="1"/>
        <pt x="363" y="304" on="0"/>
        <pt x="350" y="341" on="0"/>
        <pt x="343" y="354" on="1"/>
        <pt x="327" y="340" on="0"/>
        <pt x="289" y="300" on="0"/>
        <pt x="251" y="256" on="1"/>
        <pt x="214" y="214" on="0"/>
        <pt x="178" y="176" on="0"/>
      </contour>
    </TTGlyph>
    <TTGlyph name="at" xMin="49" yMin="-79" xMax="637" yMax="725">
      <contour>
        <pt x="399" y="-17" on="1"/>
        <pt x="409" y="-60" on="1"/>
        <pt x="357" y="-70" on="0"/>
        <pt x="286" y="-79" on="0"/>
        <pt x="252" y="-79" on="1"/>
        <pt x="148" y="-79" on="0"/>
        <pt x="49" y="15" on="0"/>
        <pt x="49" y="113" on="1"/>
        <pt x="49" y="240" on="0"/>
        <pt x="165" y="563" on="0"/>
        <pt x="242" y="640" on="1"/>
        <pt x="285" y="683" on="0"/>
        <pt x="390" y="725" on="0"/>
        <pt x="456" y="725" on="1"/>
        <pt x="556" y="725" on="0"/>
        <pt x="637" y="655" on="0"/>
        <pt x="637" y="574" on="1"/>
        <pt x="637" y="484" on="0"/>
        <pt x="562" y="225" on="0"/>
        <pt x="515" y="178" on="1"/>
        <pt x="490" y="153" on="0"/>
        <pt x="427" y="129" on="0"/>
        <pt x="385" y="129" on="1"/>
        <pt x="309" y="129" on="0"/>
        <pt x="237" y="185" on="0"/>
        <pt x="237" y="244" on="1"/>
        <pt x="237" y="300" on="0"/>
        <pt x="281" y="420" on="0"/>
        <pt x="315" y="454" on="1"/>
        <pt x="346" y="485" on="0"/>
        <pt x="430" y="515" on="0"/>
        <pt x="485" y="515" on="1"/>
        <pt x="583" y="515" on="1"/>
        <pt x="586" y="535" on="0"/>
        <pt x="588" y="560" on="0"/>
        <pt x="588" y="570" on="1"/>
        <pt x="588" y="629" on="0"/>
        <pt x="529" y="680" on="0"/>
        <pt x="457" y="680" on="1"/>
        <pt x="397" y="680" on="0"/>
        <pt x="309" y="643" on="0"/>
        <pt x="269" y="603" on="1"/>
        <pt x="205" y="539" on="0"/>
        <pt x="98" y="232" on="0"/>
        <pt x="98" y="127" on="1"/>
        <pt x="98" y="44" on="0"/>
        <pt x="181" y="-34" on="0"/>
        <pt x="270" y="-34" on="1"/>
        <pt x="298" y="-34" on="0"/>
        <pt x="362" y="-26" on="0"/>
      </contour>
      <contour>
        <pt x="361" y="429" on="1"/>
        <pt x="335" y="403" on="0"/>
        <pt x="293" y="293" on="0"/>
        <pt x="293" y="249" on="1"/>
        <pt x="293" y="210" on="0"/>
        <pt x="335" y="175" on="0"/>
        <pt x="382" y="175" on="1"/>
        <pt x="413" y="175" on="0"/>
        <pt x="460" y="194" on="0"/>
        <pt x="480" y="214" on="1"/>
        <pt x="506" y="240" on="0"/>
        <pt x="559" y="384" on="0"/>
        <pt x="576" y="469" on="1"/>
        <pt x="469" y="469" on="1"/>
        <pt x="434" y="469" on="0"/>
        <pt x="381" y="449" on="0"/>
      </contour>
    </TTGlyph>
    <TTGlyph name="atilde" xMin="39" yMin="-5" xMax="632" yMax="731">
      <component glyphName="a" x="0" y="0" flags="0x204"/>
      <component glyphName="uni0303" x="299" y="5" flags="0x4"/>
    </TTGlyph>
    <TTGlyph name="b" xMin="44" yMin="-8" xMax="558" yMax="710">
      <contour>
        <pt x="239" y="710" on="1"/>
        <pt x="298" y="710" on="1"/>
        <pt x="199" y="365" on="1"/>
        <pt x="254" y="420" on="0"/>
        <pt x="346" y="468" on="0"/>
        <pt x="397" y="468" on="1"/>
        <pt x="470" y="468" on="0"/>
        <pt x="558" y="376" on="0"/>
        <pt x="558" y="300" on="1"/>
        <pt x="558" y="167" on="0"/>
        <pt x="373" y="-8" on="0"/>
        <pt x="226" y="-8" on="1"/>
        <pt x="182" y="-8" on="0"/>
        <pt x="79" y="16" on="0"/>
        <pt x="44" y="34" on="1"/>
      </contour>
      <contour>
        <pt x="496" y="297" on="1"/>
        <pt x="496" y="351" on="0"/>
        <pt x="438" y="418" on="0"/>
        <pt x="391" y="418" on="1"/>
        <pt x="342" y="418" on="0"/>
        <pt x="254" y="365" on="0"/>
        <pt x="179" y="296" on="1"/>
        <pt x="112" y="63" on="1"/>
        <pt x="136" y="52" on="0"/>
        <pt x="192" y="42" on="0"/>
        <pt x="227" y="42" on="1"/>
        <pt x="348" y="42" on="0"/>
        <pt x="496" y="191" on="0"/>
      </contour>
    </TTGlyph>
    <TTGlyph name="backslash" xMin="196" yMin="-100" xMax="473" yMax="755">
      <contour>
        <pt x="414" y="-100" on="1"/>
        <pt x="196" y="755" on="1"/>
        <pt x="253" y="755" on="1"/>
        <pt x="473" y="-100" on="1"/>
      </contour>
    </TTGlyph>
    <TTGlyph name="bar" xMin="183" yMin="-100" xMax="486" yMax="755">
      <contour>
        <pt x="428" y="755" on="1"/>
        <pt x="486" y="755" on="1"/>
        <pt x="241" y="-100" on="1"/>
        <pt x="183" y="-100" on="1"/>
      </contour>
    </TTGlyph>
    <TTGlyph name="braceleft" xMin="99" yMin="-135" xMax="692" yMax="797">
      <contour>
        <pt x="129" y="-42" on="1"/>
        <pt x="129" y="-17" on="0"/>
        <pt x="163" y="29" on="0"/>
        <pt x="210" y="70" on="1"/>
        <pt x="275" y="127" on="1"/>
        <pt x="311" y="159" on="0"/>
        <pt x="332" y="183" on="0"/>
        <pt x="332" y="198" on="1"/>
        <pt x="332" y="219" on="0"/>
        <pt x="223" y="266" on="0"/>
        <pt x="99" y="301" on="1"/>
        <pt x="117" y="361" on="1"/>
        <pt x="168" y="374" on="0"/>
        <pt x="248" y="395" on="0"/>
        <pt x="279" y="404" on="1"/>
        <pt x="353" y="426" on="0"/>
        <pt x="413" y="460" on="0"/>
        <pt x="413" y="485" on="1"/>
        <pt x="413" y="494" on="0"/>
        <pt x="403" y="519" on="0"/>
        <pt x="393" y="537" on="1"/>
        <pt x="361" y="594" on="1"/>
        <pt x="345" y="623" on="0"/>
        <pt x="332" y="658" on="0"/>
        <pt x="332" y="671" on="1"/>
        <pt x="332" y="711" on="0"/>
        <pt x="393" y="758" on="0"/>
        <pt x="454" y="766" on="1"/>
        <pt x="692" y="797" on="1"/>
        <pt x="678" y="747" on="1"/>
        <pt x="447" y="716" on="1"/>
        <pt x="419" y="712" on="0"/>
        <pt x="391" y="692" on="0"/>
        <pt x="391" y="675" on="1"/>
        <pt x="391" y="666" on="0"/>
        <pt x="400" y="642" on="0"/>
        <pt x="410" y="625" on="1"/>
        <pt x="443" y="568" on="1"/>
        <pt x="463" y="534" on="0"/>
        <pt x="476" y="500" on="0"/>
        <pt x="476" y="484" on="1"/>
        <pt x="476" y="449" on="0"/>
        <pt x="416" y="402" on="0"/>
        <pt x="348" y="378" on="1"/>
        <pt x="316" y="366" on="0"/>
        <pt x="230" y="341" on="0"/>
        <pt x="177" y="327" on="1"/>
        <pt x="177" y="324" on="1"/>
        <pt x="220" y="310" on="0"/>
        <pt x="280" y="290" on="0"/>
        <pt x="302" y="281" on="1"/>
        <pt x="355" y="261" on="0"/>
        <pt x="395" y="229" on="0"/>
        <pt x="395" y="202" on="1"/>
        <pt x="395" y="181" on="0"/>
        <pt x="357" y="133" on="0"/>
        <pt x="308" y="90" on="1"/>
        <pt x="243" y="33" on="1"/>
        <pt x="210" y="4" on="0"/>
        <pt x="190" y="-19" on="0"/>
        <pt x="190" y="-31" on="1"/>
        <pt x="190" y="-41" on="0"/>
        <pt x="207" y="-53" on="0"/>
        <pt x="225" y="-56" on="1"/>
        <pt x="439" y="-87" on="1"/>
        <pt x="425" y="-135" on="1"/>
        <pt x="204" y="-104" on="1"/>
        <pt x="167" y="-99" on="0"/>
        <pt x="129" y="-67" on="0"/>
      </contour>
    </TTGlyph>
    <TTGlyph name="braceright" xMin="-20" yMin="-135" xMax="573" yMax="797">
      <contour>
        <pt x="340" y="-9" on="1"/>
        <pt x="340" y="-49" on="0"/>
        <pt x="279" y="-96" on="0"/>
        <pt x="218" y="-104" on="1"/>
        <pt x="-20" y="-135" on="1"/>
        <pt x="-6" y="-85" on="1"/>
        <pt x="225" y="-54" on="1"/>
        <pt x="253" y="-50" on="0"/>
        <pt x="281" y="-30" on="0"/>
        <pt x="281" y="-13" on="1"/>
        <pt x="281" y="-4" on="0"/>
        <pt x="272" y="20" on="0"/>
        <pt x="262" y="37" on="1"/>
        <pt x="229" y="94" on="1"/>
        <pt x="209" y="128" on="0"/>
        <pt x="196" y="162" on="0"/>
        <pt x="196" y="178" on="1"/>
        <pt x="196" y="214" on="0"/>
        <pt x="256" y="260" on="0"/>
        <pt x="323" y="284" on="1"/>
        <pt x="356" y="296" on="0"/>
        <pt x="441" y="321" on="0"/>
        <pt x="494" y="335" on="1"/>
        <pt x="494" y="338" on="1"/>
        <pt x="451" y="352" on="0"/>
        <pt x="391" y="372" on="0"/>
        <pt x="369" y="381" on="1"/>
        <pt x="317" y="401" on="0"/>
        <pt x="277" y="433" on="0"/>
        <pt x="277" y="460" on="1"/>
        <pt x="277" y="481" on="0"/>
        <pt x="315" y="529" on="0"/>
        <pt x="364" y="572" on="1"/>
        <pt x="429" y="629" on="1"/>
        <pt x="462" y="658" on="0"/>
        <pt x="482" y="681" on="0"/>
        <pt x="482" y="693" on="1"/>
        <pt x="482" y="703" on="0"/>
        <pt x="465" y="715" on="0"/>
        <pt x="447" y="718" on="1"/>
        <pt x="233" y="749" on="1"/>
        <pt x="247" y="797" on="1"/>
        <pt x="468" y="766" on="1"/>
        <pt x="505" y="761" on="0"/>
        <pt x="543" y="729" on="0"/>
        <pt x="543" y="704" on="1"/>
        <pt x="543" y="679" on="0"/>
        <pt x="509" y="633" on="0"/>
        <pt x="462" y="592" on="1"/>
        <pt x="397" y="535" on="1"/>
        <pt x="361" y="503" on="0"/>
        <pt x="340" y="479" on="0"/>
        <pt x="340" y="464" on="1"/>
        <pt x="340" y="443" on="0"/>
        <pt x="449" y="396" on="0"/>
        <pt x="573" y="361" on="1"/>
        <pt x="555" y="301" on="1"/>
        <pt x="504" y="288" on="0"/>
        <pt x="424" y="267" on="0"/>
        <pt x="393" y="258" on="1"/>
        <pt x="319" y="236" on="0"/>
        <pt x="259" y="202" on="0"/>
        <pt x="259" y="177" on="1"/>
        <pt x="259" y="168" on="0"/>
        <pt x="269" y="143" on="0"/>
        <pt x="279" y="125" on="1"/>
        <pt x="311" y="68" on="1"/>
        <pt x="327" y="39" on="0"/>
        <pt x="340" y="4" on="0"/>
      </contour>
    </TTGlyph>
    <TTGlyph name="bracketleft" xMin="102" yMin="-129" xMax="673" yMax="783">
      <contour>
        <pt x="411" y="-129" on="1"/>
        <pt x="102" y="-129" on="1"/>
        <pt x="364" y="783" on="1"/>
        <pt x="673" y="783" on="1"/>
        <pt x="658" y="732" on="1"/>
        <pt x="410" y="732" on="1"/>
        <pt x="178" y="-78" on="1"/>
        <pt x="426" y="-78" on="1"/>
      </contour>
    </TTGlyph>
    <TTGlyph name="bracketright" xMin="-3" yMin="-129" xMax="568" yMax="783">
      <contour>
        <pt x="492" y="732" on="1"/>
        <pt x="244" y="732" on="1"/>
        <pt x="259" y="783" on="1"/>
        <pt x="568" y="783" on="1"/>
        <pt x="306" y="-129" on="1"/>
        <pt x="-3" y="-129" on="1"/>
        <pt x="12" y="-78" on="1"/>
        <pt x="260" y="-78" on="1"/>
      </contour>
    </TTGlyph>
    <TTGlyph name="breve" xMin="272" yMin="536" xMax="631" yMax="730">
      <component glyphName="uni0306" x="307" y="0" flags="0x4"/>
    </TTGlyph>
    <TTGlyph name="bullet" xMin="208" yMin="217" xMax="468" yMax="454">
      <contour>
        <pt x="208" y="305" on="1"/>
        <pt x="208" y="369" on="0"/>
        <pt x="287" y="454" on="0"/>
        <pt x="352" y="454" on="1"/>
        <pt x="409" y="454" on="0"/>
        <pt x="468" y="409" on="0"/>
        <pt x="468" y="366" on="1"/>
        <pt x="468" y="301" on="0"/>
        <pt x="388" y="217" on="0"/>
        <pt x="324" y="217" on="1"/>
        <pt x="267" y="217" on="0"/>
        <pt x="208" y="262" on="0"/>
      </contour>
    </TTGlyph>
    <TTGlyph name="c" xMin="64" yMin="-15" xMax="574" yMax="475">
      <contour>
        <pt x="375" y="425" on="1"/>
        <pt x="329" y="425" on="0"/>
        <pt x="241" y="387" on="0"/>
        <pt x="207" y="353" on="1"/>
        <pt x="171" y="317" on="0"/>
        <pt x="128" y="215" on="0"/>
        <pt x="128" y="167" on="1"/>
        <pt x="128" y="107" on="0"/>
        <pt x="199" y="35" on="0"/>
        <pt x="259" y="35" on="1"/>
        <pt x="301" y="35" on="0"/>
        <pt x="401" y="65" on="0"/>
        <pt x="471" y="98" on="1"/>
        <pt x="494" y="51" on="1"/>
        <pt x="424" y="16" on="0"/>
        <pt x="310" y="-15" on="0"/>
        <pt x="245" y="-15" on="1"/>
        <pt x="161" y="-15" on="0"/>
        <pt x="64" y="79" on="0"/>
        <pt x="64" y="161" on="1"/>
        <pt x="64" y="225" on="0"/>
        <pt x="111" y="339" on="0"/>
        <pt x="156" y="384" on="1"/>
        <pt x="199" y="427" on="0"/>
        <pt x="310" y="475" on="0"/>
        <pt x="367" y="475" on="1"/>
        <pt x="422" y="475" on="0"/>
        <pt x="514" y="445" on="0"/>
        <pt x="574" y="406" on="1"/>
        <pt x="541" y="357" on="1"/>
        <pt x="482" y="396" on="0"/>
        <pt x="410" y="425" on="0"/>
      </contour>
    </TTGlyph>
    <TTGlyph name="cacute" xMin="64" yMin="-15" xMax="621" yMax="746">
      <component glyphName="c" x="0" y="0" flags="0x204"/>
      <component glyphName="uni0301" x="331" y="5" flags="0x4"/>
    </TTGlyph>
    <TTGlyph name="caron" xMin="265" yMin="536" xMax="630" yMax="741">
      <component glyphName="uni030C" x="307" y="0" flags="0x4"/>
    </TTGlyph>
    <TTGlyph name="ccaron" xMin="64" yMin="-15" xMax="654" yMax="746">
      <component glyphName="c" x="0" y="0" flags="0x204"/>
      <component glyphName="uni030C" x="331" y="5" flags="0x4"/>
    </TTGlyph>
    <TTGlyph name="ccedilla" xMin="64" yMin="-270" xMax="574" yMax="475">
      <contour>
        <pt x="375" y="425" on="1"/>
        <pt x="329" y="425" on="0"/>
        <pt x="241" y="387" on="0"/>
        <pt x="207" y="353" on="1"/>
        <pt x="171" y="317" on="0"/>
        <pt x="128" y="215" on="0"/>
        <pt x="128" y="167" on="1"/>
        <pt x="128" y="107" on="0"/>
        <pt x="199" y="35" on="0"/>
        <pt x="259" y="35" on="1"/>
        <pt x="301" y="35" on="0"/>
        <pt x="401" y="65" on="0"/>
        <pt x="471" y="98" on="1"/>
        <pt x="494" y="51" on="1"/>
        <pt x="427" y="17" on="0"/>
        <pt x="316" y="-14" on="0"/>
        <pt x="257" y="-15" on="1"/>
        <pt x="225" y="-66" on="1"/>
        <pt x="301" y="-78" on="0"/>
        <pt x="359" y="-112" on="0"/>
        <pt x="359" y="-151" on="1"/>
        <pt x="359" y="-192" on="0"/>
        <pt x="303" y="-233" on="0"/>
        <pt x="238" y="-247" on="1"/>
        <pt x="206" y="-253" on="0"/>
        <pt x="122" y="-265" on="0"/>
        <pt x="68" y="-270" on="1"/>
        <pt x="68" y="-221" on="1"/>
        <pt x="107" y="-217" on="0"/>
        <pt x="169" y="-210" on="0"/>
        <pt x="193" y="-207" on="1"/>
        <pt x="249" y="-198" on="0"/>
        <pt x="295" y="-177" on="0"/>
        <pt x="295" y="-155" on="1"/>
        <pt x="295" y="-135" on="0"/>
        <pt x="239" y="-116" on="0"/>
        <pt x="162" y="-108" on="1"/>
        <pt x="159" y="-98" on="1"/>
        <pt x="214" y="-13" on="1"/>
        <pt x="143" y="-4" on="0"/>
        <pt x="64" y="87" on="0"/>
        <pt x="64" y="161" on="1"/>
        <pt x="64" y="225" on="0"/>
        <pt x="111" y="339" on="0"/>
        <pt x="156" y="384" on="1"/>
        <pt x="199" y="427" on="0"/>
        <pt x="310" y="475" on="0"/>
        <pt x="367" y="475" on="1"/>
        <pt x="422" y="475" on="0"/>
        <pt x="514" y="445" on="0"/>
        <pt x="574" y="406" on="1"/>
        <pt x="541" y="357" on="1"/>
        <pt x="482" y="396" on="0"/>
        <pt x="410" y="425" on="0"/>
      </contour>
    </TTGlyph>
    <TTGlyph name="ccircumflex" xMin="64" yMin="-15" xMax="606" yMax="741">
      <component glyphName="c" x="0" y="0" flags="0x204"/>
      <component glyphName="uni0302" x="330" y="0" flags="0x4"/>
    </TTGlyph>
    <TTGlyph name="cdotaccent" xMin="64" yMin="-15" xMax="574" yMax="664">
      <component glyphName="c" x="0" y="0" flags="0x204"/>
      <component glyphName="uni0307" x="331" y="5" flags="0x4"/>
    </TTGlyph>
    <TTGlyph name="cedilla" xMin="68" yMin="-265" xMax="359" yMax="21">
      <component glyphName="uni0327" x="307" y="0" flags="0x4"/>
    </TTGlyph>
    <TTGlyph name="cent" xMin="72" yMin="-142" xMax="582" yMax="632">
      <contour>
        <pt x="234" y="-142" on="1"/>
        <pt x="177" y="-142" on="1"/>
        <pt x="226" y="1" on="1"/>
        <pt x="154" y="9" on="0"/>
        <pt x="72" y="101" on="0"/>
        <pt x="72" y="176" on="1"/>
        <pt x="72" y="240" on="0"/>
        <pt x="119" y="354" on="0"/>
        <pt x="164" y="399" on="1"/>
        <pt x="207" y="442" on="0"/>
        <pt x="318" y="490" on="0"/>
        <pt x="375" y="490" on="1"/>
        <pt x="379" y="490" on="0"/>
        <pt x="387" y="490" on="0"/>
        <pt x="391" y="490" on="1"/>
        <pt x="440" y="632" on="1"/>
        <pt x="497" y="632" on="1"/>
        <pt x="446" y="483" on="1"/>
        <pt x="476" y="477" on="0"/>
        <pt x="540" y="448" on="0"/>
        <pt x="582" y="421" on="1"/>
        <pt x="549" y="372" on="1"/>
        <pt x="508" y="400" on="0"/>
        <pt x="449" y="429" on="0"/>
        <pt x="424" y="435" on="1"/>
        <pt x="295" y="51" on="1"/>
        <pt x="331" y="55" on="0"/>
        <pt x="420" y="85" on="0"/>
        <pt x="479" y="113" on="1"/>
        <pt x="502" y="66" on="1"/>
        <pt x="440" y="35" on="0"/>
        <pt x="336" y="4" on="0"/>
        <pt x="283" y="1" on="1"/>
      </contour>
      <contour>
        <pt x="215" y="368" on="1"/>
        <pt x="179" y="332" on="0"/>
        <pt x="136" y="230" on="0"/>
        <pt x="136" y="182" on="1"/>
        <pt x="136" y="126" on="0"/>
        <pt x="197" y="56" on="0"/>
        <pt x="250" y="51" on="1"/>
        <pt x="381" y="440" on="1"/>
        <pt x="335" y="439" on="0"/>
        <pt x="249" y="402" on="0"/>
      </contour>
    </TTGlyph>
    <TTGlyph name="circumflex" xMin="218" yMin="536" xMax="583" yMax="741">
      <component glyphName="uni0302" x="307" y="0" flags="0x4"/>
    </TTGlyph>
    <TTGlyph name="colon" xMin="182" yMin="-15" xMax="432" yMax="472">
      <contour>
        <pt x="432" y="421" on="1"/>
        <pt x="432" y="384" on="0"/>
        <pt x="385" y="335" on="0"/>
        <pt x="346" y="335" on="1"/>
        <pt x="316" y="335" on="0"/>
        <pt x="282" y="363" on="0"/>
        <pt x="282" y="388" on="1"/>
        <pt x="282" y="422" on="0"/>
        <pt x="330" y="472" on="0"/>
        <pt x="367" y="472" on="1"/>
        <pt x="399" y="472" on="0"/>
        <pt x="432" y="446" on="0"/>
      </contour>
      <contour>
        <pt x="332" y="71" on="1"/>
        <pt x="332" y="34" on="0"/>
        <pt x="285" y="-15" on="0"/>
        <pt x="246" y="-15" on="1"/>
        <pt x="216" y="-15" on="0"/>
        <pt x="182" y="13" on="0"/>
        <pt x="182" y="38" on="1"/>
        <pt x="182" y="72" on="0"/>
        <pt x="231" y="122" on="0"/>
        <pt x="267" y="122" on="1"/>
        <pt x="299" y="122" on="0"/>
        <pt x="332" y="96" on="0"/>
      </contour>
    </TTGlyph>
    <TTGlyph name="colon.fig" xMin="211" yMin="84" xMax="461" yMax="571">
      <component glyphName="colon" x="29" y="99" flags="0x4"/>
    </TTGlyph>
    <TTGlyph name="comma" xMin="71" yMin="-144" xMax="346" yMax="120">
      <contour>
        <pt x="138" y="-144" on="1"/>
        <pt x="71" y="-144" on="1"/>
        <pt x="71" y="-142" on="1"/>
        <pt x="171" y="-57" on="0"/>
        <pt x="227" y="26" on="0"/>
        <pt x="246" y="120" on="1"/>
        <pt x="346" y="120" on="1"/>
        <pt x="321" y="9" on="0"/>
        <pt x="252" y="-79" on="0"/>
      </contour>
    </TTGlyph>
    <TTGlyph name="copyright" xMin="48" yMin="-70" xMax="623" yMax="725">
      <contour>
        <pt x="623" y="546" on="1"/>
        <pt x="623" y="501" on="0"/>
        <pt x="602" y="382" on="0"/>
        <pt x="581" y="308" on="1"/>
        <pt x="525" y="114" on="0"/>
        <pt x="356" y="-70" on="0"/>
        <pt x="230" y="-70" on="1"/>
        <pt x="136" y="-70" on="0"/>
        <pt x="48" y="19" on="0"/>
        <pt x="48" y="112" on="1"/>
        <pt x="48" y="158" on="0"/>
        <pt x="69" y="276" on="0"/>
        <pt x="89" y="348" on="1"/>
        <pt x="145" y="541" on="0"/>
        <pt x="314" y="725" on="0"/>
        <pt x="440" y="725" on="1"/>
        <pt x="534" y="725" on="0"/>
        <pt x="623" y="638" on="0"/>
      </contour>
      <contour>
        <pt x="437" y="680" on="1"/>
        <pt x="329" y="680" on="0"/>
        <pt x="187" y="511" on="0"/>
        <pt x="134" y="328" on="1"/>
        <pt x="114" y="258" on="0"/>
        <pt x="95" y="152" on="0"/>
        <pt x="95" y="113" on="1"/>
        <pt x="95" y="42" on="0"/>
        <pt x="161" y="-25" on="0"/>
        <pt x="233" y="-25" on="1"/>
        <pt x="341" y="-25" on="0"/>
        <pt x="483" y="144" on="0"/>
        <pt x="536" y="328" on="1"/>
        <pt x="556" y="396" on="0"/>
        <pt x="575" y="505" on="0"/>
        <pt x="575" y="546" on="1"/>
        <pt x="575" y="615" on="0"/>
        <pt x="509" y="680" on="0"/>
      </contour>
      <contour>
        <pt x="280" y="97" on="1"/>
        <pt x="236" y="97" on="0"/>
        <pt x="192" y="153" on="0"/>
        <pt x="192" y="210" on="1"/>
        <pt x="192" y="258" on="0"/>
        <pt x="220" y="371" on="0"/>
        <pt x="245" y="421" on="1"/>
        <pt x="278" y="486" on="0"/>
        <pt x="360" y="558" on="0"/>
        <pt x="403" y="558" on="1"/>
        <pt x="437" y="558" on="0"/>
        <pt x="481" y="525" on="0"/>
        <pt x="508" y="484" on="1"/>
        <pt x="472" y="456" on="1"/>
        <pt x="449" y="490" on="0"/>
        <pt x="419" y="515" on="0"/>
        <pt x="399" y="515" on="1"/>
        <pt x="370" y="515" on="0"/>
        <pt x="309" y="446" on="0"/>
        <pt x="284" y="386" on="1"/>
        <pt x="265" y="342" on="0"/>
        <pt x="243" y="248" on="0"/>
        <pt x="243" y="212" on="1"/>
        <pt x="243" y="176" on="0"/>
        <pt x="266" y="140" on="0"/>
        <pt x="288" y="140" on="1"/>
        <pt x="310" y="140" on="0"/>
        <pt x="356" y="169" on="0"/>
        <pt x="389" y="202" on="1"/>
        <pt x="419" y="172" on="1"/>
        <pt x="378" y="131" on="0"/>
        <pt x="317" y="97" on="0"/>
      </contour>
    </TTGlyph>
    <TTGlyph name="d" xMin="56" yMin="-8" xMax="652" yMax="710">
      <contour>
        <pt x="448" y="0" on="1"/>
        <pt x="399" y="0" on="1"/>
        <pt x="417" y="95" on="1"/>
        <pt x="361" y="41" on="0"/>
        <pt x="265" y="-8" on="0"/>
        <pt x="212" y="-8" on="1"/>
        <pt x="142" y="-8" on="0"/>
        <pt x="56" y="84" on="0"/>
        <pt x="56" y="160" on="1"/>
        <pt x="56" y="293" on="0"/>
        <pt x="246" y="468" on="0"/>
        <pt x="396" y="468" on="1"/>
        <pt x="428" y="468" on="0"/>
        <pt x="489" y="457" on="0"/>
        <pt x="517" y="446" on="1"/>
        <pt x="593" y="710" on="1"/>
        <pt x="652" y="710" on="1"/>
      </contour>
      <contour>
        <pt x="399" y="418" on="1"/>
        <pt x="273" y="418" on="0"/>
        <pt x="118" y="269" on="0"/>
        <pt x="118" y="163" on="1"/>
        <pt x="118" y="109" on="0"/>
        <pt x="174" y="42" on="0"/>
        <pt x="218" y="42" on="1"/>
        <pt x="270" y="42" on="0"/>
        <pt x="363" y="96" on="0"/>
        <pt x="436" y="163" on="1"/>
        <pt x="503" y="398" on="1"/>
        <pt x="478" y="408" on="0"/>
        <pt x="427" y="418" on="0"/>
      </contour>
    </TTGlyph>
    <TTGlyph name="dagger" xMin="129" yMin="0" xMax="616" yMax="710">
      <contour>
        <pt x="616" y="517" on="1"/>
        <pt x="593" y="435" on="1"/>
        <pt x="573" y="435" on="0"/>
        <pt x="527" y="440" on="0"/>
        <pt x="481" y="447" on="1"/>
        <pt x="445" y="453" on="0"/>
        <pt x="409" y="458" on="0"/>
        <pt x="393" y="459" on="1"/>
        <pt x="382" y="420" on="0"/>
        <pt x="360" y="328" on="0"/>
        <pt x="339" y="236" on="1"/>
        <pt x="318" y="139" on="0"/>
        <pt x="294" y="41" on="0"/>
        <pt x="282" y="0" on="1"/>
        <pt x="190" y="0" on="1"/>
        <pt x="202" y="41" on="0"/>
        <pt x="234" y="137" on="0"/>
        <pt x="268" y="233" on="1"/>
        <pt x="301" y="326" on="0"/>
        <pt x="332" y="419" on="0"/>
        <pt x="344" y="459" on="1"/>
        <pt x="327" y="458" on="0"/>
        <pt x="286" y="453" on="0"/>
        <pt x="244" y="447" on="1"/>
        <pt x="194" y="440" on="0"/>
        <pt x="147" y="435" on="0"/>
        <pt x="129" y="435" on="1"/>
        <pt x="152" y="517" on="1"/>
        <pt x="170" y="517" on="0"/>
        <pt x="214" y="513" on="0"/>
        <pt x="259" y="507" on="1"/>
        <pt x="298" y="501" on="0"/>
        <pt x="338" y="497" on="0"/>
        <pt x="355" y="496" on="1"/>
        <pt x="359" y="513" on="0"/>
        <pt x="366" y="553" on="0"/>
        <pt x="372" y="593" on="1"/>
        <pt x="379" y="642" on="0"/>
        <pt x="388" y="690" on="0"/>
        <pt x="394" y="710" on="1"/>
        <pt x="486" y="710" on="1"/>
        <pt x="480" y="689" on="0"/>
        <pt x="462" y="640" on="0"/>
        <pt x="441" y="590" on="1"/>
        <pt x="425" y="551" on="0"/>
        <pt x="410" y="512" on="0"/>
        <pt x="404" y="496" on="1"/>
        <pt x="420" y="497" on="0"/>
        <pt x="457" y="501" on="0"/>
        <pt x="495" y="506" on="1"/>
        <pt x="545" y="513" on="0"/>
        <pt x="595" y="517" on="0"/>
      </contour>
    </TTGlyph>
    <TTGlyph name="daggerdbl" xMin="76" yMin="0" xMax="616" yMax="710">
      <contour>
        <pt x="532" y="277" on="1"/>
        <pt x="509" y="195" on="1"/>
        <pt x="490" y="195" on="0"/>
        <pt x="447" y="200" on="0"/>
        <pt x="404" y="207" on="1"/>
        <pt x="372" y="214" on="0"/>
        <pt x="338" y="218" on="0"/>
        <pt x="324" y="219" on="1"/>
        <pt x="319" y="201" on="0"/>
        <pt x="311" y="159" on="0"/>
        <pt x="303" y="117" on="1"/>
        <pt x="295" y="69" on="0"/>
        <pt x="285" y="21" on="0"/>
        <pt x="279" y="0" on="1"/>
        <pt x="193" y="0" on="1"/>
        <pt x="199" y="20" on="0"/>
        <pt x="216" y="68" on="0"/>
        <pt x="236" y="116" on="1"/>
        <pt x="253" y="159" on="0"/>
        <pt x="269" y="201" on="0"/>
        <pt x="275" y="219" on="1"/>
        <pt x="260" y="218" on="0"/>
        <pt x="224" y="214" on="0"/>
        <pt x="188" y="207" on="1"/>
        <pt x="142" y="200" on="0"/>
        <pt x="95" y="195" on="0"/>
        <pt x="76" y="195" on="1"/>
        <pt x="99" y="277" on="1"/>
        <pt x="118" y="277" on="0"/>
        <pt x="161" y="273" on="0"/>
        <pt x="203" y="266" on="1"/>
        <pt x="237" y="261" on="0"/>
        <pt x="271" y="257" on="0"/>
        <pt x="286" y="256" on="1"/>
        <pt x="344" y="459" on="1"/>
        <pt x="328" y="458" on="0"/>
        <pt x="288" y="453" on="0"/>
        <pt x="248" y="447" on="1"/>
        <pt x="198" y="440" on="0"/>
        <pt x="149" y="435" on="0"/>
        <pt x="129" y="435" on="1"/>
        <pt x="152" y="517" on="1"/>
        <pt x="173" y="517" on="0"/>
        <pt x="219" y="513" on="0"/>
        <pt x="264" y="506" on="1"/>
        <pt x="301" y="501" on="0"/>
        <pt x="338" y="497" on="0"/>
        <pt x="354" y="496" on="1"/>
        <pt x="358" y="513" on="0"/>
        <pt x="366" y="554" on="0"/>
        <pt x="372" y="594" on="1"/>
        <pt x="378" y="642" on="0"/>
        <pt x="388" y="690" on="0"/>
        <pt x="394" y="710" on="1"/>
        <pt x="486" y="710" on="1"/>
        <pt x="480" y="689" on="0"/>
        <pt x="462" y="641" on="0"/>
        <pt x="441" y="592" on="1"/>
        <pt x="424" y="553" on="0"/>
        <pt x="409" y="513" on="0"/>
        <pt x="403" y="496" on="1"/>
        <pt x="420" y="497" on="0"/>
        <pt x="460" y="501" on="0"/>
        <pt x="502" y="506" on="1"/>
        <pt x="550" y="513" on="0"/>
        <pt x="597" y="517" on="0"/>
        <pt x="616" y="517" on="1"/>
        <pt x="593" y="435" on="1"/>
        <pt x="574" y="435" on="0"/>
        <pt x="530" y="440" on="0"/>
        <pt x="485" y="447" on="1"/>
        <pt x="447" y="453" on="0"/>
        <pt x="409" y="458" on="0"/>
        <pt x="392" y="459" on="1"/>
        <pt x="334" y="256" on="1"/>
        <pt x="349" y="257" on="0"/>
        <pt x="384" y="261" on="0"/>
        <pt x="420" y="266" on="1"/>
        <pt x="467" y="273" on="0"/>
        <pt x="513" y="277" on="0"/>
      </contour>
    </TTGlyph>
    <TTGlyph name="dcaron" xMin="56" yMin="-8" xMax="849" yMax="787">
      <component glyphName="d" x="0" y="0" flags="0x204"/>
      <component glyphName="uni0315" x="641" y="77" flags="0x4"/>
    </TTGlyph>
    <TTGlyph name="dcroat" xMin="56" yMin="-8" xMax="681" yMax="710">
      <contour>
        <pt x="428" y="0" on="1"/>
        <pt x="379" y="0" on="1"/>
        <pt x="397" y="94" on="1"/>
        <pt x="342" y="38" on="0"/>
        <pt x="258" y="-8" on="0"/>
        <pt x="212" y="-8" on="1"/>
        <pt x="142" y="-8" on="0"/>
        <pt x="56" y="79" on="0"/>
        <pt x="56" y="150" on="1"/>
        <pt x="56" y="271" on="0"/>
        <pt x="239" y="428" on="0"/>
        <pt x="384" y="428" on="1"/>
        <pt x="409" y="428" on="0"/>
        <pt x="460" y="417" on="0"/>
        <pt x="486" y="406" on="1"/>
        <pt x="523" y="535" on="1"/>
        <pt x="322" y="535" on="1"/>
        <pt x="336" y="583" on="1"/>
        <pt x="537" y="583" on="1"/>
        <pt x="573" y="710" on="1"/>
        <pt x="632" y="710" on="1"/>
        <pt x="596" y="583" on="1"/>
        <pt x="681" y="583" on="1"/>
        <pt x="667" y="535" on="1"/>
        <pt x="582" y="535" on="1"/>
      </contour>
      <contour>
        <pt x="387" y="378" on="1"/>
        <pt x="266" y="378" on="0"/>
        <pt x="118" y="247" on="0"/>
        <pt x="118" y="153" on="1"/>
        <pt x="118" y="103" on="0"/>
        <pt x="174" y="42" on="0"/>
        <pt x="218" y="42" on="1"/>
        <pt x="260" y="42" on="0"/>
        <pt x="341" y="92" on="0"/>
        <pt x="416" y="163" on="1"/>
        <pt x="472" y="358" on="1"/>
        <pt x="450" y="368" on="0"/>
        <pt x="408" y="378" on="0"/>
      </contour>
    </TTGlyph>
    <TTGlyph name="degree" xMin="173" yMin="293" xMax="592" yMax="692">
      <contour>
        <pt x="592" y="532" on="1"/>
        <pt x="592" y="434" on="0"/>
        <pt x="454" y="293" on="0"/>
        <pt x="354" y="293" on="1"/>
        <pt x="272" y="293" on="0"/>
        <pt x="173" y="381" on="0"/>
        <pt x="173" y="453" on="1"/>
        <pt x="173" y="551" on="0"/>
        <pt x="311" y="692" on="0"/>
        <pt x="411" y="692" on="1"/>
        <pt x="493" y="692" on="0"/>
        <pt x="592" y="604" on="0"/>
      </contour>
      <contour>
        <pt x="540" y="534" on="1"/>
        <pt x="540" y="586" on="0"/>
        <pt x="472" y="649" on="0"/>
        <pt x="414" y="649" on="1"/>
        <pt x="337" y="649" on="0"/>
        <pt x="225" y="530" on="0"/>
        <pt x="225" y="451" on="1"/>
        <pt x="225" y="399" on="0"/>
        <pt x="293" y="336" on="0"/>
        <pt x="351" y="336" on="1"/>
        <pt x="428" y="336" on="0"/>
        <pt x="540" y="455" on="0"/>
      </contour>
    </TTGlyph>
    <TTGlyph name="dieresis" xMin="241" yMin="556" xMax="587" yMax="655">
      <component glyphName="uni0308" x="307" y="0" flags="0x4"/>
    </TTGlyph>
    <TTGlyph name="divide" xMin="93" yMin="82" xMax="576" yMax="570">
      <contour>
        <pt x="449" y="533" on="1"/>
        <pt x="449" y="505" on="0"/>
        <pt x="411" y="466" on="0"/>
        <pt x="382" y="466" on="1"/>
        <pt x="359" y="466" on="0"/>
        <pt x="335" y="485" on="0"/>
        <pt x="335" y="503" on="1"/>
        <pt x="335" y="532" on="0"/>
        <pt x="372" y="570" on="0"/>
        <pt x="402" y="570" on="1"/>
        <pt x="425" y="570" on="0"/>
        <pt x="449" y="551" on="0"/>
      </contour>
      <contour>
        <pt x="561" y="301" on="1"/>
        <pt x="93" y="301" on="1"/>
        <pt x="108" y="352" on="1"/>
        <pt x="576" y="352" on="1"/>
      </contour>
      <contour>
        <pt x="336" y="149" on="1"/>
        <pt x="336" y="121" on="0"/>
        <pt x="298" y="82" on="0"/>
        <pt x="269" y="82" on="1"/>
        <pt x="246" y="82" on="0"/>
        <pt x="222" y="101" on="0"/>
        <pt x="222" y="119" on="1"/>
        <pt x="222" y="148" on="0"/>
        <pt x="259" y="186" on="0"/>
        <pt x="289" y="186" on="1"/>
        <pt x="312" y="186" on="0"/>
        <pt x="336" y="167" on="0"/>
      </contour>
    </TTGlyph>
    <TTGlyph name="dollar" xMin="44" yMin="-142" xMax="612" yMax="797">
      <contour>
        <pt x="257" y="1" on="1"/>
        <pt x="213" y="-142" on="1"/>
        <pt x="160" y="-142" on="1"/>
        <pt x="206" y="7" on="1"/>
        <pt x="167" y="14" on="0"/>
        <pt x="89" y="44" on="0"/>
        <pt x="44" y="69" on="1"/>
        <pt x="70" y="118" on="1"/>
        <pt x="115" y="93" on="0"/>
        <pt x="192" y="62" on="0"/>
        <pt x="227" y="55" on="1"/>
        <pt x="315" y="327" on="1"/>
        <pt x="246" y="362" on="0"/>
        <pt x="183" y="439" on="0"/>
        <pt x="183" y="492" on="1"/>
        <pt x="183" y="562" on="0"/>
        <pt x="303" y="655" on="0"/>
        <pt x="400" y="655" on="1"/>
        <pt x="414" y="655" on="0"/>
        <pt x="427" y="655" on="0"/>
        <pt x="432" y="654" on="1"/>
        <pt x="477" y="797" on="1"/>
        <pt x="530" y="797" on="1"/>
        <pt x="483" y="649" on="1"/>
        <pt x="510" y="645" on="0"/>
        <pt x="568" y="629" on="0"/>
        <pt x="612" y="614" on="1"/>
        <pt x="594" y="562" on="1"/>
        <pt x="557" y="578" on="0"/>
        <pt x="493" y="597" on="0"/>
        <pt x="463" y="601" on="1"/>
        <pt x="382" y="354" on="1"/>
        <pt x="454" y="316" on="0"/>
        <pt x="517" y="240" on="0"/>
        <pt x="517" y="182" on="1"/>
        <pt x="517" y="97" on="0"/>
        <pt x="392" y="0" on="0"/>
        <pt x="285" y="0" on="1"/>
        <pt x="273" y="0" on="0"/>
        <pt x="262" y="0" on="0"/>
      </contour>
      <contour>
        <pt x="400" y="606" on="1"/>
        <pt x="327" y="606" on="0"/>
        <pt x="244" y="547" on="0"/>
        <pt x="244" y="496" on="1"/>
        <pt x="244" y="457" on="0"/>
        <pt x="292" y="402" on="0"/>
        <pt x="344" y="374" on="1"/>
        <pt x="419" y="606" on="1"/>
        <pt x="414" y="606" on="0"/>
        <pt x="405" y="606" on="0"/>
      </contour>
      <contour>
        <pt x="285" y="49" on="1"/>
        <pt x="365" y="49" on="0"/>
        <pt x="456" y="119" on="0"/>
        <pt x="456" y="180" on="1"/>
        <pt x="456" y="219" on="0"/>
        <pt x="406" y="280" on="0"/>
        <pt x="353" y="308" on="1"/>
        <pt x="270" y="49" on="1"/>
        <pt x="274" y="49" on="0"/>
        <pt x="281" y="49" on="0"/>
      </contour>
    </TTGlyph>
    <TTGlyph name="dong" xMin="-9" yMin="-136" xMax="695" yMax="655">
      <contour>
        <pt x="448" y="0" on="1"/>
        <pt x="399" y="0" on="1"/>
        <pt x="417" y="95" on="1"/>
        <pt x="362" y="40" on="0"/>
        <pt x="268" y="-8" on="0"/>
        <pt x="217" y="-8" on="1"/>
        <pt x="141" y="-8" on="0"/>
        <pt x="54" y="75" on="0"/>
        <pt x="54" y="148" on="1"/>
        <pt x="54" y="269" on="0"/>
        <pt x="234" y="428" on="0"/>
        <pt x="378" y="428" on="1"/>
        <pt x="411" y="428" on="0"/>
        <pt x="474" y="416" on="0"/>
        <pt x="505" y="404" on="1"/>
        <pt x="536" y="513" on="1"/>
        <pt x="336" y="513" on="1"/>
        <pt x="350" y="561" on="1"/>
        <pt x="550" y="561" on="1"/>
        <pt x="577" y="655" on="1"/>
        <pt x="636" y="655" on="1"/>
        <pt x="609" y="561" on="1"/>
        <pt x="695" y="561" on="1"/>
        <pt x="681" y="513" on="1"/>
        <pt x="595" y="513" on="1"/>
      </contour>
      <contour>
        <pt x="377" y="378" on="1"/>
        <pt x="260" y="378" on="0"/>
        <pt x="116" y="245" on="0"/>
        <pt x="116" y="151" on="1"/>
        <pt x="116" y="102" on="0"/>
        <pt x="175" y="42" on="0"/>
        <pt x="223" y="42" on="1"/>
        <pt x="273" y="42" on="0"/>
        <pt x="363" y="95" on="0"/>
        <pt x="436" y="163" on="1"/>
        <pt x="491" y="354" on="1"/>
        <pt x="467" y="366" on="0"/>
        <pt x="410" y="378" on="0"/>
      </contour>
      <contour>
        <pt x="399" y="-136" on="1"/>
        <pt x="-9" y="-136" on="1"/>
        <pt x="5" y="-88" on="1"/>
        <pt x="413" y="-88" on="1"/>
      </contour>
    </TTGlyph>
    <TTGlyph name="dotaccent" xMin="358" yMin="556" xMax="472" yMax="659">
      <component glyphName="uni0307" x="307" y="0" flags="0x4"/>
    </TTGlyph>
    <TTGlyph name="dotlessi" xMin="57" yMin="0" xMax="470" yMax="460">
      <contour>
        <pt x="57" y="0" on="1"/>
        <pt x="71" y="50" on="1"/>
        <pt x="232" y="50" on="1"/>
        <pt x="354" y="410" on="1"/>
        <pt x="195" y="410" on="1"/>
        <pt x="209" y="460" on="1"/>
        <pt x="430" y="460" on="1"/>
        <pt x="291" y="50" on="1"/>
        <pt x="470" y="50" on="1"/>
        <pt x="456" y="0" on="1"/>
      </contour>
    </TTGlyph>
    <TTGlyph name="e" xMin="74" yMin="-5" xMax="567" yMax="475">
      <contour>
        <pt x="409" y="44" on="1"/>
        <pt x="393" y="-5" on="1"/>
        <pt x="305" y="-5" on="0"/>
        <pt x="183" y="10" on="0"/>
        <pt x="146" y="28" on="1"/>
        <pt x="107" y="47" on="0"/>
        <pt x="74" y="110" on="0"/>
        <pt x="74" y="158" on="1"/>
        <pt x="74" y="219" on="0"/>
        <pt x="128" y="337" on="0"/>
        <pt x="177" y="383" on="1"/>
        <pt x="224" y="427" on="0"/>
        <pt x="344" y="475" on="0"/>
        <pt x="408" y="475" on="1"/>
        <pt x="481" y="475" on="0"/>
        <pt x="567" y="411" on="0"/>
        <pt x="567" y="358" on="1"/>
        <pt x="567" y="287" on="0"/>
        <pt x="443" y="217" on="0"/>
        <pt x="307" y="204" on="1"/>
        <pt x="138" y="189" on="1"/>
        <pt x="137" y="181" on="0"/>
        <pt x="136" y="167" on="0"/>
        <pt x="136" y="160" on="1"/>
        <pt x="136" y="87" on="0"/>
        <pt x="266" y="44" on="0"/>
      </contour>
      <contour>
        <pt x="505" y="358" on="1"/>
        <pt x="505" y="387" on="0"/>
        <pt x="452" y="425" on="0"/>
        <pt x="408" y="425" on="1"/>
        <pt x="321" y="425" on="0"/>
        <pt x="174" y="316" on="0"/>
        <pt x="148" y="233" on="1"/>
        <pt x="304" y="248" on="1"/>
        <pt x="405" y="258" on="0"/>
        <pt x="505" y="312" on="0"/>
      </contour>
    </TTGlyph>
    <TTGlyph name="eacute" xMin="74" yMin="-5" xMax="609" yMax="746">
      <component glyphName="e" x="0" y="0" flags="0x204"/>
      <component glyphName="uni0301" x="319" y="5" flags="0x4"/>
    </TTGlyph>
    <TTGlyph name="ebreve" xMin="74" yMin="-5" xMax="643" yMax="735">
      <component glyphName="e" x="0" y="0" flags="0x204"/>
      <component glyphName="uni0306" x="319" y="5" flags="0x4"/>
    </TTGlyph>
    <TTGlyph name="ecaron" xMin="74" yMin="-5" xMax="642" yMax="746">
      <component glyphName="e" x="0" y="0" flags="0x204"/>
      <component glyphName="uni030C" x="319" y="5" flags="0x4"/>
    </TTGlyph>
    <TTGlyph name="ecircumflex" xMin="74" yMin="-5" xMax="594" yMax="741">
      <component glyphName="e" x="0" y="0" flags="0x204"/>
      <component glyphName="uni0302" x="318" y="0" flags="0x4"/>
    </TTGlyph>
    <TTGlyph name="edieresis" xMin="74" yMin="-5" xMax="599" yMax="660">
      <component glyphName="e" x="0" y="0" flags="0x204"/>
      <component glyphName="uni0308" x="319" y="5" flags="0x4"/>
    </TTGlyph>
    <TTGlyph name="edotaccent" xMin="74" yMin="-5" xMax="567" yMax="664">
      <component glyphName="e" x="0" y="0" flags="0x204"/>
      <component glyphName="uni0307" x="319" y="5" flags="0x4"/>
    </TTGlyph>
    <TTGlyph name="egrave" xMin="74" yMin="-5" xMax="567" yMax="739">
      <component glyphName="e" x="0" y="0" flags="0x204"/>
      <component glyphName="uni0300" x="319" y="5" flags="0x4"/>
    </TTGlyph>
    <TTGlyph name="eight" xMin="60" yMin="-15" xMax="590" yMax="670">
      <contour>
        <pt x="521" y="195" on="1"/>
        <pt x="521" y="104" on="0"/>
        <pt x="370" y="-15" on="0"/>
        <pt x="259" y="-15" on="1"/>
        <pt x="166" y="-15" on="0"/>
        <pt x="60" y="71" on="0"/>
        <pt x="60" y="146" on="1"/>
        <pt x="60" y="221" on="0"/>
        <pt x="174" y="330" on="0"/>
        <pt x="268" y="343" on="1"/>
        <pt x="268" y="348" on="1"/>
        <pt x="224" y="366" on="0"/>
        <pt x="177" y="434" on="0"/>
        <pt x="177" y="477" on="1"/>
        <pt x="177" y="558" on="0"/>
        <pt x="310" y="670" on="0"/>
        <pt x="407" y="670" on="1"/>
        <pt x="492" y="670" on="0"/>
        <pt x="590" y="589" on="0"/>
        <pt x="590" y="519" on="1"/>
        <pt x="590" y="452" on="0"/>
        <pt x="496" y="351" on="0"/>
        <pt x="418" y="336" on="1"/>
        <pt x="418" y="331" on="1"/>
        <pt x="467" y="313" on="0"/>
        <pt x="521" y="241" on="0"/>
      </contour>
      <contour>
        <pt x="405" y="619" on="1"/>
        <pt x="334" y="619" on="0"/>
        <pt x="238" y="531" on="0"/>
        <pt x="238" y="467" on="1"/>
        <pt x="238" y="421" on="0"/>
        <pt x="302" y="364" on="0"/>
        <pt x="352" y="364" on="1"/>
        <pt x="421" y="364" on="0"/>
        <pt x="529" y="460" on="0"/>
        <pt x="529" y="520" on="1"/>
        <pt x="529" y="566" on="0"/>
        <pt x="462" y="619" on="0"/>
      </contour>
      <contour>
        <pt x="322" y="312" on="1"/>
        <pt x="241" y="312" on="0"/>
        <pt x="124" y="215" on="0"/>
        <pt x="124" y="146" on="1"/>
        <pt x="124" y="94" on="0"/>
        <pt x="196" y="36" on="0"/>
        <pt x="261" y="36" on="1"/>
        <pt x="344" y="36" on="0"/>
        <pt x="457" y="131" on="0"/>
        <pt x="457" y="202" on="1"/>
        <pt x="457" y="252" on="0"/>
        <pt x="383" y="312" on="0"/>
      </contour>
    </TTGlyph>
    <TTGlyph name="eight.den" xMin="132" yMin="-14" xMax="468" yMax="395">
      <contour>
        <pt x="427" y="109" on="1"/>
        <pt x="427" y="56" on="0"/>
        <pt x="334" y="-14" on="0"/>
        <pt x="266" y="-14" on="1"/>
        <pt x="204" y="-14" on="0"/>
        <pt x="132" y="39" on="0"/>
        <pt x="132" y="85" on="1"/>
        <pt x="132" y="128" on="0"/>
        <pt x="200" y="191" on="0"/>
        <pt x="256" y="200" on="1"/>
        <pt x="256" y="202" on="1"/>
        <pt x="229" y="213" on="0"/>
        <pt x="199" y="254" on="0"/>
        <pt x="199" y="280" on="1"/>
        <pt x="199" y="327" on="0"/>
        <pt x="282" y="395" on="0"/>
        <pt x="344" y="395" on="1"/>
        <pt x="401" y="395" on="0"/>
        <pt x="468" y="344" on="0"/>
        <pt x="468" y="301" on="1"/>
        <pt x="468" y="261" on="0"/>
        <pt x="410" y="203" on="0"/>
        <pt x="360" y="194" on="1"/>
        <pt x="360" y="192" on="1"/>
        <pt x="392" y="181" on="0"/>
        <pt x="427" y="137" on="0"/>
      </contour>
      <contour>
        <pt x="344" y="354" on="1"/>
        <pt x="303" y="354" on="0"/>
        <pt x="247" y="305" on="0"/>
        <pt x="247" y="270" on="1"/>
        <pt x="247" y="245" on="0"/>
        <pt x="286" y="214" on="0"/>
        <pt x="317" y="214" on="1"/>
        <pt x="357" y="214" on="0"/>
        <pt x="418" y="266" on="0"/>
        <pt x="418" y="299" on="1"/>
        <pt x="418" y="325" on="0"/>
        <pt x="378" y="354" on="0"/>
      </contour>
      <contour>
        <pt x="295" y="177" on="1"/>
        <pt x="248" y="177" on="0"/>
        <pt x="183" y="125" on="0"/>
        <pt x="183" y="88" on="1"/>
        <pt x="183" y="59" on="0"/>
        <pt x="227" y="26" on="0"/>
        <pt x="266" y="26" on="1"/>
        <pt x="313" y="26" on="0"/>
        <pt x="378" y="78" on="0"/>
        <pt x="378" y="117" on="1"/>
        <pt x="378" y="144" on="0"/>
        <pt x="332" y="177" on="0"/>
      </contour>
    </TTGlyph>
    <TTGlyph name="eight.inf" xMin="67" yMin="-244" xMax="403" yMax="165">
      <component glyphName="eight.den" x="-65" y="-230" flags="0x4"/>
    </TTGlyph>
    <TTGlyph name="eight.num" xMin="210" yMin="261" xMax="546" yMax="670">
      <component glyphName="eight.den" x="78" y="275" flags="0x4"/>
    </TTGlyph>
    <TTGlyph name="eight.sup" xMin="226" yMin="316" xMax="562" yMax="725">
      <component glyphName="eight.den" x="94" y="330" flags="0x4"/>
    </TTGlyph>
    <TTGlyph name="ellipsis" xMin="-12" yMin="-15" xMax="526" yMax="122">
      <contour>
        <pt x="63" y="122" on="1"/>
        <pt x="90" y="122" on="0"/>
        <pt x="116" y="102" on="0"/>
        <pt x="116" y="81" on="1"/>
        <pt x="116" y="40" on="0"/>
        <pt x="76" y="-15" on="0"/>
        <pt x="42" y="-15" on="1"/>
        <pt x="14" y="-15" on="0"/>
        <pt x="-12" y="7" on="0"/>
        <pt x="-12" y="29" on="1"/>
        <pt x="-12" y="68" on="0"/>
        <pt x="30" y="122" on="0"/>
      </contour>
      <contour>
        <pt x="268" y="122" on="1"/>
        <pt x="295" y="122" on="0"/>
        <pt x="321" y="102" on="0"/>
        <pt x="321" y="81" on="1"/>
        <pt x="321" y="40" on="0"/>
        <pt x="281" y="-15" on="0"/>
        <pt x="247" y="-15" on="1"/>
        <pt x="219" y="-15" on="0"/>
        <pt x="193" y="7" on="0"/>
        <pt x="193" y="29" on="1"/>
        <pt x="193" y="68" on="0"/>
        <pt x="235" y="122" on="0"/>
      </contour>
      <contour>
        <pt x="473" y="122" on="1"/>
        <pt x="500" y="122" on="0"/>
        <pt x="526" y="102" on="0"/>
        <pt x="526" y="81" on="1"/>
        <pt x="526" y="40" on="0"/>
        <pt x="486" y="-15" on="0"/>
        <pt x="452" y="-15" on="1"/>
        <pt x="424" y="-15" on="0"/>
        <pt x="398" y="7" on="0"/>
        <pt x="398" y="29" on="1"/>
        <pt x="398" y="68" on="0"/>
        <pt x="440" y="122" on="0"/>
      </contour>
    </TTGlyph>
    <TTGlyph name="emacron" xMin="74" yMin="-5" xMax="597" yMax="631">
      <component glyphName="e" x="0" y="0" flags="0x204"/>
      <component glyphName="uni0304" x="319" y="5" flags="0x4"/>
    </TTGlyph>
    <TTGlyph name="emdash" xMin="70" yMin="299" xMax="600" yMax="354">
      <contour>
        <pt x="70" y="299" on="1"/>
        <pt x="86" y="354" on="1"/>
        <pt x="600" y="354" on="1"/>
        <pt x="584" y="299" on="1"/>
      </contour>
    </TTGlyph>
    <TTGlyph name="endash" xMin="99" yMin="299" xMax="569" yMax="354">
      <contour>
        <pt x="99" y="299" on="1"/>
        <pt x="115" y="354" on="1"/>
        <pt x="569" y="354" on="1"/>
        <pt x="553" y="299" on="1"/>
      </contour>
    </TTGlyph>
    <TTGlyph name="eng" xMin="37" yMin="-239" xMax="546" yMax="465">
      <contour>
        <pt x="529" y="284" on="1"/>
        <pt x="449" y="8" on="1"/>
        <pt x="425" y="-76" on="0"/>
        <pt x="383" y="-157" on="0"/>
        <pt x="355" y="-180" on="1"/>
        <pt x="325" y="-203" on="0"/>
        <pt x="232" y="-228" on="0"/>
        <pt x="151" y="-234" on="1"/>
        <pt x="83" y="-239" on="1"/>
        <pt x="83" y="-188" on="1"/>
        <pt x="148" y="-184" on="1"/>
        <pt x="210" y="-180" on="0"/>
        <pt x="288" y="-159" on="0"/>
        <pt x="313" y="-138" on="1"/>
        <pt x="338" y="-119" on="0"/>
        <pt x="374" y="-51" on="0"/>
        <pt x="392" y="13" on="1"/>
        <pt x="472" y="292" on="1"/>
        <pt x="479" y="316" on="0"/>
        <pt x="485" y="348" on="0"/>
        <pt x="485" y="360" on="1"/>
        <pt x="485" y="385" on="0"/>
        <pt x="452" y="413" on="0"/>
        <pt x="422" y="413" on="1"/>
        <pt x="376" y="413" on="0"/>
        <pt x="272" y="334" on="0"/>
        <pt x="159" y="220" on="1"/>
        <pt x="96" y="0" on="1"/>
        <pt x="37" y="0" on="1"/>
        <pt x="169" y="460" on="1"/>
        <pt x="228" y="460" on="1"/>
        <pt x="183" y="304" on="1"/>
        <pt x="275" y="398" on="0"/>
        <pt x="377" y="465" on="0"/>
        <pt x="437" y="465" on="1"/>
        <pt x="486" y="465" on="0"/>
        <pt x="546" y="412" on="0"/>
        <pt x="546" y="369" on="1"/>
        <pt x="546" y="354" on="0"/>
        <pt x="538" y="313" on="0"/>
      </contour>
    </TTGlyph>
    <TTGlyph name="eogonek" xMin="74" yMin="-235" xMax="567" yMax="475">
      <contour>
        <pt x="409" y="44" on="1"/>
        <pt x="266" y="44" on="0"/>
        <pt x="136" y="87" on="0"/>
        <pt x="136" y="160" on="1"/>
        <pt x="136" y="167" on="0"/>
        <pt x="137" y="181" on="0"/>
        <pt x="138" y="189" on="1"/>
        <pt x="307" y="204" on="1"/>
        <pt x="443" y="217" on="0"/>
        <pt x="567" y="287" on="0"/>
        <pt x="567" y="358" on="1"/>
        <pt x="567" y="411" on="0"/>
        <pt x="481" y="475" on="0"/>
        <pt x="408" y="475" on="1"/>
        <pt x="344" y="475" on="0"/>
        <pt x="224" y="427" on="0"/>
        <pt x="177" y="383" on="1"/>
        <pt x="128" y="337" on="0"/>
        <pt x="74" y="219" on="0"/>
        <pt x="74" y="158" on="1"/>
        <pt x="74" y="110" on="0"/>
        <pt x="107" y="47" on="0"/>
        <pt x="146" y="28" on="1"/>
        <pt x="183" y="10" on="0"/>
        <pt x="290" y="-3" on="0"/>
        <pt x="350" y="-5" on="1"/>
        <pt x="256" y="-86" on="0"/>
        <pt x="216" y="-146" on="0"/>
        <pt x="216" y="-170" on="1"/>
        <pt x="216" y="-201" on="0"/>
        <pt x="258" y="-228" on="0"/>
        <pt x="308" y="-231" on="1"/>
        <pt x="383" y="-235" on="1"/>
        <pt x="399" y="-192" on="1"/>
        <pt x="334" y="-188" on="1"/>
        <pt x="303" y="-186" on="0"/>
        <pt x="278" y="-173" on="0"/>
        <pt x="278" y="-158" on="1"/>
        <pt x="278" y="-136" on="0"/>
        <pt x="332" y="-66" on="0"/>
        <pt x="393" y="-5" on="1"/>
      </contour>
      <contour>
        <pt x="148" y="233" on="1"/>
        <pt x="174" y="316" on="0"/>
        <pt x="321" y="425" on="0"/>
        <pt x="408" y="425" on="1"/>
        <pt x="452" y="425" on="0"/>
        <pt x="505" y="387" on="0"/>
        <pt x="505" y="358" on="1"/>
        <pt x="505" y="312" on="0"/>
        <pt x="405" y="258" on="0"/>
        <pt x="304" y="248" on="1"/>
      </contour>
    </TTGlyph>
    <TTGlyph name="equal" xMin="82" yMin="209" xMax="587" yMax="443">
      <contour>
        <pt x="572" y="392" on="1"/>
        <pt x="134" y="392" on="1"/>
        <pt x="149" y="443" on="1"/>
        <pt x="587" y="443" on="1"/>
      </contour>
      <contour>
        <pt x="520" y="209" on="1"/>
        <pt x="82" y="209" on="1"/>
        <pt x="97" y="261" on="1"/>
        <pt x="535" y="261" on="1"/>
      </contour>
    </TTGlyph>
    <TTGlyph name="eth" xMin="55" yMin="-15" xMax="627" yMax="739">
      <contour>
        <pt x="485" y="658" on="1"/>
        <pt x="602" y="739" on="1"/>
        <pt x="627" y="701" on="1"/>
        <pt x="519" y="626" on="1"/>
        <pt x="551" y="589" on="0"/>
        <pt x="584" y="497" on="0"/>
        <pt x="584" y="442" on="1"/>
        <pt x="584" y="340" on="0"/>
        <pt x="511" y="138" on="0"/>
        <pt x="449" y="76" on="1"/>
        <pt x="405" y="32" on="0"/>
        <pt x="300" y="-15" on="0"/>
        <pt x="246" y="-15" on="1"/>
        <pt x="155" y="-15" on="0"/>
        <pt x="55" y="73" on="0"/>
        <pt x="55" y="153" on="1"/>
        <pt x="55" y="269" on="0"/>
        <pt x="210" y="426" on="0"/>
        <pt x="336" y="426" on="1"/>
        <pt x="387" y="426" on="0"/>
        <pt x="473" y="399" on="0"/>
        <pt x="518" y="369" on="1"/>
        <pt x="522" y="389" on="0"/>
        <pt x="525" y="428" on="0"/>
        <pt x="525" y="447" on="1"/>
        <pt x="525" y="488" on="0"/>
        <pt x="498" y="563" on="0"/>
        <pt x="473" y="594" on="1"/>
        <pt x="324" y="491" on="1"/>
        <pt x="298" y="530" on="1"/>
        <pt x="439" y="627" on="1"/>
        <pt x="414" y="647" on="0"/>
        <pt x="352" y="675" on="0"/>
        <pt x="315" y="684" on="1"/>
        <pt x="338" y="725" on="1"/>
        <pt x="381" y="715" on="0"/>
        <pt x="455" y="682" on="0"/>
      </contour>
      <contour>
        <pt x="345" y="376" on="1"/>
        <pt x="246" y="376" on="0"/>
        <pt x="116" y="248" on="0"/>
        <pt x="116" y="157" on="1"/>
        <pt x="116" y="100" on="0"/>
        <pt x="183" y="35" on="0"/>
        <pt x="242" y="35" on="1"/>
        <pt x="283" y="35" on="0"/>
        <pt x="365" y="73" on="0"/>
        <pt x="400" y="108" on="1"/>
        <pt x="436" y="144" on="0"/>
        <pt x="492" y="255" on="0"/>
        <pt x="508" y="320" on="1"/>
        <pt x="464" y="350" on="0"/>
        <pt x="390" y="376" on="0"/>
      </contour>
    </TTGlyph>
    <TTGlyph name="exclam" xMin="189" yMin="-15" xMax="505" yMax="710">
      <contour>
        <pt x="323" y="227" on="1"/>
        <pt x="289" y="227" on="1"/>
        <pt x="386" y="710" on="1"/>
        <pt x="505" y="710" on="1"/>
      </contour>
      <contour>
        <pt x="189" y="30" on="1"/>
        <pt x="189" y="58" on="0"/>
        <pt x="229" y="93" on="0"/>
        <pt x="261" y="93" on="1"/>
        <pt x="286" y="93" on="0"/>
        <pt x="317" y="68" on="0"/>
        <pt x="317" y="48" on="1"/>
        <pt x="317" y="21" on="0"/>
        <pt x="277" y="-15" on="0"/>
        <pt x="245" y="-15" on="1"/>
        <pt x="219" y="-15" on="0"/>
        <pt x="189" y="10" on="0"/>
      </contour>
    </TTGlyph>
    <TTGlyph name="exclamdown" xMin="181" yMin="0" xMax="497" yMax="725">
      <contour>
        <pt x="497" y="680" on="1"/>
        <pt x="497" y="652" on="0"/>
        <pt x="457" y="617" on="0"/>
        <pt x="425" y="617" on="1"/>
        <pt x="400" y="617" on="0"/>
        <pt x="369" y="642" on="0"/>
        <pt x="369" y="662" on="1"/>
        <pt x="369" y="689" on="0"/>
        <pt x="409" y="725" on="0"/>
        <pt x="441" y="725" on="1"/>
        <pt x="467" y="725" on="0"/>
        <pt x="497" y="700" on="0"/>
      </contour>
      <contour>
        <pt x="363" y="483" on="1"/>
        <pt x="397" y="483" on="1"/>
        <pt x="300" y="0" on="1"/>
        <pt x="181" y="0" on="1"/>
      </contour>
    </TTGlyph>
    <TTGlyph name="f" xMin="128" yMin="0" xMax="667" yMax="719">
      <contour>
        <pt x="289" y="410" on="1"/>
        <pt x="128" y="410" on="1"/>
        <pt x="142" y="460" on="1"/>
        <pt x="303" y="460" on="1"/>
        <pt x="325" y="537" on="1"/>
        <pt x="351" y="630" on="0"/>
        <pt x="448" y="704" on="0"/>
        <pt x="551" y="711" on="1"/>
        <pt x="667" y="719" on="1"/>
        <pt x="667" y="667" on="1"/>
        <pt x="543" y="659" on="1"/>
        <pt x="473" y="655" on="0"/>
        <pt x="402" y="600" on="0"/>
        <pt x="383" y="534" on="1"/>
        <pt x="362" y="460" on="1"/>
        <pt x="569" y="460" on="1"/>
        <pt x="555" y="410" on="1"/>
        <pt x="348" y="410" on="1"/>
        <pt x="230" y="0" on="1"/>
        <pt x="171" y="0" on="1"/>
      </contour>
    </TTGlyph>
    <TTGlyph name="five" xMin="32" yMin="-10" xMax="614" yMax="655">
      <contour>
        <pt x="372" y="420" on="1"/>
        <pt x="448" y="420" on="0"/>
        <pt x="538" y="341" on="0"/>
        <pt x="538" y="272" on="1"/>
        <pt x="538" y="157" on="0"/>
        <pt x="352" y="17" on="0"/>
        <pt x="179" y="2" on="1"/>
        <pt x="32" y="-10" on="1"/>
        <pt x="42" y="42" on="1"/>
        <pt x="164" y="53" on="1"/>
        <pt x="313" y="66" on="0"/>
        <pt x="473" y="180" on="0"/>
        <pt x="473" y="270" on="1"/>
        <pt x="473" y="315" on="0"/>
        <pt x="412" y="368" on="0"/>
        <pt x="361" y="368" on="1"/>
        <pt x="320" y="368" on="0"/>
        <pt x="232" y="340" on="0"/>
        <pt x="172" y="307" on="1"/>
        <pt x="133" y="311" on="1"/>
        <pt x="132" y="316" on="1"/>
        <pt x="256" y="655" on="1"/>
        <pt x="614" y="655" on="1"/>
        <pt x="599" y="604" on="1"/>
        <pt x="295" y="604" on="1"/>
        <pt x="208" y="374" on="1"/>
        <pt x="250" y="397" on="0"/>
        <pt x="332" y="420" on="0"/>
      </contour>
    </TTGlyph>
    <TTGlyph name="five.den" xMin="106" yMin="-9" xMax="472" yMax="380">
      <contour>
        <pt x="164" y="179" on="1"/>
        <pt x="236" y="380" on="1"/>
        <pt x="472" y="380" on="1"/>
        <pt x="459" y="338" on="1"/>
        <pt x="268" y="338" on="1"/>
        <pt x="224" y="220" on="1"/>
        <pt x="247" y="232" on="0"/>
        <pt x="296" y="244" on="0"/>
        <pt x="322" y="244" on="1"/>
        <pt x="370" y="244" on="0"/>
        <pt x="428" y="198" on="0"/>
        <pt x="428" y="158" on="1"/>
        <pt x="428" y="88" on="0"/>
        <pt x="311" y="6" on="0"/>
        <pt x="197" y="-2" on="1"/>
        <pt x="106" y="-9" on="1"/>
        <pt x="115" y="34" on="1"/>
        <pt x="196" y="41" on="1"/>
        <pt x="285" y="49" on="0"/>
        <pt x="375" y="105" on="0"/>
        <pt x="375" y="153" on="1"/>
        <pt x="375" y="176" on="0"/>
        <pt x="338" y="203" on="0"/>
        <pt x="307" y="203" on="1"/>
        <pt x="281" y="203" on="0"/>
        <pt x="228" y="187" on="0"/>
        <pt x="198" y="171" on="1"/>
        <pt x="165" y="176" on="1"/>
      </contour>
    </TTGlyph>
    <TTGlyph name="five.inf" xMin="41" yMin="-239" xMax="407" yMax="150">
      <component glyphName="five.den" x="-65" y="-230" flags="0x4"/>
    </TTGlyph>
    <TTGlyph name="five.num" xMin="184" yMin="266" xMax="550" yMax="655">
      <component glyphName="five.den" x="78" y="275" flags="0x4"/>
    </TTGlyph>
    <TTGlyph name="five.sup" xMin="200" yMin="321" xMax="566" yMax="710">
      <component glyphName="five.den" x="94" y="330" flags="0x4"/>
    </TTGlyph>
    <TTGlyph name="fiveeighths" xMin="0" yMin="-244" xMax="614" yMax="655">
      <component glyphName="eight.den" x="124" y="-230" flags="0x4"/>
      <component glyphName="fracbar" x="0" y="0" flags="0x204"/>
      <component glyphName="five.den" x="-66" y="275" flags="0x4"/>
    </TTGlyph>
    <TTGlyph name="fivesixths" xMin="0" yMin="-245" xMax="614" yMax="655">
      <component glyphName="five.den" x="-66" y="275" flags="0x4"/>
      <component glyphName="six.den" x="94" y="-230" flags="0x4"/>
      <component glyphName="fracbar" x="0" y="0" flags="0x204"/>
    </TTGlyph>
    <TTGlyph name="four" xMin="46" yMin="0" xMax="582" yMax="655">
      <contour>
        <pt x="365" y="186" on="1"/>
        <pt x="46" y="186" on="1"/>
        <pt x="60" y="233" on="1"/>
        <pt x="494" y="655" on="1"/>
        <pt x="582" y="655" on="1"/>
        <pt x="444" y="237" on="1"/>
        <pt x="580" y="237" on="1"/>
        <pt x="565" y="186" on="1"/>
        <pt x="427" y="186" on="1"/>
        <pt x="366" y="0" on="1"/>
        <pt x="303" y="0" on="1"/>
      </contour>
      <contour>
        <pt x="385" y="235" on="1"/>
        <pt x="506" y="604" on="1"/>
        <pt x="129" y="238" on="1"/>
        <pt x="129" y="235" on="1"/>
      </contour>
    </TTGlyph>
    <TTGlyph name="four.den" xMin="114" yMin="0" xMax="454" yMax="380">
      <contour>
        <pt x="309" y="102" on="1"/>
        <pt x="114" y="102" on="1"/>
        <pt x="125" y="138" on="1"/>
        <pt x="384" y="380" on="1"/>
        <pt x="452" y="380" on="1"/>
        <pt x="373" y="143" on="1"/>
        <pt x="454" y="143" on="1"/>
        <pt x="442" y="102" on="1"/>
        <pt x="359" y="102" on="1"/>
        <pt x="325" y="0" on="1"/>
        <pt x="275" y="0" on="1"/>
      </contour>
      <contour>
        <pt x="324" y="139" on="1"/>
        <pt x="394" y="344" on="1"/>
        <pt x="177" y="142" on="1"/>
        <pt x="177" y="139" on="1"/>
      </contour>
    </TTGlyph>
    <TTGlyph name="four.inf" xMin="49" yMin="-230" xMax="389" yMax="150">
      <component glyphName="four.den" x="-65" y="-230" flags="0x4"/>
    </TTGlyph>
    <TTGlyph name="four.num" xMin="192" yMin="275" xMax="532" yMax="655">
      <component glyphName="four.den" x="78" y="275" flags="0x4"/>
    </TTGlyph>
    <TTGlyph name="four.sup" xMin="208" yMin="330" xMax="548" yMax="710">
      <component glyphName="four.den" x="94" y="330" flags="0x4"/>
    </TTGlyph>
    <TTGlyph name="fourfifths" xMin="0" yMin="-239" xMax="614" yMax="655">
      <component glyphName="four.den" x="-67" y="275" flags="0x4"/>
      <component glyphName="five.den" x="134" y="-230" flags="0x4"/>
      <component glyphName="fracbar" x="0" y="0" flags="0x204"/>
    </TTGlyph>
    <TTGlyph name="fracbar" xMin="0" yMin="-62" xMax="614" yMax="468">
      <contour>
        <pt x="614" y="417" on="1"/>
        <pt x="317" y="192" on="1"/>
        <pt x="39" y="-62" on="1"/>
        <pt x="0" y="-11" on="1"/>
        <pt x="299" y="214" on="1"/>
        <pt x="575" y="468" on="1"/>
      </contour>
    </TTGlyph>
    <TTGlyph name="fraction" xMin="0" yMin="-2" xMax="614" yMax="657">
      <contour>
        <pt x="285" y="338" on="1"/>
        <pt x="545" y="657" on="1"/>
        <pt x="614" y="657" on="1"/>
        <pt x="325" y="315" on="1"/>
        <pt x="69" y="-2" on="1"/>
        <pt x="0" y="-2" on="1"/>
      </contour>
    </TTGlyph>
    <TTGlyph name="g" xMin="17" yMin="-239" xMax="570" yMax="468">
      <contour>
        <pt x="397" y="29" on="1"/>
        <pt x="424" y="124" on="1"/>
        <pt x="367" y="67" on="0"/>
        <pt x="268" y="16" on="0"/>
        <pt x="214" y="16" on="1"/>
        <pt x="142" y="16" on="0"/>
        <pt x="54" y="108" on="0"/>
        <pt x="54" y="184" on="1"/>
        <pt x="54" y="306" on="0"/>
        <pt x="245" y="468" on="0"/>
        <pt x="395" y="468" on="1"/>
        <pt x="437" y="468" on="0"/>
        <pt x="525" y="447" on="0"/>
        <pt x="570" y="426" on="1"/>
        <pt x="458" y="32" on="1"/>
        <pt x="434" y="-51" on="0"/>
        <pt x="385" y="-145" on="0"/>
        <pt x="352" y="-172" on="1"/>
        <pt x="319" y="-199" on="0"/>
        <pt x="219" y="-227" on="0"/>
        <pt x="132" y="-232" on="1"/>
        <pt x="17" y="-239" on="1"/>
        <pt x="17" y="-188" on="1"/>
        <pt x="126" y="-182" on="1"/>
        <pt x="256" y="-175" on="0"/>
        <pt x="362" y="-91" on="0"/>
      </contour>
      <contour>
        <pt x="399" y="418" on="1"/>
        <pt x="272" y="418" on="0"/>
        <pt x="116" y="283" on="0"/>
        <pt x="116" y="187" on="1"/>
        <pt x="116" y="133" on="0"/>
        <pt x="174" y="66" on="0"/>
        <pt x="220" y="66" on="1"/>
        <pt x="273" y="66" on="0"/>
        <pt x="368" y="122" on="0"/>
        <pt x="444" y="193" on="1"/>
        <pt x="503" y="398" on="1"/>
        <pt x="478" y="408" on="0"/>
        <pt x="427" y="418" on="0"/>
      </contour>
    </TTGlyph>
    <TTGlyph name="gbreve" xMin="17" yMin="-239" xMax="630" yMax="730">
      <component glyphName="g" x="0" y="0" flags="0x204"/>
      <component glyphName="uni0306" x="306" y="0" flags="0x4"/>
    </TTGlyph>
    <TTGlyph name="gcaron" xMin="17" yMin="-239" xMax="629" yMax="741">
      <component glyphName="g" x="0" y="0" flags="0x204"/>
      <component glyphName="uni030C" x="306" y="0" flags="0x4"/>
    </TTGlyph>
    <TTGlyph name="gcircumflex" xMin="17" yMin="-239" xMax="581" yMax="736">
      <component glyphName="g" x="0" y="0" flags="0x204"/>
      <component glyphName="uni0302" x="305" y="-5" flags="0x4"/>
    </TTGlyph>
    <TTGlyph name="gdotaccent" xMin="17" yMin="-239" xMax="570" yMax="659">
      <component glyphName="g" x="0" y="0" flags="0x204"/>
      <component glyphName="uni0307" x="306" y="0" flags="0x4"/>
    </TTGlyph>
    <TTGlyph name="germandbls" xMin="31" yMin="-6" xMax="618" yMax="725">
      <contour>
        <pt x="264" y="45" on="1"/>
        <pt x="360" y="52" on="1"/>
        <pt x="419" y="56" on="0"/>
        <pt x="477" y="111" on="0"/>
        <pt x="477" y="162" on="1"/>
        <pt x="477" y="197" on="0"/>
        <pt x="414" y="286" on="0"/>
        <pt x="343" y="351" on="1"/>
        <pt x="349" y="374" on="1"/>
        <pt x="391" y="404" on="0"/>
        <pt x="453" y="452" on="0"/>
        <pt x="475" y="471" on="1"/>
        <pt x="520" y="509" on="0"/>
        <pt x="555" y="563" on="0"/>
        <pt x="555" y="600" on="1"/>
        <pt x="555" y="635" on="0"/>
        <pt x="502" y="674" on="0"/>
        <pt x="455" y="674" on="1"/>
        <pt x="374" y="674" on="0"/>
        <pt x="254" y="572" on="0"/>
        <pt x="228" y="482" on="1"/>
        <pt x="90" y="0" on="1"/>
        <pt x="31" y="0" on="1"/>
        <pt x="169" y="482" on="1"/>
        <pt x="203" y="601" on="0"/>
        <pt x="347" y="725" on="0"/>
        <pt x="452" y="725" on="1"/>
        <pt x="531" y="725" on="0"/>
        <pt x="618" y="659" on="0"/>
        <pt x="618" y="601" on="1"/>
        <pt x="618" y="560" on="0"/>
        <pt x="584" y="499" on="0"/>
        <pt x="544" y="462" on="1"/>
        <pt x="521" y="441" on="0"/>
        <pt x="456" y="392" on="0"/>
        <pt x="414" y="363" on="1"/>
        <pt x="481" y="298" on="0"/>
        <pt x="540" y="207" on="0"/>
        <pt x="540" y="165" on="1"/>
        <pt x="540" y="88" on="0"/>
        <pt x="446" y="7" on="0"/>
        <pt x="351" y="0" on="1"/>
        <pt x="264" y="-6" on="1"/>
      </contour>
    </TTGlyph>
    <TTGlyph name="grave" xMin="295" yMin="426" xMax="493" yMax="710">
      <contour>
        <pt x="493" y="426" on="1"/>
        <pt x="435" y="426" on="1"/>
        <pt x="295" y="710" on="1"/>
        <pt x="395" y="710" on="1"/>
      </contour>
    </TTGlyph>
    <TTGlyph name="greater" xMin="39" yMin="91" xMax="575" yMax="552">
      <contour>
        <pt x="575" y="349" on="1"/>
        <pt x="560" y="294" on="1"/>
        <pt x="39" y="91" on="1"/>
        <pt x="55" y="150" on="1"/>
        <pt x="518" y="326" on="1"/>
        <pt x="156" y="501" on="1"/>
        <pt x="171" y="552" on="1"/>
      </contour>
    </TTGlyph>
    <TTGlyph name="greaterequal" xMin="27" yMin="0" xMax="583" yMax="670">
      <contour>
        <pt x="583" y="467" on="1"/>
        <pt x="568" y="412" on="1"/>
        <pt x="87" y="209" on="1"/>
        <pt x="103" y="268" on="1"/>
        <pt x="530" y="444" on="1"/>
        <pt x="204" y="619" on="1"/>
        <pt x="219" y="670" on="1"/>
      </contour>
      <contour>
        <pt x="465" y="51" on="1"/>
        <pt x="450" y="0" on="1"/>
        <pt x="27" y="0" on="1"/>
        <pt x="42" y="51" on="1"/>
      </contour>
    </TTGlyph>
    <TTGlyph name="guilsinglleft" xMin="151" yMin="-15" xMax="504" yMax="471">
      <contour>
        <pt x="215" y="225" on="1"/>
        <pt x="382" y="41" on="1"/>
        <pt x="364" y="-15" on="1"/>
        <pt x="151" y="203" on="1"/>
        <pt x="165" y="254" on="1"/>
        <pt x="504" y="471" on="1"/>
        <pt x="485" y="402" on="1"/>
      </contour>
    </TTGlyph>
    <TTGlyph name="guilsinglright" xMin="110" yMin="-15" xMax="463" yMax="471">
      <contour>
        <pt x="463" y="253" on="1"/>
        <pt x="449" y="202" on="1"/>
        <pt x="110" y="-15" on="1"/>
        <pt x="129" y="54" on="1"/>
        <pt x="399" y="231" on="1"/>
        <pt x="232" y="415" on="1"/>
        <pt x="250" y="471" on="1"/>
      </contour>
    </TTGlyph>
    <TTGlyph name="h" xMin="37" yMin="0" xMax="546" yMax="710">
      <contour>
        <pt x="241" y="710" on="1"/>
        <pt x="300" y="710" on="1"/>
        <pt x="183" y="304" on="1"/>
        <pt x="274" y="397" on="0"/>
        <pt x="378" y="465" on="0"/>
        <pt x="437" y="465" on="1"/>
        <pt x="486" y="465" on="0"/>
        <pt x="546" y="412" on="0"/>
        <pt x="546" y="369" on="1"/>
        <pt x="546" y="357" on="0"/>
        <pt x="538" y="316" on="0"/>
        <pt x="529" y="284" on="1"/>
        <pt x="447" y="0" on="1"/>
        <pt x="388" y="0" on="1"/>
        <pt x="472" y="292" on="1"/>
        <pt x="479" y="316" on="0"/>
        <pt x="485" y="348" on="0"/>
        <pt x="485" y="360" on="1"/>
        <pt x="485" y="385" on="0"/>
        <pt x="452" y="413" on="0"/>
        <pt x="422" y="413" on="1"/>
        <pt x="376" y="413" on="0"/>
        <pt x="272" y="335" on="0"/>
        <pt x="159" y="221" on="1"/>
        <pt x="96" y="0" on="1"/>
        <pt x="37" y="0" on="1"/>
      </contour>
    </TTGlyph>
    <TTGlyph name="hbar" xMin="54" yMin="0" xMax="535" yMax="710">
      <contour>
        <pt x="480" y="583" on="1"/>
        <pt x="466" y="535" on="1"/>
        <pt x="267" y="535" on="1"/>
        <pt x="190" y="269" on="1"/>
        <pt x="281" y="362" on="0"/>
        <pt x="380" y="428" on="0"/>
        <pt x="436" y="428" on="1"/>
        <pt x="480" y="428" on="0"/>
        <pt x="535" y="375" on="0"/>
        <pt x="535" y="332" on="1"/>
        <pt x="535" y="320" on="0"/>
        <pt x="527" y="279" on="0"/>
        <pt x="518" y="247" on="1"/>
        <pt x="448" y="0" on="1"/>
        <pt x="389" y="0" on="1"/>
        <pt x="461" y="255" on="1"/>
        <pt x="468" y="281" on="0"/>
        <pt x="474" y="311" on="0"/>
        <pt x="474" y="323" on="1"/>
        <pt x="474" y="348" on="0"/>
        <pt x="446" y="376" on="0"/>
        <pt x="421" y="376" on="1"/>
        <pt x="378" y="376" on="0"/>
        <pt x="282" y="303" on="0"/>
        <pt x="166" y="186" on="1"/>
        <pt x="113" y="0" on="1"/>
        <pt x="54" y="0" on="1"/>
        <pt x="208" y="535" on="1"/>
        <pt x="121" y="535" on="1"/>
        <pt x="135" y="583" on="1"/>
        <pt x="222" y="583" on="1"/>
        <pt x="258" y="710" on="1"/>
        <pt x="317" y="710" on="1"/>
        <pt x="281" y="583" on="1"/>
      </contour>
    </TTGlyph>
    <TTGlyph name="hcircumflex" xMin="37" yMin="0" xMax="546" yMax="948">
      <component glyphName="h" x="0" y="0" flags="0x204"/>
      <component glyphName="uni0302" x="193" y="207" flags="0x4"/>
    </TTGlyph>
    <TTGlyph name="hungarumlaut" xMin="248" yMin="536" xMax="651" yMax="735">
      <component glyphName="uni030B" x="307" y="0" flags="0x4"/>
    </TTGlyph>
    <TTGlyph name="hyphen" xMin="140" yMin="299" xMax="530" yMax="354">
      <contour>
        <pt x="140" y="299" on="1"/>
        <pt x="156" y="354" on="1"/>
        <pt x="530" y="354" on="1"/>
        <pt x="514" y="299" on="1"/>
      </contour>
    </TTGlyph>
    <TTGlyph name="i" xMin="57" yMin="0" xMax="478" yMax="721">
      <contour>
        <pt x="478" y="675" on="1"/>
        <pt x="478" y="649" on="0"/>
        <pt x="438" y="614" on="0"/>
        <pt x="408" y="614" on="1"/>
        <pt x="382" y="614" on="0"/>
        <pt x="351" y="639" on="0"/>
        <pt x="351" y="661" on="1"/>
        <pt x="351" y="686" on="0"/>
        <pt x="391" y="721" on="0"/>
        <pt x="421" y="721" on="1"/>
        <pt x="449" y="721" on="0"/>
        <pt x="478" y="697" on="0"/>
      </contour>
      <contour>
        <pt x="57" y="0" on="1"/>
        <pt x="71" y="50" on="1"/>
        <pt x="232" y="50" on="1"/>
        <pt x="354" y="410" on="1"/>
        <pt x="195" y="410" on="1"/>
        <pt x="209" y="460" on="1"/>
        <pt x="430" y="460" on="1"/>
        <pt x="291" y="50" on="1"/>
        <pt x="470" y="50" on="1"/>
        <pt x="456" y="0" on="1"/>
      </contour>
    </TTGlyph>
    <TTGlyph name="i.dot" xMin="57" yMin="0" xMax="482" yMax="659">
      <component glyphName="dotlessi" x="0" y="0" flags="0x204"/>
      <component glyphName="uni0307" x="317" y="0" flags="0x4"/>
    </TTGlyph>
    <TTGlyph name="iacute" xMin="57" yMin="0" xMax="607" yMax="741">
      <component glyphName="dotlessi" x="0" y="0" flags="0x204"/>
      <component glyphName="uni0301" x="317" y="0" flags="0x4"/>
    </TTGlyph>
    <TTGlyph name="ibreve" xMin="57" yMin="0" xMax="641" yMax="730">
      <component glyphName="dotlessi" x="0" y="0" flags="0x204"/>
      <component glyphName="uni0306" x="317" y="0" flags="0x4"/>
    </TTGlyph>
    <TTGlyph name="icircumflex" xMin="57" yMin="0" xMax="593" yMax="741">
      <component glyphName="dotlessi" x="0" y="0" flags="0x204"/>
      <component glyphName="uni0302" x="317" y="0" flags="0x4"/>
    </TTGlyph>
    <TTGlyph name="idieresis" xMin="57" yMin="0" xMax="597" yMax="655">
      <component glyphName="dotlessi" x="0" y="0" flags="0x204"/>
      <component glyphName="uni0308" x="317" y="0" flags="0x4"/>
    </TTGlyph>
    <TTGlyph name="igrave" xMin="57" yMin="0" xMax="489" yMax="734">
      <component glyphName="dotlessi" x="0" y="0" flags="0x204"/>
      <component glyphName="uni0300" x="317" y="0" flags="0x4"/>
    </TTGlyph>
    <TTGlyph name="imacron" xMin="57" yMin="0" xMax="595" yMax="626">
      <component glyphName="dotlessi" x="0" y="0" flags="0x204"/>
      <component glyphName="uni0304" x="317" y="0" flags="0x4"/>
    </TTGlyph>
    <TTGlyph name="iogonek" xMin="57" yMin="-235" xMax="478" yMax="721">
      <contour>
        <pt x="478" y="675" on="1"/>
        <pt x="478" y="649" on="0"/>
        <pt x="438" y="614" on="0"/>
        <pt x="408" y="614" on="1"/>
        <pt x="382" y="614" on="0"/>
        <pt x="351" y="639" on="0"/>
        <pt x="351" y="661" on="1"/>
        <pt x="351" y="686" on="0"/>
        <pt x="391" y="721" on="0"/>
        <pt x="421" y="721" on="1"/>
        <pt x="449" y="721" on="0"/>
        <pt x="478" y="697" on="0"/>
      </contour>
      <contour>
        <pt x="57" y="0" on="1"/>
        <pt x="71" y="50" on="1"/>
        <pt x="232" y="50" on="1"/>
        <pt x="354" y="410" on="1"/>
        <pt x="195" y="410" on="1"/>
        <pt x="209" y="460" on="1"/>
        <pt x="430" y="460" on="1"/>
        <pt x="291" y="50" on="1"/>
        <pt x="470" y="50" on="1"/>
        <pt x="456" y="0" on="1"/>
        <pt x="275" y="0" on="1"/>
        <pt x="219" y="-57" on="0"/>
        <pt x="167" y="-131" on="0"/>
        <pt x="167" y="-158" on="1"/>
        <pt x="167" y="-173" on="0"/>
        <pt x="192" y="-186" on="0"/>
        <pt x="223" y="-188" on="1"/>
        <pt x="288" y="-192" on="1"/>
        <pt x="272" y="-235" on="1"/>
        <pt x="197" y="-231" on="1"/>
        <pt x="147" y="-228" on="0"/>
        <pt x="105" y="-201" on="0"/>
        <pt x="105" y="-170" on="1"/>
        <pt x="105" y="-136" on="0"/>
        <pt x="162" y="-64" on="0"/>
        <pt x="234" y="0" on="1"/>
      </contour>
    </TTGlyph>
    <TTGlyph name="itilde" xMin="57" yMin="0" xMax="650" yMax="726">
      <component glyphName="dotlessi" x="0" y="0" flags="0x204"/>
      <component glyphName="uni0303" x="317" y="0" flags="0x4"/>
    </TTGlyph>
    <TTGlyph name="j" xMin="-32" yMin="-239" xMax="531" yMax="721">
      <contour>
        <pt x="531" y="675" on="1"/>
        <pt x="531" y="649" on="0"/>
        <pt x="491" y="614" on="0"/>
        <pt x="461" y="614" on="1"/>
        <pt x="435" y="614" on="0"/>
        <pt x="404" y="639" on="0"/>
        <pt x="404" y="661" on="1"/>
        <pt x="404" y="686" on="0"/>
        <pt x="444" y="721" on="0"/>
        <pt x="474" y="721" on="1"/>
        <pt x="502" y="721" on="0"/>
        <pt x="531" y="697" on="0"/>
      </contour>
      <contour>
        <pt x="464" y="460" on="1"/>
        <pt x="334" y="8" on="1"/>
        <pt x="310" y="-76" on="0"/>
        <pt x="268" y="-157" on="0"/>
        <pt x="240" y="-180" on="1"/>
        <pt x="210" y="-203" on="0"/>
        <pt x="117" y="-228" on="0"/>
        <pt x="36" y="-234" on="1"/>
        <pt x="-32" y="-239" on="1"/>
        <pt x="-32" y="-188" on="1"/>
        <pt x="33" y="-184" on="1"/>
        <pt x="95" y="-180" on="0"/>
        <pt x="173" y="-159" on="0"/>
        <pt x="198" y="-138" on="1"/>
        <pt x="223" y="-119" on="0"/>
        <pt x="259" y="-51" on="0"/>
        <pt x="277" y="13" on="1"/>
        <pt x="391" y="410" on="1"/>
        <pt x="180" y="410" on="1"/>
        <pt x="194" y="460" on="1"/>
      </contour>
    </TTGlyph>
    <TTGlyph name="jcircumflex" xMin="-32" yMin="-239" xMax="643" yMax="741">
      <component glyphName="uni0237" x="0" y="0" flags="0x204"/>
      <component glyphName="uni0302" x="367" y="0" flags="0x4"/>
    </TTGlyph>
    <TTGlyph name="k" xMin="58" yMin="0" xMax="599" yMax="710">
      <contour>
        <pt x="262" y="710" on="1"/>
        <pt x="321" y="710" on="1"/>
        <pt x="190" y="256" on="1"/>
        <pt x="509" y="460" on="1"/>
        <pt x="599" y="460" on="1"/>
        <pt x="599" y="458" on="1"/>
        <pt x="254" y="237" on="1"/>
        <pt x="470" y="2" on="1"/>
        <pt x="470" y="0" on="1"/>
        <pt x="396" y="0" on="1"/>
        <pt x="183" y="230" on="1"/>
        <pt x="117" y="0" on="1"/>
        <pt x="58" y="0" on="1"/>
      </contour>
    </TTGlyph>
    <TTGlyph name="l" xMin="187" yMin="-7" xMax="468" yMax="710">
      <contour>
        <pt x="206" y="119" on="1"/>
        <pt x="206" y="145" on="0"/>
        <pt x="219" y="203" on="0"/>
        <pt x="234" y="244" on="1"/>
        <pt x="386" y="660" on="1"/>
        <pt x="187" y="660" on="1"/>
        <pt x="202" y="710" on="1"/>
        <pt x="463" y="710" on="1"/>
        <pt x="291" y="236" on="1"/>
        <pt x="278" y="200" on="0"/>
        <pt x="267" y="151" on="0"/>
        <pt x="267" y="127" on="1"/>
        <pt x="267" y="86" on="0"/>
        <pt x="306" y="50" on="0"/>
        <pt x="352" y="48" on="1"/>
        <pt x="468" y="44" on="1"/>
        <pt x="453" y="-7" on="1"/>
        <pt x="345" y="-4" on="1"/>
        <pt x="274" y="-2" on="0"/>
        <pt x="206" y="59" on="0"/>
      </contour>
    </TTGlyph>
    <TTGlyph name="lacute" xMin="187" yMin="-7" xMax="634" yMax="991">
      <component glyphName="l" x="0" y="0" flags="0x204"/>
      <component glyphName="uni0301" x="344" y="250" flags="0x4"/>
    </TTGlyph>
    <TTGlyph name="lcaron" xMin="187" yMin="-7" xMax="703" yMax="787">
      <component glyphName="l" x="0" y="0" flags="0x204"/>
      <component glyphName="uni0315" x="495" y="77" flags="0x4"/>
    </TTGlyph>
    <TTGlyph name="ldot" xMin="187" yMin="-7" xMax="706" yMax="710">
      <component glyphName="l" x="0" y="0" flags="0x204"/>
      <component glyphName="middotcat" x="312" y="0" flags="0x4"/>
    </TTGlyph>
    <TTGlyph name="less" xMin="92" yMin="91" xMax="628" yMax="552">
      <contour>
        <pt x="92" y="294" on="1"/>
        <pt x="107" y="349" on="1"/>
        <pt x="628" y="552" on="1"/>
        <pt x="612" y="493" on="1"/>
        <pt x="149" y="317" on="1"/>
        <pt x="511" y="142" on="1"/>
        <pt x="496" y="91" on="1"/>
      </contour>
    </TTGlyph>
    <TTGlyph name="lessequal" xMin="27" yMin="0" xMax="641" yMax="670">
      <contour>
        <pt x="145" y="412" on="1"/>
        <pt x="160" y="467" on="1"/>
        <pt x="641" y="670" on="1"/>
        <pt x="625" y="611" on="1"/>
        <pt x="198" y="435" on="1"/>
        <pt x="524" y="260" on="1"/>
        <pt x="509" y="209" on="1"/>
      </contour>
      <contour>
        <pt x="450" y="0" on="1"/>
        <pt x="27" y="0" on="1"/>
        <pt x="42" y="51" on="1"/>
        <pt x="465" y="51" on="1"/>
      </contour>
    </TTGlyph>
    <TTGlyph name="lslash" xMin="99" yMin="-7" xMax="537" yMax="710">
      <contour>
        <pt x="267" y="335" on="1"/>
        <pt x="99" y="262" on="1"/>
        <pt x="115" y="317" on="1"/>
        <pt x="288" y="392" on="1"/>
        <pt x="386" y="660" on="1"/>
        <pt x="187" y="660" on="1"/>
        <pt x="202" y="710" on="1"/>
        <pt x="463" y="710" on="1"/>
        <pt x="355" y="413" on="1"/>
        <pt x="537" y="492" on="1"/>
        <pt x="521" y="437" on="1"/>
        <pt x="334" y="356" on="1"/>
        <pt x="291" y="236" on="1"/>
        <pt x="278" y="200" on="0"/>
        <pt x="267" y="151" on="0"/>
        <pt x="267" y="127" on="1"/>
        <pt x="267" y="86" on="0"/>
        <pt x="306" y="50" on="0"/>
        <pt x="352" y="48" on="1"/>
        <pt x="468" y="44" on="1"/>
        <pt x="453" y="-7" on="1"/>
        <pt x="345" y="-4" on="1"/>
        <pt x="274" y="-2" on="0"/>
        <pt x="206" y="59" on="0"/>
        <pt x="206" y="119" on="1"/>
        <pt x="206" y="145" on="0"/>
        <pt x="219" y="203" on="0"/>
        <pt x="234" y="244" on="1"/>
      </contour>
    </TTGlyph>
    <TTGlyph name="m" xMin="-8" yMin="0" xMax="602" yMax="465">
      <contour>
        <pt x="124" y="460" on="1"/>
        <pt x="173" y="460" on="1"/>
        <pt x="142" y="325" on="1"/>
        <pt x="144" y="325" on="1"/>
        <pt x="196" y="397" on="0"/>
        <pt x="278" y="465" on="0"/>
        <pt x="315" y="465" on="1"/>
        <pt x="346" y="465" on="0"/>
        <pt x="382" y="431" on="0"/>
        <pt x="382" y="403" on="1"/>
        <pt x="382" y="396" on="0"/>
        <pt x="380" y="382" on="0"/>
        <pt x="377" y="372" on="1"/>
        <pt x="365" y="330" on="1"/>
        <pt x="367" y="330" on="1"/>
        <pt x="420" y="401" on="0"/>
        <pt x="499" y="465" on="0"/>
        <pt x="535" y="465" on="1"/>
        <pt x="566" y="465" on="0"/>
        <pt x="602" y="431" on="0"/>
        <pt x="602" y="403" on="1"/>
        <pt x="602" y="396" on="0"/>
        <pt x="600" y="382" on="0"/>
        <pt x="597" y="372" on="1"/>
        <pt x="490" y="0" on="1"/>
        <pt x="432" y="0" on="1"/>
        <pt x="533" y="354" on="1"/>
        <pt x="538" y="371" on="0"/>
        <pt x="541" y="386" on="0"/>
        <pt x="541" y="391" on="1"/>
        <pt x="541" y="403" on="0"/>
        <pt x="528" y="415" on="0"/>
        <pt x="515" y="415" on="1"/>
        <pt x="491" y="415" on="0"/>
        <pt x="414" y="339" on="0"/>
        <pt x="342" y="249" on="1"/>
        <pt x="270" y="0" on="1"/>
        <pt x="212" y="0" on="1"/>
        <pt x="313" y="354" on="1"/>
        <pt x="318" y="371" on="0"/>
        <pt x="321" y="386" on="0"/>
        <pt x="321" y="391" on="1"/>
        <pt x="321" y="403" on="0"/>
        <pt x="308" y="415" on="0"/>
        <pt x="295" y="415" on="1"/>
        <pt x="271" y="415" on="0"/>
        <pt x="194" y="339" on="0"/>
        <pt x="121" y="249" on="1"/>
        <pt x="50" y="0" on="1"/>
        <pt x="-8" y="0" on="1"/>
      </contour>
    </TTGlyph>
    <TTGlyph name="macron" xMin="242" yMin="576" xMax="585" yMax="626">
      <component glyphName="uni0304" x="307" y="0" flags="0x4"/>
    </TTGlyph>
    <TTGlyph name="middotcat" xMin="244" yMin="288" xMax="394" yMax="425">
      <contour>
        <pt x="394" y="376" on="1"/>
        <pt x="394" y="338" on="0"/>
        <pt x="345" y="288" on="0"/>
        <pt x="307" y="288" on="1"/>
        <pt x="277" y="288" on="0"/>
        <pt x="244" y="314" on="0"/>
        <pt x="244" y="337" on="1"/>
        <pt x="244" y="374" on="0"/>
        <pt x="295" y="425" on="0"/>
        <pt x="332" y="425" on="1"/>
        <pt x="362" y="425" on="0"/>
        <pt x="394" y="399" on="0"/>
      </contour>
    </TTGlyph>
    <TTGlyph name="middotcat.cap" xMin="194" yMin="288" xMax="344" yMax="425">
      <contour>
        <pt x="344" y="376" on="1"/>
        <pt x="344" y="338" on="0"/>
        <pt x="295" y="288" on="0"/>
        <pt x="257" y="288" on="1"/>
        <pt x="227" y="288" on="0"/>
        <pt x="194" y="314" on="0"/>
        <pt x="194" y="337" on="1"/>
        <pt x="194" y="374" on="0"/>
        <pt x="245" y="425" on="0"/>
        <pt x="282" y="425" on="1"/>
        <pt x="312" y="425" on="0"/>
        <pt x="344" y="399" on="0"/>
      </contour>
    </TTGlyph>
    <TTGlyph name="minus" xMin="93" yMin="301" xMax="576" yMax="352">
      <contour>
        <pt x="561" y="301" on="1"/>
        <pt x="93" y="301" on="1"/>
        <pt x="108" y="352" on="1"/>
        <pt x="576" y="352" on="1"/>
      </contour>
    </TTGlyph>
    <TTGlyph name="mu" xMin="-31" yMin="-230" xMax="577" yMax="460">
      <contour>
        <pt x="183" y="-6" on="1"/>
        <pt x="151" y="-6" on="0"/>
        <pt x="107" y="22" on="0"/>
        <pt x="98" y="48" on="1"/>
        <pt x="32" y="-217" on="1"/>
        <pt x="28" y="-230" on="1"/>
        <pt x="-31" y="-230" on="1"/>
        <pt x="167" y="460" on="1"/>
        <pt x="226" y="460" on="1"/>
        <pt x="136" y="147" on="1"/>
        <pt x="132" y="135" on="0"/>
        <pt x="129" y="113" on="0"/>
        <pt x="129" y="103" on="1"/>
        <pt x="129" y="75" on="0"/>
        <pt x="164" y="47" on="0"/>
        <pt x="200" y="47" on="1"/>
        <pt x="242" y="47" on="0"/>
        <pt x="339" y="121" on="0"/>
        <pt x="455" y="239" on="1"/>
        <pt x="518" y="460" on="1"/>
        <pt x="577" y="460" on="1"/>
        <pt x="445" y="0" on="1"/>
        <pt x="386" y="0" on="1"/>
        <pt x="431" y="156" on="1"/>
        <pt x="336" y="59" on="0"/>
        <pt x="239" y="-6" on="0"/>
      </contour>
    </TTGlyph>
    <TTGlyph name="multiply" xMin="85" yMin="117" xMax="583" yMax="529">
      <contour>
        <pt x="327" y="288" on="1"/>
        <pt x="115" y="123" on="1"/>
        <pt x="85" y="166" on="1"/>
        <pt x="297" y="331" on="1"/>
        <pt x="179" y="497" on="1"/>
        <pt x="225" y="528" on="1"/>
        <pt x="340" y="365" on="1"/>
        <pt x="550" y="529" on="1"/>
        <pt x="583" y="488" on="1"/>
        <pt x="371" y="323" on="1"/>
        <pt x="494" y="151" on="1"/>
        <pt x="449" y="117" on="1"/>
      </contour>
    </TTGlyph>
    <TTGlyph name="n" xMin="37" yMin="0" xMax="546" yMax="465">
      <contour>
        <pt x="169" y="460" on="1"/>
        <pt x="228" y="460" on="1"/>
        <pt x="183" y="304" on="1"/>
        <pt x="275" y="398" on="0"/>
        <pt x="377" y="465" on="0"/>
        <pt x="437" y="465" on="1"/>
        <pt x="486" y="465" on="0"/>
        <pt x="546" y="412" on="0"/>
        <pt x="546" y="369" on="1"/>
        <pt x="546" y="357" on="0"/>
        <pt x="538" y="316" on="0"/>
        <pt x="529" y="284" on="1"/>
        <pt x="447" y="0" on="1"/>
        <pt x="388" y="0" on="1"/>
        <pt x="472" y="292" on="1"/>
        <pt x="479" y="316" on="0"/>
        <pt x="485" y="348" on="0"/>
        <pt x="485" y="360" on="1"/>
        <pt x="485" y="385" on="0"/>
        <pt x="452" y="413" on="0"/>
        <pt x="422" y="413" on="1"/>
        <pt x="376" y="413" on="0"/>
        <pt x="272" y="334" on="0"/>
        <pt x="159" y="220" on="1"/>
        <pt x="96" y="0" on="1"/>
        <pt x="37" y="0" on="1"/>
      </contour>
    </TTGlyph>
    <TTGlyph name="nacute" xMin="37" yMin="0" xMax="595" yMax="741">
      <component glyphName="n" x="0" y="0" flags="0x204"/>
      <component glyphName="uni0301" x="305" y="0" flags="0x4"/>
    </TTGlyph>
    <TTGlyph name="ncaron" xMin="37" yMin="0" xMax="628" yMax="741">
      <component glyphName="n" x="0" y="0" flags="0x204"/>
      <component glyphName="uni030C" x="305" y="0" flags="0x4"/>
    </TTGlyph>
    <TTGlyph name="nine" xMin="112" yMin="-1" xMax="603" yMax="669">
      <contour>
        <pt x="112" y="1" on="1"/>
        <pt x="287" y="124" on="1"/>
        <pt x="324" y="150" on="0"/>
        <pt x="386" y="200" on="0"/>
        <pt x="411" y="224" on="1"/>
        <pt x="277" y="230" on="0"/>
        <pt x="144" y="320" on="0"/>
        <pt x="144" y="405" on="1"/>
        <pt x="144" y="507" on="0"/>
        <pt x="314" y="669" on="0"/>
        <pt x="424" y="669" on="1"/>
        <pt x="507" y="669" on="0"/>
        <pt x="603" y="574" on="0"/>
        <pt x="603" y="489" on="1"/>
        <pt x="603" y="390" on="0"/>
        <pt x="468" y="194" on="0"/>
        <pt x="332" y="97" on="1"/>
        <pt x="195" y="-1" on="1"/>
        <pt x="112" y="-1" on="1"/>
      </contour>
      <contour>
        <pt x="423" y="618" on="1"/>
        <pt x="338" y="618" on="0"/>
        <pt x="204" y="485" on="0"/>
        <pt x="204" y="407" on="1"/>
        <pt x="204" y="336" on="0"/>
        <pt x="316" y="270" on="0"/>
        <pt x="448" y="263" on="1"/>
        <pt x="496" y="318" on="0"/>
        <pt x="543" y="430" on="0"/>
        <pt x="543" y="492" on="1"/>
        <pt x="543" y="551" on="0"/>
        <pt x="479" y="618" on="0"/>
      </contour>
    </TTGlyph>
    <TTGlyph name="nine.den" xMin="151" yMin="0" xMax="459" yMax="395">
      <contour>
        <pt x="151" y="1" on="1"/>
        <pt x="251" y="77" on="1"/>
        <pt x="271" y="92" on="0"/>
        <pt x="304" y="120" on="0"/>
        <pt x="318" y="132" on="1"/>
        <pt x="239" y="140" on="0"/>
        <pt x="165" y="193" on="0"/>
        <pt x="165" y="241" on="1"/>
        <pt x="165" y="302" on="0"/>
        <pt x="267" y="395" on="0"/>
        <pt x="338" y="395" on="1"/>
        <pt x="395" y="395" on="0"/>
        <pt x="459" y="339" on="0"/>
        <pt x="459" y="288" on="1"/>
        <pt x="459" y="235" on="0"/>
        <pt x="383" y="129" on="0"/>
        <pt x="295" y="60" on="1"/>
        <pt x="218" y="0" on="1"/>
        <pt x="151" y="0" on="1"/>
      </contour>
      <contour>
        <pt x="335" y="353" on="1"/>
        <pt x="287" y="353" on="0"/>
        <pt x="215" y="286" on="0"/>
        <pt x="215" y="244" on="1"/>
        <pt x="215" y="207" on="0"/>
        <pt x="276" y="170" on="0"/>
        <pt x="349" y="163" on="1"/>
        <pt x="380" y="196" on="0"/>
        <pt x="409" y="255" on="0"/>
        <pt x="409" y="286" on="1"/>
        <pt x="409" y="318" on="0"/>
        <pt x="370" y="353" on="0"/>
      </contour>
    </TTGlyph>
    <TTGlyph name="nine.inf" xMin="86" yMin="-230" xMax="394" yMax="165">
      <component glyphName="nine.den" x="-65" y="-230" flags="0x4"/>
    </TTGlyph>
    <TTGlyph name="nine.num" xMin="229" yMin="275" xMax="537" yMax="670">
      <component glyphName="nine.den" x="78" y="275" flags="0x4"/>
    </TTGlyph>
    <TTGlyph name="nine.sup" xMin="245" yMin="330" xMax="553" yMax="725">
      <component glyphName="nine.den" x="94" y="330" flags="0x4"/>
    </TTGlyph>
    <TTGlyph name="notequal" xMin="81" yMin="73" xMax="610" yMax="596">
      <contour>
        <pt x="204" y="209" on="1"/>
        <pt x="82" y="209" on="1"/>
        <pt x="97" y="261" on="1"/>
        <pt x="251" y="261" on="1"/>
        <pt x="321" y="338" on="1"/>
        <pt x="368" y="392" on="1"/>
        <pt x="134" y="392" on="1"/>
        <pt x="149" y="443" on="1"/>
        <pt x="413" y="443" on="1"/>
        <pt x="546" y="596" on="1"/>
        <pt x="610" y="596" on="1"/>
        <pt x="472" y="443" on="1"/>
        <pt x="587" y="443" on="1"/>
        <pt x="572" y="392" on="1"/>
        <pt x="426" y="392" on="1"/>
        <pt x="376" y="337" on="1"/>
        <pt x="310" y="261" on="1"/>
        <pt x="535" y="261" on="1"/>
        <pt x="520" y="209" on="1"/>
        <pt x="264" y="209" on="1"/>
        <pt x="145" y="73" on="1"/>
        <pt x="81" y="73" on="1"/>
      </contour>
    </TTGlyph>
    <TTGlyph name="ntilde" xMin="37" yMin="0" xMax="638" yMax="726">
      <component glyphName="n" x="0" y="0" flags="0x204"/>
      <component glyphName="uni0303" x="305" y="0" flags="0x4"/>
    </TTGlyph>
    <TTGlyph name="numbersign" xMin="45" yMin="-12" xMax="624" yMax="666">
      <contour>
        <pt x="155" y="186" on="1"/>
        <pt x="45" y="186" on="1"/>
        <pt x="45" y="236" on="1"/>
        <pt x="176" y="236" on="1"/>
        <pt x="252" y="424" on="1"/>
        <pt x="126" y="424" on="1"/>
        <pt x="126" y="475" on="1"/>
        <pt x="273" y="475" on="1"/>
        <pt x="350" y="666" on="1"/>
        <pt x="401" y="666" on="1"/>
        <pt x="322" y="471" on="1"/>
        <pt x="464" y="471" on="1"/>
        <pt x="544" y="666" on="1"/>
        <pt x="595" y="666" on="1"/>
        <pt x="518" y="475" on="1"/>
        <pt x="624" y="475" on="1"/>
        <pt x="624" y="424" on="1"/>
        <pt x="497" y="424" on="1"/>
        <pt x="421" y="236" on="1"/>
        <pt x="544" y="236" on="1"/>
        <pt x="544" y="186" on="1"/>
        <pt x="400" y="186" on="1"/>
        <pt x="320" y="-12" on="1"/>
        <pt x="268" y="-12" on="1"/>
        <pt x="351" y="190" on="1"/>
        <pt x="207" y="190" on="1"/>
        <pt x="125" y="-12" on="1"/>
        <pt x="75" y="-12" on="1"/>
      </contour>
      <contour>
        <pt x="224" y="232" on="1"/>
        <pt x="368" y="232" on="1"/>
        <pt x="447" y="428" on="1"/>
        <pt x="304" y="428" on="1"/>
      </contour>
    </TTGlyph>
    <TTGlyph name="o" xMin="58" yMin="-15" xMax="556" yMax="475">
      <contour>
        <pt x="58" y="187" on="1"/>
        <pt x="58" y="243" on="0"/>
        <pt x="105" y="351" on="0"/>
        <pt x="147" y="392" on="1"/>
        <pt x="189" y="432" on="0"/>
        <pt x="296" y="475" on="0"/>
        <pt x="356" y="475" on="1"/>
        <pt x="446" y="475" on="0"/>
        <pt x="556" y="362" on="0"/>
        <pt x="556" y="273" on="1"/>
        <pt x="556" y="217" on="0"/>
        <pt x="509" y="109" on="0"/>
        <pt x="467" y="68" on="1"/>
        <pt x="425" y="28" on="0"/>
        <pt x="318" y="-15" on="0"/>
        <pt x="258" y="-15" on="1"/>
        <pt x="168" y="-15" on="0"/>
        <pt x="58" y="98" on="0"/>
      </contour>
      <contour>
        <pt x="118" y="185" on="1"/>
        <pt x="118" y="119" on="0"/>
        <pt x="200" y="34" on="0"/>
        <pt x="263" y="34" on="1"/>
        <pt x="356" y="34" on="0"/>
        <pt x="496" y="179" on="0"/>
        <pt x="496" y="275" on="1"/>
        <pt x="496" y="341" on="0"/>
        <pt x="414" y="426" on="0"/>
        <pt x="351" y="426" on="1"/>
        <pt x="258" y="426" on="0"/>
        <pt x="118" y="281" on="0"/>
      </contour>
    </TTGlyph>
    <TTGlyph name="oacute" xMin="58" yMin="-15" xMax="588" yMax="746">
      <component glyphName="o" x="0" y="0" flags="0x204"/>
      <component glyphName="uni0301" x="298" y="5" flags="0x4"/>
    </TTGlyph>
    <TTGlyph name="obreve" xMin="58" yMin="-15" xMax="622" yMax="735">
      <component glyphName="o" x="0" y="0" flags="0x204"/>
      <component glyphName="uni0306" x="298" y="5" flags="0x4"/>
    </TTGlyph>
    <TTGlyph name="ocircumflex" xMin="58" yMin="-15" xMax="573" yMax="741">
      <component glyphName="o" x="0" y="0" flags="0x204"/>
      <component glyphName="uni0302" x="297" y="0" flags="0x4"/>
    </TTGlyph>
    <TTGlyph name="odieresis" xMin="58" yMin="-15" xMax="578" yMax="660">
      <component glyphName="o" x="0" y="0" flags="0x204"/>
      <component glyphName="uni0308" x="298" y="5" flags="0x4"/>
    </TTGlyph>
    <TTGlyph name="oe" xMin="14" yMin="-15" xMax="610" yMax="475">
      <contour>
        <pt x="276" y="94" on="1"/>
        <pt x="243" y="41" on="0"/>
        <pt x="162" y="-15" on="0"/>
        <pt x="118" y="-15" on="1"/>
        <pt x="69" y="-15" on="0"/>
        <pt x="14" y="60" on="0"/>
        <pt x="14" y="126" on="1"/>
        <pt x="14" y="205" on="0"/>
        <pt x="76" y="367" on="0"/>
        <pt x="127" y="418" on="1"/>
        <pt x="155" y="446" on="0"/>
        <pt x="217" y="475" on="0"/>
        <pt x="250" y="475" on="1"/>
        <pt x="293" y="475" on="0"/>
        <pt x="343" y="417" on="0"/>
        <pt x="347" y="362" on="1"/>
        <pt x="380" y="416" on="0"/>
        <pt x="464" y="475" on="0"/>
        <pt x="507" y="475" on="1"/>
        <pt x="555" y="475" on="0"/>
        <pt x="610" y="421" on="0"/>
        <pt x="610" y="374" on="1"/>
        <pt x="610" y="302" on="0"/>
        <pt x="479" y="231" on="0"/>
        <pt x="335" y="217" on="1"/>
        <pt x="330" y="200" on="0"/>
        <pt x="325" y="165" on="0"/>
        <pt x="325" y="148" on="1"/>
        <pt x="325" y="88" on="0"/>
        <pt x="389" y="44" on="0"/>
        <pt x="475" y="44" on="1"/>
        <pt x="459" y="-5" on="1"/>
        <pt x="370" y="-5" on="0"/>
        <pt x="287" y="40" on="0"/>
      </contour>
      <contour>
        <pt x="548" y="373" on="1"/>
        <pt x="548" y="398" on="0"/>
        <pt x="522" y="425" on="0"/>
        <pt x="498" y="425" on="1"/>
        <pt x="459" y="425" on="0"/>
        <pt x="376" y="332" on="0"/>
        <pt x="349" y="262" on="1"/>
        <pt x="448" y="273" on="0"/>
        <pt x="548" y="328" on="0"/>
      </contour>
      <contour>
        <pt x="175" y="388" on="1"/>
        <pt x="133" y="346" on="0"/>
        <pt x="75" y="192" on="0"/>
        <pt x="75" y="125" on="1"/>
        <pt x="75" y="82" on="0"/>
        <pt x="106" y="35" on="0"/>
        <pt x="134" y="35" on="1"/>
        <pt x="151" y="35" on="0"/>
        <pt x="185" y="52" on="0"/>
        <pt x="203" y="70" on="1"/>
        <pt x="246" y="113" on="0"/>
        <pt x="304" y="265" on="0"/>
        <pt x="304" y="333" on="1"/>
        <pt x="304" y="376" on="0"/>
        <pt x="274" y="425" on="0"/>
        <pt x="246" y="425" on="1"/>
        <pt x="229" y="425" on="0"/>
        <pt x="193" y="406" on="0"/>
      </contour>
    </TTGlyph>
    <TTGlyph name="ogonek" xMin="90" yMin="-235" xMax="273" yMax="26">
      <component glyphName="uni0328" x="307" y="0" flags="0x4"/>
    </TTGlyph>
    <TTGlyph name="ograve" xMin="58" yMin="-15" xMax="556" yMax="739">
      <component glyphName="o" x="0" y="0" flags="0x204"/>
      <component glyphName="uni0300" x="298" y="5" flags="0x4"/>
    </TTGlyph>
    <TTGlyph name="ohorn" xMin="58" yMin="-15" xMax="664" yMax="572">
      <contour>
        <pt x="58" y="180" on="1"/>
        <pt x="58" y="235" on="0"/>
        <pt x="106" y="340" on="0"/>
        <pt x="150" y="380" on="1"/>
        <pt x="191" y="419" on="0"/>
        <pt x="298" y="460" on="0"/>
        <pt x="358" y="460" on="1"/>
        <pt x="474" y="460" on="1"/>
        <pt x="532" y="460" on="0"/>
        <pt x="582" y="501" on="0"/>
        <pt x="606" y="572" on="1"/>
        <pt x="664" y="572" on="1"/>
        <pt x="635" y="480" on="0"/>
        <pt x="568" y="418" on="0"/>
        <pt x="495" y="418" on="1"/>
        <pt x="491" y="418" on="0"/>
        <pt x="485" y="418" on="0"/>
        <pt x="481" y="418" on="1"/>
        <pt x="477" y="412" on="1"/>
        <pt x="517" y="381" on="0"/>
        <pt x="556" y="309" on="0"/>
        <pt x="556" y="266" on="1"/>
        <pt x="556" y="211" on="0"/>
        <pt x="509" y="105" on="0"/>
        <pt x="466" y="65" on="1"/>
        <pt x="424" y="26" on="0"/>
        <pt x="318" y="-15" on="0"/>
        <pt x="258" y="-15" on="1"/>
        <pt x="168" y="-15" on="0"/>
        <pt x="58" y="94" on="0"/>
      </contour>
      <contour>
        <pt x="118" y="178" on="1"/>
        <pt x="118" y="115" on="0"/>
        <pt x="200" y="34" on="0"/>
        <pt x="263" y="34" on="1"/>
        <pt x="356" y="34" on="0"/>
        <pt x="496" y="175" on="0"/>
        <pt x="496" y="268" on="1"/>
        <pt x="496" y="330" on="0"/>
        <pt x="415" y="411" on="0"/>
        <pt x="353" y="411" on="1"/>
        <pt x="259" y="411" on="0"/>
        <pt x="118" y="271" on="0"/>
      </contour>
    </TTGlyph>
    <TTGlyph name="ohungarumlaut" xMin="58" yMin="-15" xMax="642" yMax="740">
      <component glyphName="o" x="0" y="0" flags="0x204"/>
      <component glyphName="uni030B" x="298" y="5" flags="0x4"/>
    </TTGlyph>
    <TTGlyph name="omacron" xMin="58" yMin="-15" xMax="576" yMax="631">
      <component glyphName="o" x="0" y="0" flags="0x204"/>
      <component glyphName="uni0304" x="298" y="5" flags="0x4"/>
    </TTGlyph>
    <TTGlyph name="one" xMin="57" yMin="0" xMax="509" yMax="664">
      <contour>
        <pt x="460" y="0" on="1"/>
        <pt x="57" y="0" on="1"/>
        <pt x="72" y="51" on="1"/>
        <pt x="224" y="51" on="1"/>
        <pt x="419" y="578" on="1"/>
        <pt x="226" y="483" on="1"/>
        <pt x="245" y="546" on="1"/>
        <pt x="486" y="664" on="1"/>
        <pt x="509" y="664" on="1"/>
        <pt x="285" y="51" on="1"/>
        <pt x="475" y="51" on="1"/>
      </contour>
    </TTGlyph>
    <TTGlyph name="one.den" xMin="121" yMin="0" xMax="403" yMax="380">
      <contour>
        <pt x="381" y="0" on="1"/>
        <pt x="121" y="0" on="1"/>
        <pt x="133" y="42" on="1"/>
        <pt x="231" y="42" on="1"/>
        <pt x="328" y="310" on="1"/>
        <pt x="211" y="258" on="1"/>
        <pt x="225" y="310" on="1"/>
        <pt x="384" y="380" on="1"/>
        <pt x="403" y="380" on="1"/>
        <pt x="281" y="42" on="1"/>
        <pt x="393" y="42" on="1"/>
      </contour>
    </TTGlyph>
    <TTGlyph name="one.inf" xMin="56" yMin="-230" xMax="338" yMax="150">
      <component glyphName="one.den" x="-65" y="-230" flags="0x4"/>
    </TTGlyph>
    <TTGlyph name="one.num" xMin="199" yMin="275" xMax="481" yMax="655">
      <component glyphName="one.den" x="78" y="275" flags="0x4"/>
    </TTGlyph>
    <TTGlyph name="one.sup" xMin="215" yMin="330" xMax="497" yMax="710">
      <component glyphName="one.den" x="94" y="330" flags="0x4"/>
    </TTGlyph>
    <TTGlyph name="oneeighth" xMin="0" yMin="-244" xMax="614" yMax="655">
      <component glyphName="eight.den" x="124" y="-230" flags="0x4"/>
      <component glyphName="fracbar" x="0" y="0" flags="0x204"/>
      <component glyphName="one.den" x="-95" y="275" flags="0x4"/>
    </TTGlyph>
    <TTGlyph name="onefifth" xMin="0" yMin="-239" xMax="614" yMax="655">
      <component glyphName="five.den" x="134" y="-230" flags="0x4"/>
      <component glyphName="fracbar" x="0" y="0" flags="0x204"/>
      <component glyphName="one.den" x="-95" y="275" flags="0x4"/>
    </TTGlyph>
    <TTGlyph name="onehalf" xMin="0" yMin="-230" xMax="614" yMax="655">
      <component glyphName="one.den" x="-95" y="275" flags="0x4"/>
      <component glyphName="two.den" x="114" y="-230" flags="0x4"/>
      <component glyphName="fracbar" x="0" y="0" flags="0x204"/>
    </TTGlyph>
    <TTGlyph name="onequarter" xMin="0" yMin="-230" xMax="614" yMax="655">
      <component glyphName="four.den" x="84" y="-230" flags="0x4"/>
      <component glyphName="fracbar" x="0" y="0" flags="0x204"/>
      <component glyphName="one.den" x="-95" y="275" flags="0x4"/>
    </TTGlyph>
    <TTGlyph name="onesixth" xMin="0" yMin="-245" xMax="614" yMax="655">
      <component glyphName="six.den" x="94" y="-230" flags="0x4"/>
      <component glyphName="fracbar" x="0" y="0" flags="0x204"/>
      <component glyphName="one.den" x="-95" y="275" flags="0x4"/>
    </TTGlyph>
    <TTGlyph name="onethird" xMin="0" yMin="-240" xMax="628" yMax="655">
      <component glyphName="three.den" x="157" y="-230" flags="0x4"/>
      <component glyphName="fracbar" x="0" y="0" flags="0x204"/>
      <component glyphName="one.den" x="-95" y="275" flags="0x4"/>
    </TTGlyph>
    <TTGlyph name="ordfeminine" xMin="114" yMin="187" xMax="553" yMax="692">
      <contour>
        <pt x="546" y="578" on="1"/>
        <pt x="492" y="409" on="1"/>
        <pt x="490" y="402" on="0"/>
        <pt x="488" y="391" on="0"/>
        <pt x="488" y="387" on="1"/>
        <pt x="488" y="379" on="0"/>
        <pt x="498" y="371" on="0"/>
        <pt x="514" y="368" on="1"/>
        <pt x="548" y="363" on="1"/>
        <pt x="537" y="327" on="1"/>
        <pt x="494" y="331" on="1"/>
        <pt x="467" y="334" on="0"/>
        <pt x="439" y="358" on="0"/>
        <pt x="435" y="384" on="1"/>
        <pt x="431" y="384" on="1"/>
        <pt x="376" y="352" on="0"/>
        <pt x="294" y="325" on="0"/>
        <pt x="251" y="325" on="1"/>
        <pt x="207" y="325" on="0"/>
        <pt x="162" y="360" on="0"/>
        <pt x="162" y="395" on="1"/>
        <pt x="162" y="423" on="0"/>
        <pt x="181" y="473" on="0"/>
        <pt x="199" y="491" on="1"/>
        <pt x="219" y="511" on="0"/>
        <pt x="290" y="530" on="0"/>
        <pt x="367" y="537" on="1"/>
        <pt x="485" y="547" on="1"/>
        <pt x="498" y="591" on="0"/>
        <pt x="500" y="602" on="0"/>
        <pt x="500" y="607" on="1"/>
        <pt x="500" y="629" on="0"/>
        <pt x="455" y="648" on="0"/>
        <pt x="405" y="648" on="1"/>
        <pt x="376" y="648" on="0"/>
        <pt x="295" y="640" on="0"/>
        <pt x="253" y="632" on="1"/>
        <pt x="266" y="679" on="1"/>
        <pt x="314" y="686" on="0"/>
        <pt x="382" y="692" on="0"/>
        <pt x="419" y="692" on="1"/>
        <pt x="486" y="692" on="0"/>
        <pt x="553" y="655" on="0"/>
        <pt x="553" y="617" on="1"/>
        <pt x="553" y="608" on="0"/>
        <pt x="550" y="589" on="0"/>
      </contour>
      <contour>
        <pt x="216" y="408" on="1"/>
        <pt x="216" y="387" on="0"/>
        <pt x="241" y="370" on="0"/>
        <pt x="269" y="370" on="1"/>
        <pt x="312" y="370" on="0"/>
        <pt x="402" y="399" on="0"/>
        <pt x="448" y="428" on="1"/>
        <pt x="473" y="508" on="1"/>
        <pt x="375" y="499" on="1"/>
        <pt x="305" y="492" on="0"/>
        <pt x="250" y="479" on="0"/>
        <pt x="240" y="469" on="1"/>
        <pt x="230" y="459" on="0"/>
        <pt x="216" y="424" on="0"/>
      </contour>
      <contour>
        <pt x="114" y="187" on="1"/>
        <pt x="127" y="234" on="1"/>
        <pt x="506" y="234" on="1"/>
        <pt x="493" y="187" on="1"/>
      </contour>
    </TTGlyph>
    <TTGlyph name="ordmasculine" xMin="114" yMin="187" xMax="582" yMax="692">
      <contour>
        <pt x="192" y="471" on="1"/>
        <pt x="192" y="562" on="0"/>
        <pt x="327" y="692" on="0"/>
        <pt x="417" y="692" on="1"/>
        <pt x="490" y="692" on="0"/>
        <pt x="582" y="610" on="0"/>
        <pt x="582" y="543" on="1"/>
        <pt x="582" y="452" on="0"/>
        <pt x="447" y="322" on="0"/>
        <pt x="357" y="322" on="1"/>
        <pt x="284" y="322" on="0"/>
        <pt x="192" y="404" on="0"/>
      </contour>
      <contour>
        <pt x="242" y="474" on="1"/>
        <pt x="242" y="426" on="0"/>
        <pt x="304" y="367" on="0"/>
        <pt x="357" y="367" on="1"/>
        <pt x="426" y="367" on="0"/>
        <pt x="532" y="469" on="0"/>
        <pt x="532" y="540" on="1"/>
        <pt x="532" y="588" on="0"/>
        <pt x="470" y="647" on="0"/>
        <pt x="417" y="647" on="1"/>
        <pt x="348" y="647" on="0"/>
        <pt x="242" y="545" on="0"/>
      </contour>
      <contour>
        <pt x="114" y="187" on="1"/>
        <pt x="127" y="234" on="1"/>
        <pt x="492" y="234" on="1"/>
        <pt x="479" y="187" on="1"/>
      </contour>
    </TTGlyph>
    <TTGlyph name="oslash" xMin="-43" yMin="-71" xMax="657" yMax="531">
      <contour>
        <pt x="147" y="392" on="1"/>
        <pt x="189" y="432" on="0"/>
        <pt x="296" y="475" on="0"/>
        <pt x="356" y="475" on="1"/>
        <pt x="393" y="475" on="0"/>
        <pt x="458" y="453" on="0"/>
        <pt x="484" y="432" on="1"/>
        <pt x="582" y="531" on="1"/>
        <pt x="657" y="531" on="1"/>
        <pt x="516" y="398" on="1"/>
        <pt x="535" y="372" on="0"/>
        <pt x="556" y="308" on="0"/>
        <pt x="556" y="273" on="1"/>
        <pt x="556" y="217" on="0"/>
        <pt x="509" y="109" on="0"/>
        <pt x="467" y="68" on="1"/>
        <pt x="425" y="28" on="0"/>
        <pt x="318" y="-15" on="0"/>
        <pt x="258" y="-15" on="1"/>
        <pt x="220" y="-15" on="0"/>
        <pt x="156" y="7" on="0"/>
        <pt x="129" y="29" on="1"/>
        <pt x="32" y="-71" on="1"/>
        <pt x="-43" y="-71" on="1"/>
        <pt x="98" y="62" on="1"/>
        <pt x="78" y="88" on="0"/>
        <pt x="58" y="152" on="0"/>
        <pt x="58" y="187" on="1"/>
        <pt x="58" y="243" on="0"/>
        <pt x="105" y="351" on="0"/>
      </contour>
      <contour>
        <pt x="351" y="426" on="1"/>
        <pt x="258" y="426" on="0"/>
        <pt x="118" y="281" on="0"/>
        <pt x="118" y="185" on="1"/>
        <pt x="118" y="162" on="0"/>
        <pt x="129" y="120" on="0"/>
        <pt x="140" y="102" on="1"/>
        <pt x="443" y="394" on="1"/>
        <pt x="424" y="410" on="0"/>
        <pt x="377" y="426" on="0"/>
      </contour>
      <contour>
        <pt x="263" y="34" on="1"/>
        <pt x="356" y="34" on="0"/>
        <pt x="496" y="179" on="0"/>
        <pt x="496" y="275" on="1"/>
        <pt x="496" y="298" on="0"/>
        <pt x="485" y="340" on="0"/>
        <pt x="474" y="359" on="1"/>
        <pt x="170" y="67" on="1"/>
        <pt x="189" y="51" on="0"/>
        <pt x="237" y="34" on="0"/>
      </contour>
    </TTGlyph>
    <TTGlyph name="otilde" xMin="58" yMin="-15" xMax="631" yMax="731">
      <component glyphName="o" x="0" y="0" flags="0x204"/>
      <component glyphName="uni0303" x="298" y="5" flags="0x4"/>
    </TTGlyph>
    <TTGlyph name="p" xMin="-32" yMin="-230" xMax="557" yMax="468">
      <contour>
        <pt x="27" y="-230" on="1"/>
        <pt x="-32" y="-230" on="1"/>
        <pt x="166" y="460" on="1"/>
        <pt x="215" y="460" on="1"/>
        <pt x="195" y="363" on="1"/>
        <pt x="251" y="419" on="0"/>
        <pt x="344" y="468" on="0"/>
        <pt x="394" y="468" on="1"/>
        <pt x="470" y="468" on="0"/>
        <pt x="557" y="378" on="0"/>
        <pt x="557" y="300" on="1"/>
        <pt x="557" y="167" on="0"/>
        <pt x="370" y="-8" on="0"/>
        <pt x="221" y="-8" on="1"/>
        <pt x="189" y="-8" on="0"/>
        <pt x="127" y="4" on="0"/>
        <pt x="97" y="16" on="1"/>
      </contour>
      <contour>
        <pt x="495" y="297" on="1"/>
        <pt x="495" y="351" on="0"/>
        <pt x="435" y="418" on="0"/>
        <pt x="388" y="418" on="1"/>
        <pt x="339" y="418" on="0"/>
        <pt x="251" y="365" on="0"/>
        <pt x="178" y="297" on="1"/>
        <pt x="112" y="66" on="1"/>
        <pt x="135" y="54" on="0"/>
        <pt x="190" y="42" on="0"/>
        <pt x="222" y="42" on="1"/>
        <pt x="344" y="42" on="0"/>
        <pt x="495" y="191" on="0"/>
      </contour>
    </TTGlyph>
    <TTGlyph name="paragraph" xMin="150" yMin="0" xMax="631" yMax="655">
      <contour>
        <pt x="453" y="609" on="1"/>
        <pt x="363" y="298" on="1"/>
        <pt x="359" y="298" on="1"/>
        <pt x="255" y="298" on="0"/>
        <pt x="150" y="366" on="0"/>
        <pt x="150" y="433" on="1"/>
        <pt x="150" y="540" on="0"/>
        <pt x="296" y="655" on="0"/>
        <pt x="433" y="655" on="1"/>
        <pt x="631" y="655" on="1"/>
        <pt x="443" y="0" on="1"/>
        <pt x="385" y="0" on="1"/>
        <pt x="560" y="609" on="1"/>
      </contour>
    </TTGlyph>
    <TTGlyph name="parenleft" xMin="136" yMin="-145" xMax="661" yMax="803">
      <contour>
        <pt x="136" y="228" on="1"/>
        <pt x="136" y="396" on="0"/>
        <pt x="390" y="689" on="0"/>
        <pt x="636" y="803" on="1"/>
        <pt x="661" y="760" on="1"/>
        <pt x="432" y="647" on="0"/>
        <pt x="198" y="378" on="0"/>
        <pt x="198" y="228" on="1"/>
        <pt x="198" y="135" on="0"/>
        <pt x="305" y="-28" on="0"/>
        <pt x="414" y="-102" on="1"/>
        <pt x="381" y="-145" on="1"/>
        <pt x="259" y="-67" on="0"/>
        <pt x="136" y="121" on="0"/>
      </contour>
    </TTGlyph>
    <TTGlyph name="parenright" xMin="10" yMin="-145" xMax="535" yMax="803">
      <contour>
        <pt x="535" y="430" on="1"/>
        <pt x="535" y="262" on="0"/>
        <pt x="281" y="-31" on="0"/>
        <pt x="35" y="-145" on="1"/>
        <pt x="10" y="-102" on="1"/>
        <pt x="239" y="11" on="0"/>
        <pt x="473" y="280" on="0"/>
        <pt x="473" y="430" on="1"/>
        <pt x="473" y="523" on="0"/>
        <pt x="366" y="686" on="0"/>
        <pt x="257" y="760" on="1"/>
        <pt x="290" y="803" on="1"/>
        <pt x="412" y="725" on="0"/>
        <pt x="535" y="537" on="0"/>
      </contour>
    </TTGlyph>
    <TTGlyph name="percent" xMin="-45" yMin="-15" xMax="715" yMax="670">
      <contour>
        <pt x="413" y="560" on="1"/>
        <pt x="413" y="460" on="0"/>
        <pt x="305" y="317" on="0"/>
        <pt x="225" y="317" on="1"/>
        <pt x="170" y="317" on="0"/>
        <pt x="113" y="373" on="0"/>
        <pt x="113" y="427" on="1"/>
        <pt x="113" y="527" on="0"/>
        <pt x="221" y="670" on="0"/>
        <pt x="301" y="670" on="1"/>
        <pt x="356" y="670" on="0"/>
        <pt x="413" y="614" on="0"/>
      </contour>
      <contour>
        <pt x="714" y="654" on="1"/>
        <pt x="429" y="376" on="1"/>
        <pt x="394" y="376" on="1"/>
        <pt x="618" y="660" on="1"/>
        <pt x="715" y="660" on="1"/>
      </contour>
      <contour>
        <pt x="360" y="560" on="1"/>
        <pt x="360" y="592" on="0"/>
        <pt x="329" y="623" on="0"/>
        <pt x="297" y="623" on="1"/>
        <pt x="243" y="623" on="0"/>
        <pt x="166" y="500" on="0"/>
        <pt x="166" y="427" on="1"/>
        <pt x="166" y="395" on="0"/>
        <pt x="197" y="364" on="0"/>
        <pt x="229" y="364" on="1"/>
        <pt x="283" y="364" on="0"/>
        <pt x="360" y="487" on="0"/>
      </contour>
      <contour>
        <pt x="556" y="228" on="1"/>
        <pt x="556" y="128" on="0"/>
        <pt x="448" y="-15" on="0"/>
        <pt x="368" y="-15" on="1"/>
        <pt x="313" y="-15" on="0"/>
        <pt x="256" y="41" on="0"/>
        <pt x="256" y="95" on="1"/>
        <pt x="256" y="195" on="0"/>
        <pt x="364" y="338" on="0"/>
        <pt x="444" y="338" on="1"/>
        <pt x="499" y="338" on="0"/>
        <pt x="556" y="282" on="0"/>
      </contour>
      <contour>
        <pt x="-44" y="1" on="1"/>
        <pt x="241" y="279" on="1"/>
        <pt x="276" y="279" on="1"/>
        <pt x="52" y="-5" on="1"/>
        <pt x="-45" y="-5" on="1"/>
      </contour>
      <contour>
        <pt x="503" y="228" on="1"/>
        <pt x="503" y="260" on="0"/>
        <pt x="472" y="291" on="0"/>
        <pt x="440" y="291" on="1"/>
        <pt x="386" y="291" on="0"/>
        <pt x="309" y="168" on="0"/>
        <pt x="309" y="95" on="1"/>
        <pt x="309" y="63" on="0"/>
        <pt x="340" y="32" on="0"/>
        <pt x="372" y="32" on="1"/>
        <pt x="426" y="32" on="0"/>
        <pt x="503" y="155" on="0"/>
      </contour>
    </TTGlyph>
    <TTGlyph name="period" xMin="185" yMin="-15" xMax="335" yMax="122">
      <contour>
        <pt x="335" y="64" on="1"/>
        <pt x="335" y="29" on="0"/>
        <pt x="289" y="-15" on="0"/>
        <pt x="251" y="-15" on="1"/>
        <pt x="220" y="-15" on="0"/>
        <pt x="185" y="16" on="0"/>
        <pt x="185" y="42" on="1"/>
        <pt x="185" y="78" on="0"/>
        <pt x="231" y="122" on="0"/>
        <pt x="270" y="122" on="1"/>
        <pt x="299" y="122" on="0"/>
        <pt x="335" y="90" on="0"/>
      </contour>
    </TTGlyph>
    <TTGlyph name="periodcentered" xMin="266" yMin="267" xMax="416" yMax="404">
      <component glyphName="period" x="81" y="282" flags="0x4"/>
    </TTGlyph>
    <TTGlyph name="plus" xMin="93" yMin="90" xMax="576" yMax="561">
      <contour>
        <pt x="297" y="301" on="1"/>
        <pt x="93" y="301" on="1"/>
        <pt x="108" y="352" on="1"/>
        <pt x="312" y="352" on="1"/>
        <pt x="372" y="561" on="1"/>
        <pt x="431" y="561" on="1"/>
        <pt x="371" y="352" on="1"/>
        <pt x="576" y="352" on="1"/>
        <pt x="561" y="301" on="1"/>
        <pt x="356" y="301" on="1"/>
        <pt x="295" y="90" on="1"/>
        <pt x="236" y="90" on="1"/>
      </contour>
    </TTGlyph>
    <TTGlyph name="plusminus" xMin="7" yMin="0" xMax="609" yMax="655">
      <contour>
        <pt x="330" y="415" on="1"/>
        <pt x="126" y="415" on="1"/>
        <pt x="141" y="466" on="1"/>
        <pt x="345" y="466" on="1"/>
        <pt x="399" y="655" on="1"/>
        <pt x="458" y="655" on="1"/>
        <pt x="404" y="466" on="1"/>
        <pt x="609" y="466" on="1"/>
        <pt x="594" y="415" on="1"/>
        <pt x="389" y="415" on="1"/>
        <pt x="334" y="224" on="1"/>
        <pt x="275" y="224" on="1"/>
      </contour>
      <contour>
        <pt x="490" y="51" on="1"/>
        <pt x="475" y="0" on="1"/>
        <pt x="7" y="0" on="1"/>
        <pt x="22" y="51" on="1"/>
      </contour>
    </TTGlyph>
    <TTGlyph name="q" xMin="56" yMin="-230" xMax="570" yMax="468">
      <contour>
        <pt x="382" y="-230" on="1"/>
        <pt x="323" y="-230" on="1"/>
        <pt x="416" y="93" on="1"/>
        <pt x="360" y="39" on="0"/>
        <pt x="265" y="-8" on="0"/>
        <pt x="212" y="-8" on="1"/>
        <pt x="142" y="-8" on="0"/>
        <pt x="56" y="84" on="0"/>
        <pt x="56" y="160" on="1"/>
        <pt x="56" y="293" on="0"/>
        <pt x="246" y="468" on="0"/>
        <pt x="396" y="468" on="1"/>
        <pt x="438" y="468" on="0"/>
        <pt x="525" y="447" on="0"/>
        <pt x="570" y="426" on="1"/>
      </contour>
      <contour>
        <pt x="399" y="418" on="1"/>
        <pt x="273" y="418" on="0"/>
        <pt x="118" y="269" on="0"/>
        <pt x="118" y="163" on="1"/>
        <pt x="118" y="109" on="0"/>
        <pt x="174" y="42" on="0"/>
        <pt x="218" y="42" on="1"/>
        <pt x="270" y="42" on="0"/>
        <pt x="363" y="96" on="0"/>
        <pt x="436" y="163" on="1"/>
        <pt x="503" y="398" on="1"/>
        <pt x="478" y="408" on="0"/>
        <pt x="427" y="418" on="0"/>
      </contour>
    </TTGlyph>
</ttFont>
